<?xml version="1.0" encoding="utf-8"?>
<!-- Generator: Adobe Illustrator 16.0.0, SVG Export Plug-In . SVG Version: 6.00 Build 0)  -->
<!DOCTYPE svg PUBLIC "-//W3C//DTD SVG 1.1//EN" "http://www.w3.org/Graphics/SVG/1.1/DTD/svg11.dtd">
<svg version="1.1" id="Layer_1" xmlns="http://www.w3.org/2000/svg" xmlns:xlink="http://www.w3.org/1999/xlink" x="0px" y="0px"
	 width="111.667px" height="128.268px" viewBox="-15.953 0 111.667 128.268" enable-background="new -15.953 0 111.667 128.268"
	 xml:space="preserve">
<g>
	<g>
		<path fill="#7DAAAA" d="M37.164,77.789c0,0-36.593,5.878-34.783,18.197C4.19,108.305,32.575,93.046,37.164,77.789z"/>
		<path fill="#547171" d="M5.882,90.857c0.097-0.987,0.367-1.935,0.768-2.817c-2.923,1.884-4.782,4.451-4.269,7.947
			c0.769,5.238,4.728,6.409,9.377,4.851C7.984,99.042,5.494,94.82,5.882,90.857z"/>
		<path fill="#7DAAAA" d="M13.688,90.225c-0.264-0.005-0.579-0.025-0.825,0.077c-0.286,0.12-0.551,0.264-0.812,0.428
			c-0.199,0.119-0.372,0.287-0.551,0.434c-0.316,0.263-0.475,0.851-0.05,1.141c0.48,0.323,1.124,0.089,1.604-0.111
			c0.265-0.108,0.505-0.245,0.751-0.385c0.169-0.096,0.282-0.293,0.414-0.433C14.571,91.001,14.239,90.24,13.688,90.225z"/>
		<path fill="#7DAAAA" d="M15.332,93.251c-1.011,0.193-1.462,1.045-1.976,1.807c-0.21,0.312,0.116,0.835,0.523,0.637
			c0.317-0.153,0.637-0.313,0.942-0.489c0.375-0.215,0.778-0.369,1.129-0.615C16.546,94.169,16.102,93.104,15.332,93.251z"/>
		<path fill="#7DAAAA" d="M21.177,87.46c-0.603-0.445-1.541-0.243-1.793,0.442c-0.118,0.321-0.319,0.559-0.554,0.811
			c-0.28,0.304-0.533,0.587-0.774,0.922c-0.297,0.406,0.043,1.158,0.644,1.021c1.092-0.246,2.056-0.737,2.735-1.612
			C21.809,88.564,21.698,87.843,21.177,87.46z"/>
	</g>
	<g>
		<path fill="#7DAAAA" d="M43.458,77.789c0,0,36.592,5.878,34.781,18.197C76.431,108.305,48.046,93.046,43.458,77.789z"/>
		<path fill="#547171" d="M74.739,90.857c-0.099-0.987-0.366-1.935-0.767-2.817c2.924,1.884,4.781,4.451,4.268,7.947
			c-0.769,5.238-4.728,6.409-9.377,4.851C72.637,99.042,75.128,94.82,74.739,90.857z"/>
		<path fill="#7DAAAA" d="M66.933,90.225c0.265-0.005,0.579-0.025,0.824,0.077c0.288,0.12,0.552,0.264,0.815,0.428
			c0.197,0.119,0.37,0.287,0.55,0.434c0.315,0.263,0.474,0.851,0.049,1.141c-0.479,0.323-1.123,0.089-1.603-0.111
			c-0.266-0.108-0.505-0.245-0.753-0.385c-0.17-0.096-0.282-0.293-0.415-0.433C66.05,91.001,66.384,90.24,66.933,90.225z"/>
		<path fill="#7DAAAA" d="M65.288,93.251c1.011,0.193,1.465,1.045,1.977,1.807c0.21,0.312-0.117,0.835-0.524,0.637
			c-0.315-0.153-0.637-0.313-0.94-0.489c-0.375-0.215-0.779-0.369-1.131-0.615C64.074,94.169,64.517,93.104,65.288,93.251z"/>
		<path fill="#7DAAAA" d="M59.444,87.46c0.603-0.445,1.542-0.243,1.794,0.442c0.117,0.321,0.319,0.559,0.553,0.811
			c0.281,0.304,0.535,0.587,0.775,0.922c0.299,0.406-0.043,1.158-0.643,1.021c-1.093-0.246-2.056-0.737-2.735-1.612
			C58.812,88.564,58.923,87.843,59.444,87.46z"/>
	</g>
	<g>
		<path fill="#CAEDED" d="M40.507,75.507c0,0-46.574-19.389-53.822-7.798C-20.564,79.301,6.213,96.873,40.507,75.507z"/>
		<path fill="#A7E2E2" d="M5.599,75.723c0-4.058,1.303-7.501,3.473-10.21c-10.105-2.111-19.457-2.488-22.387,2.196
			c-4.75,7.593,5.106,17.753,22.111,17.851C6.793,82.816,5.599,79.447,5.599,75.723z"/>
		<path fill="#547171" d="M-1.309,84.162c-1.718-1.017-3.085-2.384-4.102-4.103c-0.384-0.91-0.77-1.82-1.153-2.731
			c-0.812-2.95-0.393-6.169,1.153-8.81c1.156-1.976,2.838-3.465,4.77-4.414c-5.948-0.376-10.729,0.496-12.673,3.604
			c-3.706,5.925,1.483,13.413,12.021,16.464C-1.299,84.168-1.305,84.165-1.309,84.162z"/>
		<g>
			<path fill="#454C53" d="M19.693,78.656c-1.304-1.172-2.651,0.18-3.994,0.519c-0.81,0.204-0.878,1.544,0,1.703
				c0.628,0.111,1.238,0.112,1.874,0.092c0.783-0.025,1.521,0.089,2.121-0.53C20.151,79.964,20.21,79.12,19.693,78.656z"/>
			<path fill="#454C53" d="M18.595,72.347c-0.74-0.219-1.503-0.047-2.257,0.041c-0.771,0.091-1.544,0.181-2.316,0.272
				c-0.865,0.102-0.865,1.242,0,1.345c0.772,0.091,1.545,0.182,2.316,0.273c0.754,0.088,1.518,0.26,2.257,0.04
				C19.571,74.029,19.571,72.636,18.595,72.347z"/>
			<path fill="#454C53" d="M29.26,75.82c-0.207-0.751-1.006-1.199-1.757-0.995c-0.825,0.224-1.374,0.796-2.275,0.606
				c-0.7-0.146-1.462,0.799-0.776,1.335c1.122,0.877,2.823,1.585,4.153,0.668C29.136,77.067,29.441,76.476,29.26,75.82z"/>
		</g>
	</g>
	<g>
		<path fill="#CAEDED" d="M39.157,75.507c0,0,46.576-19.389,53.824-7.798C100.23,79.301,73.453,96.873,39.157,75.507z"/>
		<path fill="#A7E2E2" d="M74.068,75.723c0-4.058-1.303-7.501-3.474-10.21c10.105-2.111,19.458-2.488,22.388,2.196
			c4.75,7.593-5.107,17.753-22.113,17.851C72.873,82.816,74.068,79.447,74.068,75.723z"/>
		<path fill="#547171" d="M80.976,84.162c1.718-1.017,3.085-2.384,4.102-4.103c0.384-0.91,0.769-1.82,1.152-2.731
			c0.812-2.95,0.393-6.169-1.152-8.81c-1.157-1.976-2.839-3.465-4.77-4.414c5.947-0.376,10.729,0.496,12.674,3.604
			c3.706,5.925-1.485,13.413-12.022,16.464C80.965,84.168,80.971,84.165,80.976,84.162z"/>
		<g>
			<path fill="#454C53" d="M59.973,78.656c1.305-1.172,2.651,0.18,3.994,0.519c0.812,0.204,0.879,1.544,0,1.703
				c-0.628,0.111-1.239,0.112-1.873,0.092c-0.782-0.025-1.521,0.089-2.121-0.53C59.517,79.964,59.457,79.12,59.973,78.656z"/>
			<path fill="#454C53" d="M61.071,72.347c0.74-0.219,1.503-0.047,2.258,0.041c0.771,0.091,1.544,0.181,2.315,0.272
				c0.864,0.102,0.864,1.242,0,1.345c-0.771,0.091-1.544,0.182-2.315,0.273c-0.755,0.088-1.518,0.26-2.258,0.04
				C60.095,74.029,60.095,72.636,61.071,72.347z"/>
			<path fill="#454C53" d="M50.405,75.82c0.207-0.751,1.007-1.199,1.758-0.995c0.826,0.224,1.375,0.796,2.277,0.606
				c0.699-0.146,1.462,0.799,0.775,1.335c-1.122,0.877-2.822,1.585-4.153,0.668C50.53,77.067,50.226,76.476,50.405,75.82z"/>
		</g>
	</g>
	<path fill="#6DCECE" d="M44.329,94.473c0,16.044-1.652,29.049-3.689,29.049c-2.039,0-3.692-13.005-3.692-29.049
		c0-16.04,1.653-29.046,3.692-29.046C42.677,65.427,44.329,78.433,44.329,94.473z"/>
	<ellipse fill="#6DCECE" cx="40.639" cy="64.62" rx="7.656" ry="4.727"/>
	<path fill="none" stroke="#6DCECE" stroke-width="2" stroke-miterlimit="10" d="M40.869,63.12c0-4.152,0.922-8.767,4.152-14.302"/>
	<path fill="none" stroke="#6DCECE" stroke-width="2" stroke-miterlimit="10" d="M39.716,62.198
		c1.385-4.152-2.768-8.767-5.998-11.535"/>
	<path fill="#6DCECE" stroke="#6DCECE" stroke-miterlimit="10" d="M44.88,47.601c-2,0-2,2.433,0,2.433S46.88,47.601,44.88,47.601z"
		/>
	<path fill="#6DCECE" stroke="#6DCECE" stroke-miterlimit="10" d="M33.88,49.677c-4,0-4,2.433,0,2.433V49.677z"/>
</g>
</svg>
