<?xml version="1.0" encoding="utf-8"?>
<!-- Generator: Adobe Illustrator 16.0.0, SVG Export Plug-In . SVG Version: 6.00 Build 0)  -->
<!DOCTYPE svg PUBLIC "-//W3C//DTD SVG 1.1//EN" "http://www.w3.org/Graphics/SVG/1.1/DTD/svg11.dtd">
<svg version="1.1" id="Layer_1" xmlns="http://www.w3.org/2000/svg" xmlns:xlink="http://www.w3.org/1999/xlink" x="0px" y="0px"
	 width="111.667px" height="128.268px" viewBox="0 0 111.667 128.268" enable-background="new 0 0 111.667 128.268"
	 xml:space="preserve">
<g>
	<path fill="#FF9F81" d="M54.732,73.27c0,0-37.876,17.448-28.514,34.474C35.582,124.766,56.861,98.379,54.732,73.27z"/>
	<path fill="#FF866A" d="M28.22,98.148c-0.415-1.511-0.569-3.061-0.502-4.593c-3.006,4.49-4.156,9.354-1.499,14.188
		c3.982,7.24,10.12,6.624,15.696,1.597C35.684,108.928,29.883,104.196,28.22,98.148z"/>
	<path fill="#FFCBB5" d="M54.732,73.27c0,0-24.684-46.389-37.451-36.601S13.876,64.757,8.769,73.27
		C3.663,81.781,2.386,120.935,54.732,73.27z"/>
	<path fill="#FF9F81" d="M23.499,82.701c0.537-4.969,1.979-9.332,3.16-14.128c0.008-0.036,0.016-0.064,0.024-0.1
		c0.004-0.233,0.008-0.47,0.003-0.705c-0.026-1.282-0.098-2.562-0.183-3.841c-0.171-2.597-0.348-5.191-0.08-7.788
		c0.549-5.329,1.881-10.872,5.658-14.892c-5.354-5.062-10.694-7.729-14.8-4.581c-12.767,9.788-3.405,28.088-8.512,36.601
		c-3.867,6.445-5.53,30.45,16.616,21.034C23.801,90.734,23.046,86.871,23.499,82.701z"/>
	<path fill="#FF866A" d="M12.292,75.714c0.101-3.668-0.055-7.348,0.312-11.004c0.877-8.746,1.766-12.376,5.102-20.234
		c1.425-3.359,3.733-6.183,6.411-8.628c-2.481-0.866-4.808-0.731-6.835,0.821C4.515,46.457,13.877,64.757,8.77,73.27
		c-3.077,5.13-4.758,21.381,5.844,23.06C11.555,90.124,10.725,82.855,12.292,75.714z"/>
	<g>
		<path fill="#454C53" d="M38.689,92.62c-0.37,0.146-0.818,0.303-1.101,0.599c-0.331,0.346-0.617,0.711-0.89,1.103
			c-0.207,0.297-0.355,0.644-0.521,0.966c-0.293,0.572-0.187,1.531,0.565,1.703c0.845,0.192,1.606-0.53,2.162-1.106
			c0.304-0.315,0.563-0.66,0.827-1.011c0.181-0.239,0.229-0.597,0.333-0.878C40.344,93.238,39.458,92.315,38.689,92.62z"/>
		<path fill="#454C53" d="M42.652,96.092c-1.294,0.882-1.449,2.4-1.735,3.818c-0.118,0.581,0.625,1.157,1.08,0.628
			c0.354-0.413,0.71-0.837,1.034-1.273c0.397-0.538,0.873-1.001,1.221-1.571C44.845,96.724,43.638,95.422,42.652,96.092z"/>
		<path fill="#454C53" d="M47.533,84.144c-1.086-0.299-2.274,0.553-2.241,1.707c0.015,0.544-0.132,1.009-0.317,1.52
			c-0.221,0.609-0.414,1.174-0.564,1.809c-0.183,0.772,0.709,1.673,1.461,1.123c1.38-1.006,2.44-2.298,2.897-3.979
			C49.023,85.391,48.465,84.401,47.533,84.144z"/>
		<path fill="#454C53" d="M36.303,76.151c-0.629,0.403-1.204,1.146-1.999,1.229c-1.258,0.132-1.303,1.927,0,1.99
			c1.354,0.066,2.743-0.606,3.503-1.716C38.434,76.741,37.21,75.568,36.303,76.151z"/>
		<path fill="#454C53" d="M36.214,69.377c-1.286,0.257-2.474,0.834-3.645,1.407c-0.979,0.479-0.252,1.84,0.7,1.658
			c1.105-0.211,2.187-0.396,3.315-0.324C38.53,72.24,38.307,68.958,36.214,69.377z"/>
		<path fill="#454C53" d="M37.125,63.535c-0.929,0.134-1.901-0.104-2.82-0.222c-0.612-0.079-0.771,0.828-0.299,1.104
			c1.013,0.594,1.979,1.224,3.119,1.55c0.79,0.227,1.597-0.401,1.597-1.217C38.721,63.856,37.921,63.421,37.125,63.535z"/>
		<path fill="#454C53" d="M41.683,58.219c-0.451-0.838-1.451-0.836-2.258-1.132c-0.709-0.263-1.377-0.654-2.035-1.021
			c-0.185-0.104-0.39,0.103-0.287,0.286c0.664,1.188,2.148,4.235,3.892,3.559C41.698,59.637,42.063,58.922,41.683,58.219z"/>
		<path fill="#454C53" d="M47.286,71.824c-0.41-0.699-1.513-0.92-2.081-0.27c-0.455,0.522-1.042,0.901-1.605,1.296
			c-0.362,0.254-0.572,0.654-0.449,1.104c0.136,0.495,0.696,0.849,1.203,0.682c0.831-0.271,1.712-0.529,2.457-0.999
			C47.421,73.254,47.66,72.463,47.286,71.824z"/>
		<path fill="#454C53" d="M47.345,66.619c-1.172-0.754-2.598-1.118-3.97-0.794c-1.085,0.256-1.016,1.828,0,2.121
			c0.375,0.106,0.808,0.326,1.215,0.568c0.628,0.377,1.085,1.271,2.057,1.147c0.867-0.109,1.428-0.604,1.502-1.501l0.01-0.124
			C48.207,67.456,47.806,66.916,47.345,66.619z"/>
	</g>
	<path fill="#FF9F81" d="M58.137,73.27c0,0,37.878,17.448,28.516,34.474C77.29,124.766,56.01,98.379,58.137,73.27z"/>
	<path fill="#FF866A" d="M84.651,98.148c0.413-1.511,0.567-3.061,0.502-4.593c3.006,4.49,4.156,9.354,1.5,14.188
		c-3.982,7.24-10.121,6.624-15.698,1.597C77.188,108.928,82.987,104.196,84.651,98.148z"/>
	<path fill="#FFCBB5" d="M58.137,73.27c0,0,24.686-46.389,37.453-36.601s3.404,28.088,8.511,36.601
		C109.208,81.781,110.485,120.935,58.137,73.27z"/>
	<path fill="#FF9F81" d="M89.372,82.701c-0.536-4.969-1.978-9.332-3.158-14.128c-0.01-0.036-0.018-0.064-0.025-0.1
		c-0.004-0.233-0.008-0.47-0.004-0.705c0.025-1.282,0.1-2.562,0.184-3.841c0.172-2.597,0.349-5.191,0.08-7.788
		c-0.549-5.329-1.881-10.872-5.658-14.892c5.355-5.062,10.695-7.729,14.802-4.581c12.767,9.788,3.403,28.088,8.511,36.601
		c3.868,6.445,5.531,30.45-16.615,21.034C89.069,90.734,89.825,86.871,89.372,82.701z"/>
	<path fill="#FF866A" d="M100.579,75.714c-0.101-3.668,0.057-7.348-0.312-11.004c-0.878-8.746-1.769-12.375-5.103-20.234
		c-1.426-3.359-3.733-6.183-6.411-8.628c2.481-0.866,4.808-0.731,6.836,0.821c12.767,9.788,3.403,28.088,8.511,36.601
		c3.077,5.13,4.76,21.381-5.844,23.06C101.315,90.124,102.146,82.855,100.579,75.714z"/>
	<g>
		<path fill="#454C53" d="M74.182,92.62c0.371,0.146,0.818,0.303,1.102,0.599c0.33,0.346,0.617,0.711,0.89,1.103
			c0.207,0.297,0.354,0.644,0.521,0.966c0.293,0.572,0.188,1.531-0.564,1.703c-0.846,0.192-1.605-0.53-2.161-1.106
			c-0.306-0.315-0.563-0.66-0.827-1.011c-0.181-0.239-0.229-0.597-0.332-0.878C72.526,93.238,73.413,92.315,74.182,92.62z"/>
		<path fill="#454C53" d="M70.219,96.092c1.294,0.882,1.449,2.4,1.734,3.818c0.117,0.581-0.626,1.157-1.079,0.628
			c-0.354-0.413-0.713-0.837-1.034-1.273c-0.397-0.538-0.873-1.001-1.222-1.571C68.027,96.724,69.232,95.422,70.219,96.092z"/>
		<path fill="#454C53" d="M65.338,84.144c1.086-0.299,2.272,0.553,2.239,1.707c-0.016,0.544,0.134,1.009,0.316,1.52
			c0.221,0.609,0.415,1.174,0.564,1.809c0.184,0.772-0.709,1.673-1.461,1.123c-1.379-1.006-2.439-2.298-2.896-3.979
			C63.848,85.391,64.406,84.401,65.338,84.144z"/>
		<path fill="#454C53" d="M76.567,76.151c0.631,0.403,1.204,1.146,2,1.229c1.258,0.132,1.303,1.927,0,1.99
			c-1.354,0.066-2.744-0.606-3.505-1.716C74.438,76.741,75.661,75.568,76.567,76.151z"/>
		<path fill="#454C53" d="M76.657,69.377c1.285,0.257,2.475,0.834,3.645,1.407c0.98,0.479,0.253,1.84-0.699,1.658
			c-1.105-0.211-2.188-0.396-3.314-0.324C74.34,72.24,74.564,68.958,76.657,69.377z"/>
		<path fill="#454C53" d="M75.747,63.535c0.929,0.134,1.902-0.104,2.82-0.222c0.61-0.079,0.771,0.828,0.299,1.104
			c-1.015,0.594-1.979,1.224-3.119,1.55c-0.791,0.227-1.598-0.401-1.598-1.217C74.149,63.856,74.95,63.421,75.747,63.535z"/>
		<path fill="#454C53" d="M71.188,58.219c0.451-0.838,1.451-0.836,2.258-1.132c0.711-0.263,1.377-0.654,2.035-1.021
			c0.186-0.104,0.391,0.103,0.287,0.286c-0.664,1.188-2.148,4.235-3.893,3.559C71.174,59.637,70.807,58.922,71.188,58.219z"/>
		<path fill="#454C53" d="M65.583,71.824c0.41-0.699,1.515-0.92,2.082-0.27c0.453,0.522,1.041,0.901,1.605,1.296
			c0.362,0.254,0.572,0.654,0.448,1.104c-0.136,0.495-0.696,0.849-1.202,0.682c-0.832-0.271-1.713-0.529-2.457-0.999
			C65.451,73.254,65.211,72.463,65.583,71.824z"/>
		<path fill="#454C53" d="M65.525,66.619c1.174-0.754,2.598-1.118,3.971-0.794c1.084,0.256,1.017,1.828,0,2.121
			c-0.375,0.106-0.809,0.326-1.215,0.568c-0.629,0.377-1.086,1.271-2.058,1.147c-0.866-0.109-1.428-0.604-1.501-1.501l-0.01-0.124
			C64.664,67.456,65.064,66.916,65.525,66.619z"/>
	</g>
	<g>
		<ellipse fill="#FF866A" cx="56.165" cy="80.306" rx="2.618" ry="14.398"/>
		<ellipse fill="#FF866A" cx="56.165" cy="65.337" rx="2.618" ry="3.354"/>
		<path fill="none" stroke="#FF866A" stroke-width="2" stroke-miterlimit="10" d="M56.328,64.273c0-2.944,0.656-6.218,2.945-10.145"
			/>
		<path fill="none" stroke="#FF866A" stroke-width="2" stroke-miterlimit="10" d="M55.511,63.618c0.98-2.944-1.964-6.217-4.254-8.18
			"/>
		<path fill="#FF866A" d="M58.496,53.266c-1,0-1,1.727,0,1.727C60.496,54.992,60.496,53.266,58.496,53.266z"/>
		<path fill="#FF866A" d="M51.496,54.74c-2,0-2,1.726,0,1.726C52.496,56.464,52.496,54.74,51.496,54.74z"/>
	</g>
</g>
</svg>
