<?xml version="1.0" encoding="utf-8"?>
<!-- Generator: Adobe Illustrator 16.0.0, SVG Export Plug-In . SVG Version: 6.00 Build 0)  -->
<!DOCTYPE svg PUBLIC "-//W3C//DTD SVG 1.1//EN" "http://www.w3.org/Graphics/SVG/1.1/DTD/svg11.dtd">
<svg version="1.1" id="Layer_1" xmlns="http://www.w3.org/2000/svg" xmlns:xlink="http://www.w3.org/1999/xlink" x="0px" y="0px"
	 width="100px" height="100px" viewBox="-18.37 31.45 100 100" enable-background="new -18.37 31.45 100 100" xml:space="preserve">
<g>
	<ellipse fill="#6A878F" cx="32.041" cy="88.831" rx="11.219" ry="19.486"/>
	<ellipse fill="#6A878F" cx="37.228" cy="65.358" rx="6.072" ry="6.097"/>
	<ellipse fill="#6A878F" cx="26.381" cy="65.358" rx="6.07" ry="6.097"/>
	<ellipse fill="#6A878F" cx="31.569" cy="63.942" rx="6.07" ry="6.098"/>
	<path fill="none" stroke="#6A878F" stroke-miterlimit="10" d="M32.192,60.282c0-2.731,0.607-5.767,2.732-9.408"/>
	<path fill="none" stroke="#6A878F" stroke-miterlimit="10" d="M31.433,59.677c0.913-2.732-1.82-5.767-3.945-7.587"/>
	<g>
		<path fill="#A7E2E2" d="M26.225,72.317c0,0-14.507,4.259-22.47,24.149c-9.39,23.456,21.232,15.588,26.612-5.455
			C30.366,91.008,22.08,83.896,26.225,72.317z"/>
		<path fill="#AEC65B" d="M3.755,96.466c2.073-5.18,4.592-9.293,7.181-12.55c0.003,0.909,0.03,1.821,0.081,2.741
			c0.248,4.396,1.915,8.912,5.516,11.656c2.873,2.189,6.215,2.673,9.396,1.954C15.964,113.792-4.085,116.045,3.755,96.466z"/>
		<path fill="#839544" d="M3.755,96.466c0.667-1.666,1.381-3.218,2.127-4.67c-0.388,2.633-0.406,5.265,0.186,7.701
			c1.204,4.955,5.529,8.55,10.82,7.646c1.081-0.188,2.203-0.629,3.244-1.257c0.109,0.01,0.219,0.013,0.33,0.016
			C10.205,113.95-2.817,112.878,3.755,96.466z"/>
		<g>
			<g>
				<path fill="#454C53" d="M21.388,88.749c0.748-3.04,1.901-5.944,3.94-8.314c0.022,0.124,0.04,0.247,0.066,0.367
					c0.06,0.255,0.118,0.515,0.176,0.777c0.013,0.069,0.02,0.14,0.033,0.209c0.033,0.15,0.068,0.304,0.102,0.455
					c-1.342,2.376-2.305,4.798-2.852,7.575c-0.569,2.901-0.308,6.104-1.259,8.9c-0.225,0.655-1.257,0.55-1.348-0.134
					C19.828,95.486,20.646,91.766,21.388,88.749z"/>
				<path fill="#454C53" d="M16.241,94.543c0.687-2.458,2.462-4.948,3.777-7.131c1.355-2.252,2.923-4.3,5.173-5.712
					c0.158-0.097,0.322,0.09,0.185,0.23c-2.09,2.08-3.553,4.663-4.848,7.287c-0.983,1.989-1.753,4.413-3.334,6.015
					C16.721,95.711,16.096,95.063,16.241,94.543z"/>
				<path fill="#454C53" d="M13.275,87.509c4.138-2.014,8.119-3.829,11.975-6.402c0.158-0.104,0.323,0.095,0.187,0.229
					c-3.217,3.151-7.183,6.626-11.748,7.502C12.89,88.994,12.57,87.853,13.275,87.509z"/>
				<path fill="#454C53" d="M23.091,83.638c0.081-0.232,0.475-0.146,0.424,0.101c-0.612,3.061,0.376,5.247,1.627,7.937
					c0.304,0.655-0.579,1.169-1.041,0.652C22.059,90.047,22.136,86.352,23.091,83.638z"/>
				<path fill="#454C53" d="M18.739,79.75c0.917,0.421,1.6,1.143,2.568,1.485c1.093,0.389,2.266,0.15,3.364-0.056
					c0.266-0.05,0.467,0.337,0.227,0.499c-1.915,1.309-5.96,1.534-6.839-1.208C17.932,80.072,18.262,79.532,18.739,79.75z"/>
			</g>
			<g>
				<path fill="#454C53" d="M21.388,88.749c0.748-3.04,1.901-5.944,3.94-8.314c0.022,0.124,0.04,0.247,0.066,0.367
					c0.06,0.255,0.118,0.515,0.176,0.777c0.013,0.069,0.02,0.14,0.033,0.209c0.033,0.15,0.068,0.304,0.102,0.455
					c-1.342,2.376-2.305,4.798-2.852,7.575c-0.569,2.901-0.308,6.104-1.259,8.9c-0.225,0.655-1.257,0.55-1.348-0.134
					C19.828,95.486,20.646,91.766,21.388,88.749z"/>
				<path fill="#454C53" d="M16.241,94.543c0.687-2.458,2.462-4.948,3.777-7.131c1.355-2.252,2.923-4.3,5.173-5.712
					c0.158-0.097,0.322,0.09,0.185,0.23c-2.09,2.08-3.553,4.663-4.848,7.287c-0.983,1.989-1.753,4.413-3.334,6.015
					C16.721,95.711,16.096,95.063,16.241,94.543z"/>
				<path fill="#454C53" d="M13.275,87.509c4.138-2.014,8.119-3.829,11.975-6.402c0.158-0.104,0.323,0.095,0.187,0.229
					c-3.217,3.151-7.183,6.626-11.748,7.502C12.89,88.994,12.57,87.853,13.275,87.509z"/>
				<path fill="#454C53" d="M23.091,83.638c0.081-0.232,0.475-0.146,0.424,0.101c-0.612,3.061,0.376,5.247,1.627,7.937
					c0.304,0.655-0.579,1.169-1.041,0.652C22.059,90.047,22.136,86.352,23.091,83.638z"/>
				<path fill="#454C53" d="M18.739,79.75c0.917,0.421,1.6,1.143,2.568,1.485c1.093,0.389,2.266,0.15,3.364-0.056
					c0.266-0.05,0.467,0.337,0.227,0.499c-1.915,1.309-5.96,1.534-6.839-1.208C17.932,80.072,18.262,79.532,18.739,79.75z"/>
			</g>
		</g>
	</g>
	<g>
		<path fill="#A7E2E2" d="M37.73,72.317c0,0,14.508,4.259,22.469,24.149c9.393,23.456-21.231,15.588-26.611-5.455
			C33.587,91.008,41.875,83.896,37.73,72.317z"/>
		<path fill="#AEC65B" d="M60.198,96.466c-2.071-5.18-4.589-9.293-7.179-12.55c0,0.909-0.03,1.821-0.081,2.741
			c-0.248,4.396-1.918,8.912-5.517,11.656c-2.876,2.189-6.218,2.673-9.4,1.954C47.993,113.792,68.039,116.045,60.198,96.466z"/>
		<path fill="#839544" d="M60.198,96.466c-0.666-1.666-1.379-3.218-2.125-4.67c0.39,2.633,0.404,5.265-0.188,7.701
			c-1.201,4.955-5.524,8.55-10.816,7.646c-1.081-0.188-2.204-0.629-3.248-1.257c-0.108,0.01-0.22,0.013-0.329,0.016
			C53.75,113.95,66.772,112.878,60.198,96.466z"/>
		<g>
			<g>
				<path fill="#454C53" d="M42.566,88.749c-0.749-3.04-1.901-5.944-3.943-8.314c-0.021,0.124-0.038,0.247-0.065,0.367
					c-0.058,0.255-0.115,0.515-0.175,0.777c-0.013,0.069-0.019,0.14-0.031,0.209c-0.033,0.15-0.07,0.304-0.103,0.455
					c1.344,2.376,2.304,4.798,2.851,7.575c0.57,2.901,0.311,6.104,1.262,8.9c0.223,0.655,1.256,0.55,1.347-0.134
					C44.123,95.486,43.309,91.766,42.566,88.749z"/>
				<path fill="#454C53" d="M47.712,94.543c-0.683-2.458-2.461-4.948-3.775-7.131c-1.355-2.252-2.922-4.3-5.172-5.712
					c-0.16-0.097-0.323,0.09-0.187,0.23c2.088,2.08,3.55,4.663,4.846,7.287c0.983,1.989,1.755,4.413,3.338,6.015
					C47.235,95.711,47.857,95.063,47.712,94.543z"/>
				<path fill="#454C53" d="M50.68,87.509c-4.14-2.014-8.12-3.829-11.976-6.402c-0.157-0.104-0.322,0.095-0.187,0.229
					c3.218,3.151,7.184,6.626,11.751,7.502C51.066,88.994,51.387,87.853,50.68,87.509z"/>
				<path fill="#454C53" d="M40.864,83.638c-0.082-0.232-0.477-0.146-0.426,0.101c0.612,3.061-0.374,5.247-1.627,7.937
					c-0.303,0.655,0.579,1.169,1.041,0.652C41.892,90.047,41.817,86.352,40.864,83.638z"/>
				<path fill="#454C53" d="M45.218,79.75c-0.919,0.421-1.604,1.143-2.57,1.485c-1.097,0.389-2.269,0.15-3.367-0.056
					c-0.265-0.05-0.468,0.337-0.226,0.499c1.917,1.309,5.961,1.534,6.839-1.208C46.025,80.072,45.692,79.532,45.218,79.75z"/>
			</g>
			<g>
				<path fill="#454C53" d="M42.566,88.749c-0.749-3.04-1.901-5.944-3.943-8.314c-0.021,0.124-0.038,0.247-0.065,0.367
					c-0.058,0.255-0.115,0.515-0.175,0.777c-0.013,0.069-0.019,0.14-0.031,0.209c-0.033,0.15-0.07,0.304-0.103,0.455
					c1.344,2.376,2.304,4.798,2.851,7.575c0.57,2.901,0.311,6.104,1.262,8.9c0.223,0.655,1.256,0.55,1.347-0.134
					C44.123,95.486,43.309,91.766,42.566,88.749z"/>
				<path fill="#454C53" d="M47.712,94.543c-0.683-2.458-2.461-4.948-3.775-7.131c-1.355-2.252-2.922-4.3-5.172-5.712
					c-0.16-0.097-0.323,0.09-0.187,0.23c2.088,2.08,3.55,4.663,4.846,7.287c0.983,1.989,1.755,4.413,3.338,6.015
					C47.235,95.711,47.857,95.063,47.712,94.543z"/>
				<path fill="#454C53" d="M50.68,87.509c-4.14-2.014-8.12-3.829-11.976-6.402c-0.157-0.104-0.322,0.095-0.187,0.229
					c3.218,3.151,7.184,6.626,11.751,7.502C51.066,88.994,51.387,87.853,50.68,87.509z"/>
				<path fill="#454C53" d="M40.864,83.638c-0.082-0.232-0.477-0.146-0.426,0.101c0.612,3.061-0.374,5.247-1.627,7.937
					c-0.303,0.655,0.579,1.169,1.041,0.652C41.892,90.047,41.817,86.352,40.864,83.638z"/>
				<path fill="#454C53" d="M45.218,79.75c-0.919,0.421-1.604,1.143-2.57,1.485c-1.097,0.389-2.269,0.15-3.367-0.056
					c-0.265-0.05-0.468,0.337-0.226,0.499c1.917,1.309,5.961,1.534,6.839-1.208C46.025,80.072,45.692,79.532,45.218,79.75z"/>
			</g>
		</g>
	</g>
	<ellipse fill="#454C53" cx="24.809" cy="63.778" rx="4.498" ry="4.517"/>
	<ellipse fill="#454C53" cx="38.488" cy="63.778" rx="4.498" ry="4.517"/>
</g>
</svg>
