<?xml version="1.0" encoding="utf-8"?>
<!-- Generator: Adobe Illustrator 16.0.0, SVG Export Plug-In . SVG Version: 6.00 Build 0)  -->
<!DOCTYPE svg PUBLIC "-//W3C//DTD SVG 1.1//EN" "http://www.w3.org/Graphics/SVG/1.1/DTD/svg11.dtd">
<svg version="1.1" id="Layer_1" xmlns="http://www.w3.org/2000/svg" xmlns:xlink="http://www.w3.org/1999/xlink" x="0px" y="0px"
	 width="115.047px" height="128.268px" viewBox="0 0 115.047 128.268" enable-background="new 0 0 115.047 128.268"
	 xml:space="preserve">
<g>
	<ellipse opacity="0.2" fill="#414042" cx="56.851" cy="107.505" rx="55.441" ry="2.104"/>
	<g>
		<path fill="#E9E5D9" d="M1.605,85.714c-0.96,1.728-1.306,3.563-1.144,5.313H3.79c0.787,0,1.428-0.642,1.428-1.426v-2.457
			c0-0.786-0.642-1.431-1.428-1.431H1.605z"/>
		<path fill="#606E72" d="M9.085,75.583c-0.17,0.263,0.035,0.614,0.344,0.614h20.185c0.224,0,0.407-0.182,0.407-0.405
			c0-1.125,0-4.381,0-6.965c0-1.341,0-2.497,0-3.086c0-0.219-0.184-0.399-0.407-0.399h-1.855
			C20.172,65.342,13.132,69.233,9.085,75.583z"/>
		<path fill="#606E72" d="M31.706,66.079v9.381c0,0.407,0.331,0.737,0.737,0.737h12.056c0.405,0,0.735-0.33,0.735-0.737v-9.381
			c0-0.406-0.33-0.737-0.735-0.737H32.444C32.037,65.342,31.706,65.673,31.706,66.079z"/>
		<rect x="46.922" y="79.902" fill="#E9E5D9" width="5.861" height="1.996"/>
		<path fill="#606E72" d="M46.922,66.12v9.3c0,0.426,0.346,0.777,0.778,0.777h18.27c0.65,0,1.015-0.757,0.603-1.267l-3.866-4.758
			l-1.508-1.861c-1.523-1.882-3.817-2.97-6.237-2.97H47.7C47.268,65.342,46.922,65.686,46.922,66.12z"/>
		<path fill="#FF7B7B" d="M47.7,76.198h18.27c0.65,0,1.015-0.757,0.603-1.267l-3.866-4.758l-1.508-1.861
			c-1.523-1.882-3.817-2.97-6.237-2.97H47.7c-0.433,0-0.778,0.344-0.778,0.778v9.3C46.922,75.846,47.268,76.198,47.7,76.198z
			 M32.444,76.198h12.056c0.405,0,0.735-0.33,0.735-0.737v-9.381c0-0.406-0.33-0.737-0.735-0.737H32.444
			c-0.406,0-0.737,0.331-0.737,0.737v9.381C31.706,75.867,32.037,76.198,32.444,76.198z M29.614,76.198
			c0.224,0,0.407-0.182,0.407-0.405c0-1.125,0-4.381,0-6.965c0-1.341,0-2.497,0-3.086c0-0.219-0.184-0.399-0.407-0.399h-1.855
			c-7.586,0-14.626,3.891-18.673,10.241c-0.17,0.263,0.035,0.614,0.344,0.614H29.614z M54.961,63.777
			c2.891,0,5.628,1.306,7.448,3.546l8.702,10.723H5.877l1.169-2.099c4.183-7.513,12.109-12.17,20.712-12.17H54.961z"/>
		<path fill="#E9E5D9" d="M101.818,94.67v2.748c0,0.128,0.099,0.225,0.222,0.225h9.68c0.054-0.197,0.082-0.407,0.082-0.617v-2.578
			h-9.762C101.916,94.448,101.818,94.546,101.818,94.67z"/>
		<path fill="#E9E5D9" d="M104.734,83.941V86.9c0,0.831,0.625,1.537,1.448,1.636l5.599,0.719c-0.197-2.414-2.002-4.426-4.42-4.852
			L104.734,83.941z"/>
		<path fill="#FC6460" d="M46.922,81.898h5.861v-1.996h-5.861V81.898z M104.734,83.941V86.9c0,0.831,0.625,1.537,1.448,1.636
			l5.599,0.719c0.015,0.142,0.021,0.292,0.021,0.439v4.754h-9.762c-0.123,0-0.222,0.099-0.222,0.223v2.748
			c0,0.128,0.099,0.225,0.222,0.225h9.68c-0.271,1.041-1.216,1.813-2.349,1.813H9.674c-5.07,0-8.808-3.926-9.213-8.428H3.79
			c0.787,0,1.428-0.642,1.428-1.426v-2.457c0-0.786-0.642-1.431-1.428-1.431H1.605l4.272-7.668h65.235L104.734,83.941z"/>
		<g>
			<path fill="#3B4D57" d="M87.335,88.355c6.128,0,11.098,4.969,11.098,11.099H76.237C76.237,93.323,81.204,88.355,87.335,88.355z"
				/>
		</g>
		<g>
			<path fill="#3B4D57" d="M26.337,88.355c6.13,0,11.099,4.969,11.099,11.099H15.238C15.238,93.323,20.207,88.355,26.337,88.355z"/>
		</g>
		<circle fill="#606E72" cx="87.334" cy="99.453" r="9.225"/>
		<circle fill="#E9E5D9" cx="87.334" cy="99.453" r="5.009"/>
		<circle fill="#606E72" cx="26.337" cy="99.453" r="9.223"/>
		<circle fill="#E9E5D9" cx="26.337" cy="99.453" r="5.008"/>
		<g>
			<path fill="#F9F8F7" d="M61.972,76.198h-0.67l-5.036-10.739c0.25,0.044,0.498,0.094,0.743,0.157L61.972,76.198z"/>
			<polygon fill="#F9F8F7" points="52.91,65.342 54.249,65.342 59.342,76.198 58.003,76.198 			"/>
			<polygon fill="#F9F8F7" points="48.606,65.342 50.615,65.342 55.709,76.198 53.7,76.198 			"/>
			<polygon fill="#F9F8F7" points="51.335,65.342 52.005,65.342 57.098,76.198 56.427,76.198 			"/>
		</g>
		<g>
			<polygon fill="#F9F8F7" points="37.168,65.342 38.508,65.342 43.599,76.198 42.261,76.198 			"/>
			<polygon fill="#F9F8F7" points="32.865,65.342 34.874,65.342 39.965,76.198 37.957,76.198 			"/>
			<polygon fill="#F9F8F7" points="35.593,65.342 36.263,65.342 41.355,76.198 40.685,76.198 			"/>
		</g>
		<g>
			<path fill="#F9F8F7" d="M25.703,65.447l4.317,9.203c0,0.478,0,0.872,0,1.143c0,0.224-0.184,0.405-0.407,0.405h-0.208
				l-4.97-10.597C24.857,65.538,25.279,65.488,25.703,65.447z"/>
			<path fill="#F9F8F7" d="M22.339,66.019l4.775,10.179h-2.009l-4.527-9.649C21.155,66.348,21.743,66.17,22.339,66.019z"/>
			<path fill="#F9F8F7" d="M23.593,65.739L28.5,76.198h-0.668l-4.843-10.325C23.19,65.828,23.39,65.777,23.593,65.739z"/>
		</g>
	</g>
</g>
</svg>
