<?xml version="1.0" encoding="utf-8"?>
<!-- Generator: Adobe Illustrator 16.0.0, SVG Export Plug-In . SVG Version: 6.00 Build 0)  -->
<!DOCTYPE svg PUBLIC "-//W3C//DTD SVG 1.1//EN" "http://www.w3.org/Graphics/SVG/1.1/DTD/svg11.dtd">
<svg version="1.1" id="Layer_1" xmlns="http://www.w3.org/2000/svg" xmlns:xlink="http://www.w3.org/1999/xlink" x="0px" y="0px"
	 width="75.76px" height="128.268px" viewBox="0 0 75.76 128.268" enable-background="new 0 0 75.76 128.268" xml:space="preserve">
<ellipse opacity="0.2" fill="#414042" cx="38.356" cy="93.38" rx="23.896" ry="8.754"/>
<g opacity="0.3">
	<path fill="#414042" d="M26.454,85.052c0,0-5.639-7.177-9.994-3.845c-4.357,3.332,4.869,10.508,4.869,10.508
		s-4.1,1.538-3.332,3.075c0.77,1.538,9.039-0.48,9.039-0.48L26.454,85.052z"/>
	<path fill="#414042" d="M51.058,85.052c0,0,5.641-7.177,9.996-3.845s-4.869,10.508-4.869,10.508s4.102,1.538,3.332,3.075
		c-0.77,1.538-9.037-0.48-9.037-0.48L51.058,85.052z"/>
	<path fill="#414042" d="M29.851,92.386c0,0,10.221,6.36,17.652-0.304L43.624,80.5H32.478L29.851,92.386z"/>
	<path fill="#414042" d="M50.216,94.309c4.787-9.793,0.875-16.422-0.412-18.198c-0.229-0.314-0.406-0.479-0.406-0.479L38.57,76.977
		l-10.764-1.345c0,0-0.146,0.163-0.375,0.479c-1.285,1.776-5.184,8.405-0.395,18.198c0,0-3.844,0.24-3.332,1.778
		c0.514,1.538,6.152,1.529,7.434,0.762c1.281-0.77-2.178-14.874,7.432-14.874c9.611,0,6.213,14.104,7.494,14.874
		c1.281,0.769,6.98,0.776,7.492-0.762C54.07,94.549,50.216,94.309,50.216,94.309z"/>
	<ellipse fill="#414042" cx="38.63" cy="62.881" rx="24.092" ry="16.261"/>
	<path fill="#414042" d="M39.177,76.927c-7.311,0-14.48-1.854-20.836-5.276c4.281,4.506,11.768,7.492,20.289,7.492
		c7.77,0,14.678-2.483,19.082-6.339C51.948,75.488,45.618,76.927,39.177,76.927z"/>
	<g>
		<circle fill="#414042" cx="54.642" cy="48.714" r="8.073"/>
		<circle fill="#414042" cx="54.642" cy="48.714" r="5.51"/>
	</g>
	<g>
		<circle fill="#414042" cx="22.087" cy="48.714" r="8.074"/>
		<circle fill="#414042" cx="22.087" cy="48.714" r="5.51"/>
		<path fill="#414042" d="M22.679,51.908c-1.766,0.325-3.461-0.84-3.785-2.604c-0.33-1.766,0.834-3.461,2.598-3.785
			c0.217-0.04,0.434-0.054,0.641-0.054c-0.031,0.116-0.045,0.239-0.045,0.37c0,0.824,0.67,1.487,1.494,1.487
			c0.455,0,0.855-0.2,1.133-0.517c0.277,0.378,0.471,0.825,0.563,1.318C25.609,49.89,24.437,51.577,22.679,51.908z"/>
		<path fill="#414042" d="M55.234,51.908c-1.766,0.325-3.461-0.84-3.785-2.604c-0.332-1.766,0.832-3.461,2.6-3.785
			c0.215-0.04,0.432-0.054,0.639-0.054c-0.031,0.116-0.045,0.239-0.045,0.37c0,0.824,0.67,1.487,1.494,1.487
			c0.455,0,0.855-0.2,1.133-0.517c0.279,0.378,0.471,0.825,0.563,1.318C58.163,49.89,56.991,51.577,55.234,51.908z"/>
	</g>
	<circle fill="#414042" cx="55.56" cy="60.739" r="3.848"/>
	<circle fill="#414042" cx="22.425" cy="60.739" r="3.848"/>
</g>
<g>
	<g>
		<path fill="#4A662C" d="M26.32,83.183c0,0-5.639-7.177-9.995-3.845s4.87,10.508,4.87,10.508s-4.101,1.538-3.332,3.075
			c0.769,1.538,9.038-0.48,9.038-0.48L26.32,83.183z"/>
		<path fill="#4A662C" d="M50.923,83.183c0,0,5.64-7.177,9.996-3.845c4.355,3.332-4.869,10.508-4.869,10.508
			s4.101,1.538,3.331,3.075c-0.77,1.538-9.037-0.48-9.037-0.48L50.923,83.183z"/>
		<path fill="#CEDD9D" d="M29.715,90.517c0,0,10.221,6.36,17.652-0.304L43.49,78.631H32.342L29.715,90.517z"/>
		<path fill="#62883B" d="M50.08,92.44c4.788-9.793,0.875-16.422-0.411-18.198c-0.229-0.314-0.407-0.479-0.407-0.479l-10.828,1.345
			L27.67,73.763c0,0-0.146,0.163-0.374,0.479c-1.285,1.776-5.184,8.405-0.396,18.198c0,0-3.844,0.24-3.332,1.778
			c0.514,1.538,6.152,1.529,7.434,0.762c1.282-0.77-2.178-14.874,7.433-14.874c9.611,0,6.212,14.104,7.494,14.874
			c1.281,0.769,6.979,0.776,7.492-0.762S50.08,92.44,50.08,92.44z"/>
		<ellipse fill="#62883B" cx="38.494" cy="61.012" rx="24.092" ry="16.261"/>
		<path fill="#454C53" d="M39.042,75.058c-7.311,0-14.48-1.854-20.836-5.276c4.281,4.506,11.767,7.492,20.289,7.492
			c7.769,0,14.678-2.483,19.081-6.339C51.813,73.618,45.483,75.058,39.042,75.058z"/>
		<g>
			<circle fill="#62883B" cx="54.506" cy="46.845" r="8.073"/>
			<circle fill="#FFFFFF" cx="54.506" cy="46.845" r="5.51"/>
		</g>
		<g>
			<circle fill="#62883B" cx="21.952" cy="46.845" r="8.074"/>
			<circle fill="#FFFFFF" cx="21.952" cy="46.845" r="5.51"/>
			<path fill="#454C53" d="M22.544,50.039c-1.766,0.325-3.461-0.84-3.785-2.604c-0.331-1.766,0.833-3.461,2.598-3.785
				c0.216-0.04,0.433-0.054,0.641-0.054c-0.031,0.116-0.046,0.239-0.046,0.37c0,0.824,0.67,1.487,1.494,1.487
				c0.455,0,0.856-0.2,1.134-0.517c0.277,0.378,0.471,0.825,0.563,1.318C25.473,48.021,24.302,49.708,22.544,50.039z"/>
			<path fill="#454C53" d="M55.098,50.039c-1.766,0.325-3.461-0.84-3.784-2.604c-0.332-1.766,0.832-3.461,2.599-3.785
				c0.216-0.04,0.433-0.054,0.64-0.054c-0.031,0.116-0.046,0.239-0.046,0.37c0,0.824,0.67,1.487,1.495,1.487
				c0.455,0,0.854-0.2,1.133-0.517c0.278,0.378,0.47,0.825,0.563,1.318C58.028,48.021,56.856,49.708,55.098,50.039z"/>
		</g>
		<circle fill="#84A93F" cx="55.424" cy="58.87" r="3.848"/>
		<circle fill="#84A93F" cx="22.29" cy="58.87" r="3.848"/>
		<path fill="none" stroke="#7F952D" stroke-width="2" stroke-linecap="round" stroke-miterlimit="10" d="M55.656,59.347
			c0,5.44-7.683,9.854-17.161,9.854c-9.479,0-17.162-4.413-17.162-9.854"/>
	</g>
</g>
</svg>
