<?xml version="1.0" encoding="utf-8"?>
<!-- Generator: Adobe Illustrator 16.0.0, SVG Export Plug-In . SVG Version: 6.00 Build 0)  -->
<!DOCTYPE svg PUBLIC "-//W3C//DTD SVG 1.1//EN" "http://www.w3.org/Graphics/SVG/1.1/DTD/svg11.dtd">
<svg version="1.1" id="Layer_1" xmlns="http://www.w3.org/2000/svg" xmlns:xlink="http://www.w3.org/1999/xlink" x="0px" y="0px"
	 width="75.76px" height="128.268px" viewBox="0 0 75.76 128.268" enable-background="new 0 0 75.76 128.268" xml:space="preserve">
<ellipse opacity="0.2" fill="#414042" cx="38.356" cy="93.38" rx="23.896" ry="8.754"/>
<g opacity="0.3">
	<path fill="#414042" d="M26.454,85.052c0,0-5.639-7.177-9.994-3.845c-4.357,3.332,4.869,10.508,4.869,10.508
		s-4.1,1.538-3.332,3.075c0.77,1.538,9.039-0.48,9.039-0.48L26.454,85.052z"/>
	<path fill="#414042" d="M51.058,85.052c0,0,5.641-7.177,9.996-3.845s-4.869,10.508-4.869,10.508s4.102,1.538,3.332,3.075
		c-0.77,1.538-9.037-0.48-9.037-0.48L51.058,85.052z"/>
	<path fill="#414042" d="M29.851,92.386c0,0,10.221,6.36,17.652-0.304L43.624,80.5H32.478L29.851,92.386z"/>
	<path fill="#414042" d="M50.216,94.309c4.787-9.793,0.875-16.422-0.412-18.198c-0.229-0.314-0.406-0.479-0.406-0.479L38.57,76.977
		l-10.764-1.345c0,0-0.146,0.163-0.375,0.479c-1.285,1.776-5.184,8.405-0.395,18.198c0,0-3.844,0.24-3.332,1.778
		c0.514,1.538,6.152,1.529,7.434,0.762c1.281-0.77-2.178-14.874,7.432-14.874c9.611,0,6.213,14.104,7.494,14.874
		c1.281,0.769,6.98,0.776,7.492-0.762C54.07,94.549,50.216,94.309,50.216,94.309z"/>
	<ellipse fill="#414042" cx="38.63" cy="62.881" rx="24.092" ry="16.261"/>
	<path fill="#414042" d="M39.177,76.927c-7.311,0-14.48-1.854-20.836-5.276c4.281,4.506,11.768,7.492,20.289,7.492
		c7.77,0,14.678-2.483,19.082-6.339C51.948,75.488,45.618,76.927,39.177,76.927z"/>
	<g>
		<circle fill="#414042" cx="54.642" cy="48.714" r="8.073"/>
		<circle fill="#414042" cx="54.642" cy="48.714" r="5.51"/>
	</g>
	<g>
		<circle fill="#414042" cx="22.087" cy="48.714" r="8.074"/>
		<circle fill="#414042" cx="22.087" cy="48.714" r="5.51"/>
		<path fill="#414042" d="M22.679,51.908c-1.766,0.325-3.461-0.84-3.785-2.604c-0.33-1.766,0.834-3.461,2.598-3.785
			c0.217-0.04,0.434-0.054,0.641-0.054c-0.031,0.116-0.045,0.239-0.045,0.37c0,0.824,0.67,1.487,1.494,1.487
			c0.455,0,0.855-0.2,1.133-0.517c0.277,0.378,0.471,0.825,0.563,1.318C25.609,49.89,24.437,51.577,22.679,51.908z"/>
		<path fill="#414042" d="M55.234,51.908c-1.766,0.325-3.461-0.84-3.785-2.604c-0.332-1.766,0.832-3.461,2.6-3.785
			c0.215-0.04,0.432-0.054,0.639-0.054c-0.031,0.116-0.045,0.239-0.045,0.37c0,0.824,0.67,1.487,1.494,1.487
			c0.455,0,0.855-0.2,1.133-0.517c0.279,0.378,0.471,0.825,0.563,1.318C58.163,49.89,56.991,51.577,55.234,51.908z"/>
	</g>
	<circle fill="#414042" cx="55.56" cy="60.739" r="3.848"/>
	<circle fill="#414042" cx="22.425" cy="60.739" r="3.848"/>
</g>
<g>
	<path fill="#211E36" d="M27.247,93.495c0,0-8.303,2.021-9.076,0.48c-0.774-1.55,3.345-3.091,3.345-3.091s-0.379-0.293-0.952-0.789
		c0.256-0.085,0.48-0.225,0.682-0.419c0.85-0.813,0.773-2.276-0.171-3.253c-0.945-0.983-2.401-1.122-3.253-0.302
		c-0.201,0.194-0.348,0.418-0.449,0.673c-1.742-2.207-2.92-4.809-0.75-6.465c4.383-3.354,10.044,3.855,10.044,3.855L27.247,93.495z"
		/>
	<path fill="#211E36" d="M59.881,93.976c-0.225,0.456-1.113,0.595-2.253,0.572c0.194-0.634-0.628-1.541-1.881-2.06
		c-1.293-0.542-2.558-0.466-2.828,0.17c-0.171,0.404,0.117,0.944,0.697,1.425c-1.563-0.286-2.813-0.588-2.813-0.588l0.581-9.31
		c0,0,0.892-1.131,2.238-2.292c0,0.07,0.023,0.133,0.048,0.186c0.349,0.844,2.03,0.953,3.763,0.241
		c1.674-0.689,2.78-1.89,2.533-2.727c0.495,0.131,0.992,0.372,1.463,0.736c2.525,1.936,0.505,5.158-1.657,7.535
		c0.219-0.97,0.062-1.79-0.432-1.998c-0.629-0.265-1.581,0.572-2.123,1.865c-0.466,1.107-0.474,2.191-0.069,2.649
		c-0.38,0.317-0.612,0.503-0.612,0.503S60.656,92.426,59.881,93.976z"/>
	<path fill="#D2CE21" d="M30.08,92.067c0,0,10.268,6.645,17.734-0.051L43.92,80.634h-11.2L30.08,92.067z"/>
	<path fill="#423C6C" d="M53.897,95.277c-0.381,1.13-3.533,1.433-5.7,1.208c0.116-0.193,0.187-0.411,0.187-0.643
		c0-0.814-0.83-1.472-1.86-1.472c-0.172,0-0.34,0.016-0.496,0.062c-0.132-3.887,0.697-13.335-7.186-13.335
		c-4.306,0-6.002,2.811-6.668,6.001c-0.31-0.193-0.682-0.31-1.084-0.31c-1.07,0-1.943,0.813-1.943,1.828
		c0,1.006,0.873,1.827,1.943,1.827c0.246,0,0.479-0.047,0.696-0.124c-0.153,2.882,0.108,5.406-0.411,5.723
		c-1.292,0.775-6.955,0.783-7.475-0.766c-0.51-1.542,3.348-1.781,3.348-1.781c-4.81-9.844-0.892-16.504,0.401-18.292
		c0.226-0.311,0.372-0.48,0.372-0.48l10.82,1.354l10.872-1.354c0,0,0.187,0.17,0.411,0.48c1.293,1.788,5.228,8.448,0.418,18.292
		C50.542,93.495,54.406,93.735,53.897,95.277z"/>
	<path fill="#423C6C" d="M63.104,61.913c0,9.023-10.835,16.342-24.201,16.342c-13.375,0-24.21-7.319-24.21-16.342
		c0-7.845,8.202-14.404,19.137-15.969c-0.83,1.549-0.767,3.284,0.271,4.322c1.372,1.372,3.927,1.046,5.701-0.728
		c1.146-1.146,1.688-2.61,1.563-3.872C53.572,46.494,63.104,53.448,63.104,61.913z"/>
	<path fill="#454C53" d="M39.45,76.028c-7.346,0-14.55-1.864-20.936-5.303c4.303,4.526,11.823,7.528,20.385,7.528
		c7.806,0,14.746-2.496,19.17-6.369C52.281,74.579,45.921,76.028,39.45,76.028z"/>
	<g>
		<circle fill="#423C6C" cx="54.986" cy="47.682" r="8.111"/>
		<circle fill="#FFFFFF" cx="54.986" cy="47.681" r="5.536"/>
	</g>
	<g>
		<path fill="#423C6C" d="M30.255,46.207c0.814,4.405-2.095,8.636-6.501,9.45c-4.407,0.814-8.636-2.096-9.452-6.501
			c-0.813-4.405,2.098-8.636,6.504-9.451C25.208,38.891,29.442,41.802,30.255,46.207z"/>
		<circle fill="#FFFFFF" cx="22.279" cy="47.681" r="5.536"/>
		<path fill="#211E36" d="M22.874,50.891c-1.774,0.326-3.478-0.844-3.804-2.617c-0.333-1.774,0.838-3.477,2.61-3.802
			c0.217-0.04,0.435-0.054,0.643-0.054c-0.031,0.116-0.046,0.24-0.046,0.372c0,0.829,0.673,1.495,1.502,1.495
			c0.456,0,0.86-0.202,1.14-0.519c0.277,0.379,0.471,0.829,0.564,1.324C25.818,48.863,24.64,50.558,22.874,50.891z"/>
		<path fill="#211E36" d="M55.581,50.891c-1.774,0.326-3.478-0.844-3.802-2.617c-0.332-1.774,0.836-3.477,2.608-3.802
			c0.219-0.04,0.434-0.054,0.643-0.054c-0.029,0.116-0.045,0.24-0.045,0.372c0,0.829,0.674,1.495,1.502,1.495
			c0.457,0,0.861-0.202,1.138-0.519c0.28,0.379,0.474,0.829,0.565,1.324C58.524,48.863,57.349,50.558,55.581,50.891z"/>
	</g>
	<path fill="#D2CE21" d="M39.801,49.537c-1.774,1.774-4.329,2.1-5.701,0.728c-1.037-1.038-1.101-2.773-0.271-4.322
		c1.636-0.24,3.33-0.364,5.073-0.364c0.828,0,1.647,0.032,2.462,0.085C41.489,46.927,40.947,48.391,39.801,49.537z"/>
	
		<ellipse transform="matrix(0.7071 -0.7071 0.7071 0.7071 -26.4817 48.4714)" fill="#D2CE21" cx="45.264" cy="56.199" rx="2.904" ry="3.401"/>
	<path fill="none" stroke="#211E36" stroke-width="2" stroke-linecap="round" stroke-miterlimit="10" d="M56.141,60.242
		c0,5.466-7.718,9.9-17.241,9.9s-17.242-4.434-17.242-9.9"/>
	
		<ellipse transform="matrix(0.707 -0.7072 0.7072 0.707 -41.66 32.9083)" fill="#D2CE21" cx="18.886" cy="66.732" rx="2.456" ry="3.865"/>
	<ellipse fill="#D2CE21" cx="60.676" cy="62.086" rx="2.428" ry="3.866"/>
	
		<ellipse transform="matrix(0.848 0.53 -0.53 0.848 34.8629 -6.7208)" fill="#D2CE21" cx="29.147" cy="57.413" rx="2.649" ry="3.065"/>
	<path fill="#D2CE21" d="M29.146,81.448c0,2.133-0.895,3.865-2.002,3.865c-1.106,0-2.002-1.732-2.002-3.865
		c0-2.138,0.896-3.866,2.002-3.866C28.251,77.581,29.146,79.31,29.146,81.448z"/>
	<ellipse fill="#D2CE21" cx="49.866" cy="83.77" rx="2.994" ry="3.865"/>
	<path fill="#D2CE21" d="M32.173,87.098c-0.227,1.062-0.334,2.169-0.388,3.222c-0.218,0.077-0.45,0.124-0.696,0.124
		c-1.07,0-1.943-0.821-1.943-1.827c0-1.015,0.873-1.828,1.943-1.828C31.491,86.788,31.864,86.905,32.173,87.098z"/>
	<path fill="#D2CE21" d="M48.383,95.842c0,0.231-0.07,0.449-0.187,0.643c-0.808-0.078-1.479-0.233-1.827-0.442
		c-0.233-0.138-0.311-0.735-0.343-1.61c0.156-0.046,0.324-0.062,0.496-0.062C47.553,94.37,48.383,95.028,48.383,95.842z"/>
	
		<ellipse transform="matrix(0.385 -0.9229 0.9229 0.385 -61.946 69.5252)" fill="#9E9B19" cx="21.193" cy="81.242" rx="1.242" ry="2.54"/>
	<path fill="#9E9B19" d="M21.245,89.677c-0.201,0.194-0.426,0.334-0.682,0.419c-0.853-0.753-2.122-1.951-3.191-3.301
		c0.102-0.255,0.248-0.479,0.449-0.673c0.852-0.82,2.308-0.682,3.253,0.302C22.019,87.401,22.095,88.864,21.245,89.677z"/>
	<path fill="#9E9B19" d="M57.434,82.321c-1.732,0.712-3.414,0.603-3.763-0.241c-0.024-0.053-0.048-0.115-0.048-0.186
		c1.69-1.448,4.082-2.936,6.344-2.3C60.214,80.431,59.108,81.631,57.434,82.321z"/>
	<path fill="#9E9B19" d="M59.773,87.865c-0.991,1.084-1.997,1.989-2.624,2.517c-0.404-0.458-0.396-1.542,0.069-2.649
		c0.542-1.293,1.494-2.13,2.123-1.865C59.834,86.075,59.991,86.896,59.773,87.865z"/>
	<path fill="#9E9B19" d="M57.628,94.548c-1.214-0.022-2.726-0.239-4.012-0.465c-0.58-0.48-0.868-1.021-0.697-1.425
		c0.271-0.636,1.535-0.712,2.828-0.17C57,93.007,57.823,93.914,57.628,94.548z"/>
</g>
</svg>
