<?xml version="1.0" encoding="utf-8"?>
<!-- Generator: Adobe Illustrator 16.0.0, SVG Export Plug-In . SVG Version: 6.00 Build 0)  -->
<!DOCTYPE svg PUBLIC "-//W3C//DTD SVG 1.1//EN" "http://www.w3.org/Graphics/SVG/1.1/DTD/svg11.dtd">
<svg version="1.1" id="Layer_1" xmlns="http://www.w3.org/2000/svg" xmlns:xlink="http://www.w3.org/1999/xlink" x="0px" y="0px"
	 width="32px" height="32px" viewBox="39.833 48.134 32 32" enable-background="new 39.833 48.134 32 32" xml:space="preserve">
<g>
	<g>
		<ellipse fill="#62883B" cx="55.997" cy="67.013" rx="14.933" ry="10.078"/>
		<path fill="#454C53" d="M56.335,75.719c-4.531,0-8.976-1.148-12.915-3.27c2.654,2.792,7.294,4.643,12.576,4.643
			c4.815,0,9.098-1.538,11.827-3.929C64.251,74.826,60.329,75.719,56.335,75.719z"/>
		<g>
			<circle fill="#62883B" cx="65.92" cy="58.232" r="5.004"/>
			<circle fill="#FFFFFF" cx="65.92" cy="58.232" r="3.415"/>
		</g>
		<g>
			<circle fill="#62883B" cx="45.743" cy="58.232" r="5.005"/>
			<circle fill="#FFFFFF" cx="45.743" cy="58.232" r="3.415"/>
			<path fill="#454C53" d="M46.109,60.212c-1.094,0.201-2.145-0.521-2.346-1.614c-0.204-1.095,0.517-2.146,1.61-2.347
				c0.134-0.024,0.269-0.033,0.398-0.033c-0.02,0.072-0.029,0.148-0.029,0.229c0,0.511,0.415,0.922,0.926,0.922
				c0.282,0,0.53-0.124,0.704-0.321c0.17,0.234,0.292,0.511,0.349,0.817C47.925,58.961,47.199,60.007,46.109,60.212z"/>
			<path fill="#454C53" d="M66.288,60.212c-1.095,0.201-2.145-0.521-2.346-1.614c-0.206-1.095,0.516-2.146,1.61-2.347
				c0.135-0.024,0.27-0.033,0.397-0.033c-0.019,0.072-0.029,0.148-0.029,0.229c0,0.511,0.416,0.922,0.928,0.922
				c0.282,0,0.528-0.124,0.702-0.321c0.172,0.234,0.291,0.511,0.349,0.817C68.103,58.961,67.376,60.007,66.288,60.212z"/>
		</g>
		<circle fill="#84A93F" cx="66.49" cy="65.685" r="2.385"/>
		<circle fill="#84A93F" cx="45.952" cy="65.685" r="2.385"/>
		<path fill="none" stroke="#31441E" stroke-miterlimit="10" d="M66.632,65.982c0,3.371-4.761,6.107-10.636,6.107
			s-10.638-2.735-10.638-6.107"/>
	</g>
</g>
</svg>
