<?xml version="1.0" encoding="utf-8"?>
<!-- Generator: Adobe Illustrator 16.0.0, SVG Export Plug-In . SVG Version: 6.00 Build 0)  -->
<!DOCTYPE svg PUBLIC "-//W3C//DTD SVG 1.1//EN" "http://www.w3.org/Graphics/SVG/1.1/DTD/svg11.dtd">
<svg version="1.1" id="Layer_1" xmlns="http://www.w3.org/2000/svg" xmlns:xlink="http://www.w3.org/1999/xlink" x="0px" y="0px"
	 width="386.52px" height="75px" viewBox="-182.833 -23.536 386.52 75" enable-background="new -182.833 -23.536 386.52 75"
	 xml:space="preserve">
<g>
	<path fill="#454C53" d="M-156.69-10.03V3.639h21.685v7.76h-21.685v20.504h-8.255v-49.764h32.599l-0.07,7.831H-156.69z"/>
	<path fill="#454C53" d="M-83.661-1.7c0,8.211-3.522,13.384-10.563,15.52l12.801,18.083h-10.493l-11.682-16.731h-10.843v16.731
		h-8.255v-49.764h18.188c7.46,0,12.801,1.281,16.019,3.844C-85.27-11.454-83.661-7.348-83.661-1.7z M-94.644,5.348
		c1.679-1.471,2.518-3.832,2.518-7.083c0-3.251-0.863-5.482-2.587-6.692c-1.726-1.21-4.804-1.816-9.234-1.816h-10.493V7.555h10.283
		C-99.494,7.555-96.322,6.819-94.644,5.348z"/>
	<path fill="#454C53" d="M20.848,7.697h8.254v17.015c-4.617,5.174-11.216,7.76-19.796,7.76c-7.229,0-13.28-2.42-18.153-7.261
		c-4.873-4.842-7.31-10.964-7.31-18.368c0-7.404,2.483-13.573,7.45-18.51c4.966-4.936,10.971-7.404,18.013-7.404
		c7.041,0,12.893,2.088,17.557,6.264l-4.406,6.408c-1.912-1.661-3.837-2.813-5.771-3.453c-1.937-0.641-4.187-0.96-6.751-0.96
		c-4.943,0-9.094,1.626-12.451,4.876C-5.875-2.685-7.553,1.587-7.553,6.878c0,5.293,1.632,9.54,4.896,12.744
		c3.265,3.203,7.216,4.805,11.857,4.805c4.64,0,8.522-1.02,11.647-3.062V7.697z"/>
	<path fill="#454C53" d="M73.801,7.697h8.255v17.015c-4.617,5.174-11.217,7.76-19.797,7.76c-7.229,0-13.28-2.42-18.153-7.261
		c-4.873-4.842-7.309-10.964-7.309-18.368c0-7.404,2.482-13.573,7.448-18.51c4.967-4.936,10.971-7.404,18.014-7.404
		c7.04,0,12.893,2.088,17.558,6.264L75.41-6.399c-1.913-1.661-3.838-2.813-5.771-3.453c-1.936-0.641-4.187-0.96-6.751-0.96
		c-4.943,0-9.093,1.626-12.451,4.876c-3.356,3.252-5.037,7.523-5.037,12.815c0,5.293,1.633,9.54,4.896,12.744
		c3.266,3.203,7.217,4.805,11.857,4.805c4.64,0,8.522-1.02,11.647-3.062V7.697z"/>
	<path fill="#454C53" d="M127.244-17.861v7.902H101.15v13.17h23.435v7.475H101.15V24h26.932v7.903H92.896v-49.764H127.244z"/>
	<path fill="#454C53" d="M177.68-1.7c0,8.211-3.522,13.384-10.564,15.52l12.802,18.083h-10.491l-11.684-16.731H146.9v16.731h-8.255
		v-49.764h18.188c7.461,0,12.801,1.281,16.02,3.844C176.07-11.454,177.68-7.348,177.68-1.7z M166.697,5.348
		c1.679-1.471,2.517-3.832,2.517-7.083c0-3.251-0.862-5.482-2.588-6.692c-1.726-1.21-4.803-1.816-9.233-1.816H146.9V7.555h10.283
		C161.847,7.555,165.018,6.819,166.697,5.348z"/>
</g>
<g>
	<g>
		<ellipse fill="#62883B" cx="-48.375" cy="10.758" rx="30.699" ry="20.719"/>
		<path fill="#454C53" d="M-47.678,28.655c-9.315,0-18.451-2.361-26.549-6.722c5.455,5.741,14.994,9.545,25.852,9.545
			c9.9,0,18.701-3.163,24.314-8.077C-31.405,26.821-39.471,28.655-47.678,28.655z"/>
		<g>
			<circle fill="#62883B" cx="-27.973" cy="-7.293" r="10.287"/>
			<circle fill="#FFFFFF" cx="-27.973" cy="-7.294" r="7.021"/>
		</g>
		<g>
			<circle fill="#62883B" cx="-69.455" cy="-7.293" r="10.288"/>
			<circle fill="#FFFFFF" cx="-69.455" cy="-7.294" r="7.021"/>
			<path fill="#454C53" d="M-68.7-3.224c-2.25,0.415-4.41-1.07-4.823-3.318c-0.422-2.25,1.062-4.41,3.309-4.823
				c0.277-0.051,0.553-0.068,0.819-0.068c-0.04,0.148-0.06,0.305-0.06,0.472c0,1.05,0.853,1.895,1.905,1.895
				c0.58,0,1.089-0.254,1.446-0.659c0.351,0.481,0.599,1.052,0.716,1.68C-64.967-5.795-66.46-3.646-68.7-3.224z"/>
			<path fill="#454C53" d="M-27.219-3.224c-2.25,0.415-4.41-1.07-4.823-3.318c-0.423-2.25,1.06-4.41,3.312-4.823
				c0.277-0.051,0.553-0.068,0.816-0.068c-0.039,0.148-0.059,0.305-0.059,0.472c0,1.05,0.854,1.895,1.906,1.895
				c0.581,0,1.088-0.254,1.443-0.659c0.354,0.481,0.597,1.052,0.717,1.68C-23.486-5.795-24.979-3.646-27.219-3.224z"/>
		</g>
		<circle fill="#84A93F" cx="-26.803" cy="8.029" r="4.903"/>
		<circle fill="#84A93F" cx="-69.024" cy="8.029" r="4.903"/>
		<path fill="none" stroke="#31441E" stroke-miterlimit="10" d="M-26.51,8.637c0,6.932-9.789,12.557-21.866,12.557
			S-70.243,15.57-70.243,8.637"/>
	</g>
</g>
<g>
	<g>
		<path fill="#62883B" d="M118.433,45.619c-0.171-0.035-0.361,0.046-0.513,0.158c-0.055,0.059-0.1,0.094-0.032,0.142
			c0.132,0.088,0.296,0.064,0.5-0.048c0.254-0.082,0.53-0.164,0.604-0.347l-0.108,0.013
			C118.748,45.631,118.613,45.715,118.433,45.619z"/>
		<path fill="#62883B" d="M155.131,22.33c-0.457,0.036-0.807,0.239-1.161,0.39l0.729-0.101
			C154.803,22.537,154.957,22.447,155.131,22.33z"/>
		<path fill="#62883B" d="M137.281,43.101c0.303-0.011,0.59,0.017,0.945,0.058c0.073-0.041,0.299-0.041,0.194-0.181
			c-0.06-0.013-0.109-0.054-0.175-0.065l-1.083,0.148C137.216,43.066,137.216,43.101,137.281,43.101z"/>
		<path fill="#62883B" d="M157.491,21.502c-0.282,0.02-0.49,0.071-0.588,0.247c-0.083,0.142-0.277,0.328-0.071,0.323
			c0.205,0.005,0.579-0.022,0.836-0.271c0.248-0.191,0.577-0.421,0.822-0.163c0.059,0.048,0.188,0,0.317-0.015
			c0.376-0.15,0.773-0.203,1.055-0.438c0.2-0.182,0.472-0.375,0.857-0.265c0.096,0.035,0.296,0.014,0.411-0.128
			c0.19-0.204,0.201-0.235,0.543-0.193c0.455,0.018,1.01-0.076,1.43-0.193c0.083-0.024,0.062-0.059,0.083-0.09l-4.003,0.547
			c-0.024,0.019-0.061,0.023-0.072,0.041C158.666,21.35,158.116,21.491,157.491,21.502z"/>
		<path fill="#62883B" d="M169.714,38.798c-0.104,0.02-0.282,0.1-0.27,0.181c0.011,0.049,0.152,0.054,0.236,0.025
			c0.386-0.106,0.784-0.16,1.151-0.301c0.196-0.075,0.305-0.169,0.353-0.265l-1.021,0.148
			C170.089,38.679,169.995,38.765,169.714,38.798z"/>
		<path fill="#62883B" d="M131.864,43.869c0.231,0.201,0.108,0.301,0.127,0.465c-0.096-0.005-0.201-0.057-0.272-0.019
			c-0.229,0.199-0.408,0.06-0.667-0.022c0,0.305,0.438,0.246,0.769,0.259c0.117,0.021,0.178-0.031,0.259-0.054
			c0.028,0.041,0.035,0.075,0.092,0.123c0.067-0.048,0.08-0.101,0.105-0.146c0.014-0.011,0.021-0.006,0.025-0.006
			c0.007-0.012-0.005-0.017-0.005-0.017c0.076-0.137,0.089-0.3-0.116-0.53c-0.066-0.088-0.153-0.122-0.246-0.15l-0.093,0.011
			C131.852,43.813,131.82,43.829,131.864,43.869z"/>
		<path fill="#62883B" d="M157.635,41.281c-0.07,0.007-0.166,0.023-0.471,0.033c0.188,0.053,0.188,0.103,0.247,0.149l1.113-0.149
			C158.384,41.24,158.148,41.247,157.635,41.281z"/>
		<path fill="#62883B" d="M124.171,45.825c0.021-0.137-0.006-0.26-0.251-0.152c-0.206,0.057-0.536,0.163-0.625,0.346
			c-0.011,0.034-0.035,0.052-0.045,0.082l0.968-0.13C124.229,45.914,124.252,45.86,124.171,45.825z"/>
		<path fill="#62883B" d="M160.839,40.875c0.279-0.387-0.141-0.116-0.315-0.041c-0.169,0.049-0.315,0.164-0.473,0.271l0.729-0.102
			C160.802,40.957,160.815,40.917,160.839,40.875z"/>
		<path fill="#62883B" d="M120.618,26.283c0.231,0.074,0.364,0.246,0.825,0.017c0.011-0.134-0.215-0.028-0.321-0.058
			c-0.133-0.014-0.261-0.014-0.191-0.12c0.036-0.07,0.199-0.094,0.287-0.082c0.377,0.089,0.636-0.105,0.958-0.146
			c-0.018-0.014-0.035,0-0.053,0l-1.827,0.245C120.396,26.189,120.486,26.242,120.618,26.283z"/>
		<path fill="#62883B" d="M185.871,37.447c0.011-0.106-0.201-0.022-0.329-0.006c-0.14,0.012-0.397,0.049-0.345,0.164
			c0.027,0.054,0.156,0.047,0.261,0.054l0.178-0.024C185.755,37.581,185.882,37.529,185.871,37.447z"/>
		<path fill="#62883B" d="M112.206,28.312c0,0,0,0-0.005-0.004c-0.434-0.176-0.856-0.395-1.427-0.11
			c-0.038,0-0.147-0.008-0.194-0.03c-0.593-0.235-0.945-0.008-1.536,0.074c0.71,0.144,1.362,0.236,1.993,0.276
			c-0.035,0.018-0.066,0.036-0.103,0.048l1.489-0.206C112.354,28.336,112.275,28.336,112.206,28.312z"/>
		<path fill="#62883B" d="M161.755,40.142c0.327-0.051,0.657-0.288,0.929-0.552l-0.41,0.058
			C162.094,39.813,161.93,39.977,161.755,40.142z"/>
		<path fill="#62883B" d="M100.794,29.869c0.081-0.152,0.42-0.194,0.594-0.118c0.166,0.046,0.335,0.046,0.506,0.041l0.989-0.141
			c0.02-0.023-0.039-0.1-0.103-0.141c-0.131-0.107-0.406-0.049-0.619-0.041c-1.033,0.034-1.988,0.316-3.016,0.381
			c-0.27-0.018-0.449,0.088-0.472,0.169c-0.004,0.184,0.307,0.061,0.437,0.08c0.311,0.045,0.632-0.149,0.984-0.062l0.546-0.081
			C100.694,29.927,100.761,29.927,100.794,29.869z"/>
		<path fill="#62883B" d="M133.799,24.304l-0.286,0.041c0.094-0.007,0.216,0.005,0.286-0.029
			C133.799,24.31,133.794,24.31,133.799,24.304z"/>
		<path fill="#62883B" d="M130.002,25.979l1.003-0.137c-0.024-0.023-0.055-0.054-0.074-0.071c-0.145-0.135-0.358-0.135-0.638-0.063
			c-0.602,0.141-1.174,0.152-1.715-0.159c-0.294-0.166-0.85-0.219-1.225-0.369l-0.669,0.094c-0.012,0.136,0.093,0.299-0.253,0.328
			c-0.646,0.004-1.279,0.299-1.92,0.135c-0.037-0.028-0.092-0.023-0.214,0c0.155,0.135-0.097,0.387,0.283,0.404
			c0.455-0.005,1.01-0.058,1.44-0.193c0.32-0.145,0.339-0.117,0.573,0.043c0.159,0.097,0.354,0.068,0.437,0.005
			c0.342-0.212,0.656-0.095,0.89,0.029c0.266,0.116,0.589,0.094,0.91,0.111l0.612-0.083
			C129.583,25.895,129.783,25.906,130.002,25.979z"/>
		<path fill="#62883B" d="M158.62,40.652c0.013,0.094,0.114,0.136,0.353,0.136c0.15-0.024,0.304-0.082,0.338-0.171
			c0.015-0.116-0.245-0.088-0.376-0.07C158.797,40.563,158.583,40.558,158.62,40.652z"/>
		<path fill="#62883B" d="M185.755,18.627c-0.213,0.046-0.481,0.064-0.592,0.205c0.121,0.039,0.215,0.075,0.32,0.14
			c0.388-0.053,0.762-0.082,1.091-0.28c0.059-0.054,0.165-0.076,0.259-0.095c-0.036-0.047-0.094-0.081-0.129-0.123
			C186.385,18.516,186.068,18.55,185.755,18.627z"/>
		<path fill="#62883B" d="M178.78,19.28c-0.436-0.186-0.868-0.402-1.437-0.12c-0.032,0-0.15-0.006-0.183-0.028
			c-0.599-0.235-0.954-0.007-1.541,0.076c0.705,0.135,1.36,0.234,1.997,0.275c-0.034,0.02-0.07,0.037-0.115,0.042l1.489-0.201
			C178.92,19.308,178.848,19.308,178.78,19.28z"/>
		<path fill="#62883B" d="M174.058,38.428c-0.113-0.152-0.465-0.164-0.681-0.164c-0.259-0.024-0.246,0.082-0.2,0.211
			c-0.198,0.176,0.051,0.312,0.404,0.363c0.386,0.031,0.784-0.021,1.172-0.035c0.102,0.019,0.234-0.028,0.234-0.071
			c-0.012-0.087-0.2-0.117-0.315-0.104C174.271,38.679,174.177,38.569,174.058,38.428z"/>
		<path fill="#62883B" d="M170.492,39.514c0.103-0.047,0.125-0.146,0.045-0.134c-0.259,0-0.553,0.145-0.856,0.264
			C169.948,39.743,170.22,39.679,170.492,39.514z"/>
		<path fill="#62883B" d="M139.635,24.673c-0.476-0.123-0.94-0.246-1.432-0.351c-0.436-0.072-0.812-0.184-1.192-0.319
			c-0.125-0.035-0.193-0.063-0.29-0.094l-0.891,0.125c0.962,0.216,2.285,0.479,3.434,0.687L139.635,24.673z"/>
		<path fill="#62883B" d="M147.031,23.663c0.588-0.222,2.064-0.943,3.383-1.613l-0.672,0.088c-0.08,0.047-0.149,0.101-0.243,0.145
			C148.651,22.734,147.828,23.193,147.031,23.663z"/>
		<path fill="#62883B" d="M146.279,23.503c0.009-0.052-0.093-0.14-0.176-0.127c-0.201,0.027-0.387,0.075-0.646,0.233
			c-0.175,0.113-0.341,0.224-0.526,0.341l0.798-0.11c0.068-0.042,0.138-0.096,0.225-0.141
			C146.083,23.656,146.279,23.604,146.279,23.503z"/>
		<path fill="#62883B" d="M167.366,20.833c0.083-0.152,0.42-0.193,0.589-0.116c0.173,0.047,0.339,0.047,0.516,0.041l0.996-0.135
			c0-0.034-0.058-0.106-0.117-0.148c-0.127-0.104-0.41-0.045-0.621-0.04c-1.022,0.035-1.985,0.323-3.008,0.376
			c-0.278-0.013-0.442,0.094-0.467,0.176c-0.023,0.182,0.306,0.06,0.433,0.077c0.307,0.041,0.636-0.153,0.987-0.065l0.543-0.071
			C167.262,20.894,167.332,20.894,167.366,20.833z"/>
		<path fill="#62883B" d="M189.381,34.418c0.199,1.469-1.127,2.866-2.973,3.111l-0.772,0.105c-0.034,0.018-0.022,0.035-0.074,0.046
			c-0.043,0.012-0.056-0.016-0.104-0.021l-24.679,3.345c-0.095,0.246-0.118,0.529-0.643,0.688c-0.294,0.075-0.567,0.188-0.895,0.313
			c-0.034-0.008-0.07,0.004-0.108,0.004c-0.221,0.07-0.455,0.1-0.727,0.088c-0.315,0.047-0.467-0.023-0.443-0.188
			c0.021-0.181-0.235-0.153-0.576-0.077c0.093-0.152,0.115-0.264,0.023-0.368l-33.193,4.507c-0.011,0.1-0.118,0.219-0.334,0.307
			c-0.363,0.146-0.769,0.199-1.144,0.293c-0.088,0.024-0.235,0.028-0.24-0.012c-0.014-0.089,0.152-0.171,0.275-0.188
			c0.323-0.042,0.408-0.152,0.475-0.271l-23.147,3.142c-1.843,0.246-3.512-0.735-3.704-2.208L94.4,32.344
			c-0.197-1.453,1.146-2.846,2.983-3.098l22.912-3.106c-0.229-0.123-0.445-0.259-0.841-0.275c-0.204,0.012-0.557,0.077-0.468-0.117
			c0.065-0.064,0.356-0.07,0.582-0.102c1.06-0.087,2.159-0.21,3.149-0.539c0.251,0.048-0.174,0.261,0.298,0.195
			c0.278-0.041,0.604-0.123,0.632,0.076c0.071,0.199-0.41,0.07-0.581,0.164c-0.228,0.094-0.612,0.287-0.815,0.17
			c-0.41-0.17-0.559,0.035-0.879,0.123c0.297,0.019,0.536-0.013,0.75,0.06l4.562-0.622c0.005-0.021,0-0.042,0.005-0.065
			c0.06-0.104,0.303-0.2,0.459-0.094c0.046,0.035,0.146,0.041,0.205,0.065l6.159-0.834c-0.19,0.011-0.378,0.028-0.57,0.058
			c-0.501,0.024-0.951-0.152-1.404-0.136c-0.498,0.031-0.91-0.058-1.375-0.087c-0.293-0.007-0.525-0.071-0.38-0.204
			c0.024-0.266,0.453-0.354,1.091-0.223c0.56,0.115,1.061,0.239,1.688,0.133c0.303-0.046,0.771,0.135,1.154,0.229
			c0.123,0.07,0.142,0.111,0.083,0.188l2.031-0.27c-0.241-0.059-0.525-0.125-0.7-0.166c0.789-0.18,0.942-0.199,1.591,0.041
			l13.021-1.771c0.295-0.142,0.577-0.3,0.836-0.481c0.82-0.599,0.844-0.593,1.761-0.622c-0.414,0.24-1.152,0.622-1.925,1.016
			l8.77-1.187c0.303-0.259,0.94-0.457,1.184-0.764c0.12-0.135,0.387-0.112,0.472-0.034c0.118,0.117-0.048,0.396,0.352,0.316
			c0.625-0.164,1.315-0.053,1.88-0.386c0.022-0.037,0.103-0.048,0.21-0.063c-0.094,0.143,0.014,0.272-0.094,0.383l20.512-2.781
			c1.223-0.166,2.313,0.246,3.006,0.938c0.62-0.081,1.232-0.142,1.844-0.258l-0.047-0.369c-0.045-0.312-0.166-0.6-0.329-0.864
			c-0.119,0.029-0.235,0.061-0.363,0.029c-0.109-0.012-0.271,0.012-0.307,0.07c-0.07,0.112,0.06,0.112,0.197,0.123
			c0.109,0.029,0.329-0.068,0.307,0.063c-0.444,0.226-0.583,0.056-0.808-0.021c-0.448-0.119-0.612-0.399-1.164-0.411
			c-0.212,0.005-0.565,0.076-0.481-0.119c0.071-0.068,0.353-0.073,0.577-0.104c0.503-0.048,0.995-0.1,1.479-0.172
			c-0.576-0.433-1.363-0.669-2.23-0.556l-0.589,0.082c-0.129,0.022-0.244,0.03-0.387,0.07c-0.141,0.059-0.271,0.059-0.342,0.029
			l-1.091,0.146c-0.21,0.071-0.503,0.13-0.704,0.224c-0.293,0.104-0.705,0.093-0.715-0.037l-23.53,3.199
			c0.06,0.059,0.142,0.143,0.188,0.172c0.13,0.136,0.142,0.216-0.046,0.216c-0.198-0.054-0.421-0.08-0.645-0.116
			c-0.07,0.046-0.165,0.088-0.309,0.136c-0.435,0.141-0.81,0.341-1.299,0.445c-0.438,0.105-0.826,0.395-1.318,0.504
			c-0.281,0.048-0.61,0.202-0.846,0.148c-0.094-0.059-0.083-0.112,0.025-0.211c0.351-0.2,0.752-0.493,1.054-0.534
			c0.601-0.054,1.036-0.294,1.494-0.527l-29.466,3.995c0.135,0.094,0.253,0.207,0.52,0.219c0.161,0,0.039,0.115-0.102,0.127
			c-0.25,0.065-0.545,0.111-0.851,0.101c-0.628-0.011-1.264-0.088-1.916,0c-0.825,0.093-1.653,0.159-2.483,0.21l-3.802,0.513
			c-0.129,0.03-0.254,0.036-0.388,0.075c-0.138,0.061-0.265,0.066-0.342,0.024l-1.1,0.151c-0.204,0.078-0.497,0.123-0.695,0.224
			c-0.293,0.106-0.71,0.096-0.716-0.035l-19.661,2.673c-1.024,0.133-1.815,0.733-2.214,1.482c0.275-0.133,0.544-0.281,0.689-0.451
			c0.126-0.141,0.386-0.117,0.468-0.036c0.125,0.119-0.035,0.395,0.355,0.313c0.63-0.17,1.304-0.053,1.882-0.382
			c0.025-0.045,0.087-0.045,0.204-0.058c-0.112,0.17,0.204,0.346-0.166,0.464c-0.429,0.117-0.982,0.205-1.433,0.199
			c-0.344-0.054-0.355-0.021-0.538,0.188c-0.133,0.141-0.325,0.165-0.423,0.13c-0.38-0.113-0.646,0.089-0.851,0.265
			c-0.125,0.099-0.267,0.152-0.418,0.198c-0.011,0.142-0.063,0.27-0.041,0.405l0.053,0.404c0.265-0.052,0.521-0.11,0.78-0.204
			c-0.087,0.134-0.394,0.281-0.749,0.428l2.369,17.478c0.179,1.297,1.568,2.178,3.124,1.967l12.127-1.655
			c0.084-0.136,0.095-0.245-0.315-0.36c0.293-0.006,0.387-0.018,0.458-0.029c0.805-0.053,0.939-0.033,1.062,0.231l10.237-1.387
			c0.022-0.007,0.032-0.028,0.054-0.017c0.017-0.008,0.017,0.005,0.024,0.005l5.044-0.685c0.011-0.014-0.03-0.025-0.015-0.025
			c0.044-0.012,0.107,0.012,0.148,0.012l10.948-1.491c-0.239-0.117-0.466-0.229-0.416-0.336c0.076-0.127,0.471,0.035,0.815,0.142
			c0.106,0.022,0.204,0.064,0.313,0.096l26.547-3.599c-0.234-0.095-0.354-0.283-0.177-0.671c0.07-0.141,0.152-0.259,0.28-0.28
			c0.106-0.06,0.061,0.063,0.024,0.14c-0.259,0.394,0.177,0.347-0.106,0.804l3.302-0.445c0.422-0.083,0.809-0.206,1.255-0.311
			c-0.118,0.1-0.249,0.123-0.377,0.187l2.526-0.339c0.364-0.137,0.729-0.248,1.065-0.412c0.129-0.043,0.225-0.03,0.237,0.022
			c0.011,0.09-0.061,0.177-0.199,0.241l1.102-0.151c-0.303-0.043-0.372-0.166-0.528-0.27c-0.153-0.131-0.021-0.149,0.179-0.177
			c0.102-0.014,0.231-0.088,0.231-0.131c0-0.164,0.216-0.087,0.365-0.104c0.259-0.02,0.232,0.093,0.28,0.146
			c0.12,0.08,0.085,0.257,0.391,0.211c0.316-0.029,0.211-0.177,0.232-0.254c-0.104-0.158-0.012-0.293,0.203-0.316
			c0.328-0.094,0.654,0.064,0.937,0.117c0.341,0.054,0.069,0.141,0.023,0.265c-0.035,0.02-0.023,0.123,0.023,0.175
			c0.012,0.014-0.012,0.008,0,0.025l6.94-0.945c0-0.011-0.024,0.005-0.024-0.019c0.046-0.229,0.399-0.094,0.623-0.141
			c0.104-0.088,0.231-0.146,0.352-0.163c0.116-0.025,0.222-0.037,0.295,0.004c0.093,0.054-0.012,0.09-0.086,0.143
			c-0.012,0.012-0.012,0.012-0.031,0.017l3.698-0.499c1.551-0.206,2.653-1.427,2.479-2.724l-2.162-15.908
			c-0.052-0.014-0.106,0.012-0.144-0.04c-0.057-0.063,0.023-0.079,0.133-0.108l-0.202-1.425c-0.225,0.033-0.468,0.029-0.695,0.158
			c-0.188,0.099-0.477,0.229-0.728,0.027c-0.059-0.068-0.188-0.074-0.327-0.052c0.281,0.322,0.504,0.706,0.565,1.135L189.381,34.418
			z M164.396,19.19c0.472-0.07,0.012-0.159,0.234-0.271c1.045,0.048,2.147-0.128,3.194-0.328c0.222-0.03,0.505-0.099,0.589-0.052
			c0.138,0.156-0.237,0.187-0.424,0.232c-0.532,0.184-0.624,0.484-1.012,0.719c-0.2,0.135-0.293,0.334-0.783,0.241
			c-0.063-0.123,0.184-0.09,0.278-0.144c0.131-0.051,0.258-0.085,0.154-0.17c-0.046-0.058-0.213-0.035-0.294,0.006
			c-0.341,0.176-0.636,0.06-0.951,0.102c0.177-0.154,0.447-0.158,0.75-0.265c-0.339,0-0.537-0.157-0.879,0.118
			c-0.165,0.158-0.6,0.082-0.834,0.053c-0.188-0.036-0.612,0.205-0.612-0.008C163.788,19.225,164.129,19.219,164.396,19.19z
			 M97.83,28.221c0.469-0.065,0.019-0.158,0.235-0.266c1.036,0.048,2.127-0.124,3.186-0.33c0.227-0.027,0.506-0.097,0.58-0.052
			c0.138,0.165-0.22,0.183-0.422,0.241c-0.525,0.168-0.615,0.481-1.004,0.716c-0.199,0.122-0.292,0.327-0.785,0.233
			c-0.054-0.129,0.187-0.092,0.287-0.14c0.124-0.048,0.252-0.089,0.152-0.177c-0.053-0.052-0.217-0.028-0.306,0.013
			c-0.333,0.175-0.634,0.058-0.956,0.105c0.195-0.153,0.458-0.17,0.758-0.27c-0.337,0.004-0.532-0.16-0.874,0.116
			c-0.171,0.158-0.593,0.084-0.828,0.053c-0.193-0.04-0.625,0.212-0.614-0.005C97.215,28.26,97.555,28.26,97.83,28.221z
			 M112.021,48.354c-0.226,0.006-0.342-0.042-0.36-0.141c-0.026-0.092,0.188-0.081,0.325-0.101c0.139-0.017,0.388-0.052,0.374,0.084
			C112.336,48.284,112.178,48.331,112.021,48.354z M123.537,47.073c-0.277,0.172-0.527,0.237-0.805,0.144
			c0.3-0.132,0.587-0.259,0.857-0.271C123.67,46.927,123.655,47.046,123.537,47.073z M127.806,46.382
			c-0.382,0.012-0.792,0.059-1.176,0.036c-0.357-0.061-0.602-0.199-0.405-0.381c-0.045-0.118-0.058-0.229,0.207-0.201
			c0.209-0.006,0.561,0.017,0.687,0.166c0.11,0.14,0.198,0.258,0.606,0.199c0.115-0.012,0.296,0.022,0.308,0.111
			C128.041,46.345,127.907,46.388,127.806,46.382z M138.618,45.248c-0.158,0.019-0.329,0.014-0.377-0.075
			c-0.045-0.112,0.207-0.146,0.342-0.164c0.146-0.018,0.347-0.089,0.341,0.012C138.936,45.113,138.831,45.19,138.618,45.248z
			 M140.011,45.202c-0.482-0.182-1.127-0.007-1.443-0.569c0.376-0.012,0.819,0.217,1.243,0.316c0.188,0.036,0.316,0.117,0.328,0.2
			C140.171,45.221,140.11,45.254,140.011,45.202z M160.898,42.016c-0.048,0.075-0.036,0.133-0.071,0.198
			c-0.097,0.212-0.34,0.247-0.836,0.188c0.447-0.191,0.66-0.351,0.083-0.393c-0.069-0.04-0.187-0.047-0.105-0.124
			c0.047-0.063,0.168-0.082,0.272-0.094c0.126,0,0.271,0.024,0.389,0.077c0.221-0.011,0.524-0.228,0.646-0.018
			C161.39,41.942,160.979,41.942,160.898,42.016z M170.959,40.207c-0.116,0.146-0.116,0.294-0.467,0.422
			c-0.566,0.135-1.118,0.24-1.682,0.416c-0.362,0.102-0.705,0.125-0.621-0.134c0.021-0.07,0.012-0.183-0.035-0.188
			c-0.073-0.095-0.352-0.119-0.038-0.259c0.26-0.123,0.531-0.369,0.872-0.357c0.211-0.036,0.331,0.081,0.279,0.24
			c0.052,0.08-0.022,0.24,0.283,0.182c0.317-0.041,0.233-0.188,0.317-0.299c0.034-0.066-0.026-0.159,0.235-0.219
			c0.152-0.022,0.326-0.151,0.389,0.013c0,0.03,0.15,0.076,0.246,0.066C170.946,40.06,171.079,40.049,170.959,40.207z
			 M174.115,39.52c-0.112-0.012-0.148-0.111-0.079-0.124c0.261-0.052,0.586,0,0.901,0.036
			C174.694,39.602,174.436,39.607,174.115,39.52z M187.376,38.268c-0.353,0.008-0.626,0.05-0.543,0.23
			c0.07,0.146-0.07,0.253-0.386,0.3c-0.328,0.111-0.703,0.181-0.964,0.081c-0.142-0.051-0.177-0.205,0.176-0.222
			c0.294-0.035,0.339-0.078,0.339-0.207c0.036-0.452,0.083-0.452,0.986-0.657c0.086-0.012,0.164-0.018,0.447-0.076
			C186.949,38.006,187.187,38.081,187.376,38.268z"/>
		<path fill="#62883B" d="M158.748,41.646c0.049,0.129,0.105,0.141,0.386,0.104c0.025,0,0.014,0.006,0.038,0.006
			c0.308-0.198,0.587-0.441,0.879-0.65l-1.526,0.209C158.633,41.362,158.69,41.457,158.748,41.646z"/>
		<path fill="#62883B" d="M109.53,35.35c-0.09-0.71-0.34-1.17-0.75-1.38c-0.42-0.22-1.12-0.27-2.101-0.149l-1.39,0.17
			c0.04,0.04,0.06,0.09,0.06,0.16c-0.14-0.051-0.26-0.11-0.38-0.12l-0.16,0.02h-0.01c-0.04,0.021-0.08,0.05-0.12,0.08
			c-0.08,0.05-0.199,0.061-0.31,0.04l0.47,3.811l2.271-0.28c1.04-0.13,1.72-0.37,2.05-0.74C109.49,36.6,109.62,36.06,109.53,35.35z
			 M109.53,35.35c-0.09-0.71-0.34-1.17-0.75-1.38c-0.42-0.22-1.12-0.27-2.101-0.149l-1.39,0.17c0.04,0.04,0.06,0.09,0.06,0.16
			c-0.14-0.051-0.26-0.11-0.38-0.12l-0.16,0.02h-0.01c-0.04,0.021-0.08,0.05-0.12,0.08c-0.08,0.05-0.199,0.061-0.31,0.04l0.47,3.811
			l2.271-0.28c1.04-0.13,1.72-0.37,2.05-0.74C109.49,36.6,109.62,36.06,109.53,35.35z M109.53,35.35c-0.09-0.71-0.34-1.17-0.75-1.38
			c-0.42-0.22-1.12-0.27-2.101-0.149l-1.39,0.17c0.04,0.04,0.06,0.09,0.06,0.16c-0.14-0.051-0.26-0.11-0.38-0.12l-0.16,0.02h-0.01
			c-0.04,0.021-0.08,0.05-0.12,0.08c-0.08,0.05-0.199,0.061-0.31,0.04l0.47,3.811l2.271-0.28c1.04-0.13,1.72-0.37,2.05-0.74
			C109.49,36.6,109.62,36.06,109.53,35.35z M109.53,35.35c-0.09-0.71-0.34-1.17-0.75-1.38c-0.42-0.22-1.12-0.27-2.101-0.149
			l-1.39,0.17c0.04,0.04,0.06,0.09,0.06,0.16c-0.14-0.051-0.26-0.11-0.38-0.12l-0.16,0.02h-0.01c-0.04,0.021-0.08,0.05-0.12,0.08
			c-0.08,0.05-0.199,0.061-0.31,0.04l0.47,3.811l2.271-0.28c1.04-0.13,1.72-0.37,2.05-0.74C109.49,36.6,109.62,36.06,109.53,35.35z
			 M109.53,35.35c-0.09-0.71-0.34-1.17-0.75-1.38c-0.42-0.22-1.12-0.27-2.101-0.149l-1.39,0.17c0.04,0.04,0.06,0.09,0.06,0.16
			c-0.14-0.051-0.26-0.11-0.38-0.12l-0.16,0.02h-0.01c-0.04,0.021-0.08,0.05-0.12,0.08c-0.08,0.05-0.199,0.061-0.31,0.04l0.47,3.811
			l2.271-0.28c1.04-0.13,1.72-0.37,2.05-0.74C109.49,36.6,109.62,36.06,109.53,35.35z M109.53,35.35c-0.09-0.71-0.34-1.17-0.75-1.38
			c-0.42-0.22-1.12-0.27-2.101-0.149l-1.39,0.17c0.04,0.04,0.06,0.09,0.06,0.16c-0.14-0.051-0.26-0.11-0.38-0.12l-0.16,0.02h-0.01
			c-0.04,0.021-0.08,0.05-0.12,0.08c-0.08,0.05-0.199,0.061-0.31,0.04l0.47,3.811l2.271-0.28c1.04-0.13,1.72-0.37,2.05-0.74
			C109.49,36.6,109.62,36.06,109.53,35.35z M109.53,35.35c-0.09-0.71-0.34-1.17-0.75-1.38c-0.42-0.22-1.12-0.27-2.101-0.149
			l-1.39,0.17c0.04,0.04,0.06,0.09,0.06,0.16c-0.14-0.051-0.26-0.11-0.38-0.12l-0.16,0.02h-0.01c-0.04,0.021-0.08,0.05-0.12,0.08
			c-0.08,0.05-0.199,0.061-0.31,0.04l0.47,3.811l2.271-0.28c1.04-0.13,1.72-0.37,2.05-0.74C109.49,36.6,109.62,36.06,109.53,35.35z
			 M109.53,35.35c-0.09-0.71-0.34-1.17-0.75-1.38c-0.42-0.22-1.12-0.27-2.101-0.149l-1.39,0.17c0.04,0.04,0.06,0.09,0.06,0.16
			c-0.14-0.051-0.26-0.11-0.38-0.12l-0.16,0.02h-0.01c-0.04,0.021-0.08,0.05-0.12,0.08c-0.08,0.05-0.199,0.061-0.31,0.04l0.47,3.811
			l2.271-0.28c1.04-0.13,1.72-0.37,2.05-0.74C109.49,36.6,109.62,36.06,109.53,35.35z M188.16,34.58l-1.98-14.68
			c-0.06-0.391-0.33-0.71-0.699-0.931c-0.03,0-0.061,0-0.08,0.021C185.27,19,185.13,19.06,185.09,19c-0.02-0.03,0.03-0.11,0.07-0.17
			c-0.28-0.11-0.61-0.19-0.96-0.19c-0.11,0-0.23,0.011-0.351,0.03l-4.859,0.65c0.149,0.05,0.3,0.12,0.45,0.12
			c-0.36,0.05-0.74,0.029-1.11,0.029c-0.32,0.15-0.62,0.28-0.93,0.41c0.239,0.04,0.55,0.07,0.58,0.16
			c0.029,0.15-0.29,0.09-0.551,0.07c-0.13,0-0.279-0.03-0.39-0.07c-0.29,0.1-0.58,0.16-0.88,0.24c0.41,0.02,0.81,0.05,1.21,0.069
			c0.18-0.1,0.38-0.14,0.39-0.04c0,0.03-0.04,0.03-0.04,0.051c0.141,0.01,0.271,0.02,0.41,0.029c0.13,0,0.17,0.07,0.2,0.141
			c0.13-0.05,0.26-0.101,0.39-0.12c-0.08,0.08-0.21,0.09-0.3,0.17h-0.01c-0.521,0.35-1.16,0.5-1.71,0.79
			c-0.15,0.05-0.23,0.03-0.24-0.021c-0.02-0.1,0.05-0.21,0.22-0.27c0.42-0.15,0.87-0.29,1.301-0.44
			c-0.19-0.02-0.391-0.04-0.591-0.06c-0.029,0.02-0.08,0.04-0.1,0.05c-0.25,0.101-0.56,0.24-0.56,0.08c0-0.06,0.109-0.12,0.239-0.18
			c-0.3-0.03-0.609-0.101-0.88-0.23c-0.33,0.09-0.649,0.2-0.99,0.25c0.74-0.17,1.061-1.04,2.011-0.85c0.04-0.01,0.14-0.04,0.18-0.08
			c0.07-0.061,0.14-0.07,0.21-0.09l-8.03,1.09c-0.04,0.06-0.189,0.04-0.3,0.06c-0.24,0.03-0.479,0.07-0.7,0.08l-1.25,0.17
			c-0.18,0.101-0.399,0.11-0.55,0.07l-11.97,1.62c-0.05,0.03-0.11,0.07-0.12,0.1c-0.2,0.391-0.47,0.46-0.89,0.41
			c-0.131-0.04-0.44,0.09-0.381-0.08c0.021-0.12,0.28-0.2,0.46-0.24c0.061-0.02,0.131-0.06,0.2-0.09l-6.939,0.94l-1.3,0.18
			c-0.601,0.38-1.221,0.76-1.811,1.141c0.2,0.069,0.41,0.13,0.61,0.17c0.14-0.051,0.27-0.101,0.38-0.19
			c0.07-0.08,0.149-0.05,0.14,0.021c0.01,0.069-0.109,0.17-0.25,0.25c0.021,0.01,0.05,0.01,0.061,0.01
			c0.29,0.16,0.8,0.31,0.72,0.479c-0.08,0.13-0.46-0.04-0.82-0.149c-0.1-0.03-0.2-0.061-0.31-0.101c-0.19,0.12-0.38,0.23-0.57,0.311
			c0.36,0.05,0.71,0.1,0.91,0.47c-0.38,0-0.82-0.22-1.25-0.32c-0.17-0.04-0.31-0.12-0.33-0.21c-0.03-0.05,0.04-0.1,0.13-0.04
			c0.141,0.04,0.271,0.07,0.4,0.09c0.09-0.18,0.2-0.3,0.359-0.39c-0.18-0.06-0.359-0.12-0.529-0.17
			c-0.03,0.01-0.04,0.021-0.051,0.04c-0.31,0.19-0.64,0.46-0.76,0.34c-0.09-0.1,0.17-0.32,0.41-0.5c-0.39-0.12-0.78-0.24-1.16-0.35
			c-0.13,0-0.34,0-0.37-0.11c-0.029-0.05,0.051-0.16,0.13-0.16c0.19-0.029,0.4-0.029,0.69,0.061c0.34,0.09,0.69,0.229,1.03,0.34
			c0.5-0.271,0.96-0.601,1.439-0.92l-5.3,0.72c0.44,0.1,0.9,0.2,1.33,0.311c-0.34-0.03-0.979-0.141-1.7-0.261L131,25.84
			c0.12,0.09,0.25,0.19,0.08,0.23c-0.19,0.05-0.55,0.13-0.87-0.04c-0.07-0.021-0.14-0.03-0.21-0.05l-0.56,0.069
			c-0.021,0.021-0.061,0.01-0.07,0.04c-0.03,0.061-0.18,0.05-0.311,0.08c-0.079-0.02-0.149-0.04-0.229-0.04l-16.41,2.23
			c0.17,0.05,0.33,0.12,0.51,0.12c-0.38,0.05-0.779,0.029-1.16,0.029c-0.319,0.141-0.64,0.271-0.939,0.41
			c0.229,0.03,0.55,0.061,0.57,0.15c0.05,0.149-0.29,0.1-0.551,0.08c-0.13-0.021-0.27-0.03-0.39-0.08
			c-0.29,0.1-0.58,0.17-0.86,0.229c0.41,0.03,0.811,0.05,1.2,0.08c0.17-0.09,0.37-0.13,0.38-0.04
			c0.011,0.021-0.029,0.04-0.029,0.061c0.13,0,0.27,0.01,0.409,0.02c0.131,0.01,0.171,0.08,0.2,0.14
			c0.141-0.04,0.26-0.09,0.391-0.13c-0.08,0.09-0.2,0.11-0.311,0.19h-0.01c-0.51,0.34-1.16,0.5-1.71,0.78
			c-0.14,0.05-0.23,0.04-0.23-0.021c-0.02-0.09,0.04-0.2,0.221-0.26c0.43-0.16,0.859-0.3,1.3-0.44c-0.2-0.029-0.391-0.05-0.59-0.06
			c-0.04,0.01-0.07,0.04-0.12,0.05c-0.23,0.09-0.54,0.23-0.54,0.08c0-0.06,0.109-0.12,0.24-0.19c-0.311-0.02-0.61-0.09-0.881-0.229
			c-0.329,0.09-0.649,0.2-0.979,0.25c0.729-0.17,1.05-1.04,2-0.84c0.04-0.021,0.13-0.05,0.17-0.09c0.08-0.051,0.15-0.07,0.22-0.08
			l-8.05,1.08c-0.01,0.069-0.17,0.05-0.28,0.069c-0.239,0.03-0.479,0.061-0.71,0.07l-1.25,0.17c-0.18,0.1-0.39,0.11-0.55,0.08
			l-2.55,0.35c-1.17,0.15-2.03,0.96-1.91,1.801l1.99,14.68c0.12,0.84,1.149,1.399,2.32,1.24l18.26-2.48h0.01l0.13-0.02h0.01
			l0.53-0.07c0.05-0.04,0.12-0.08,0.19-0.13c0.01,0.06-0.061,0.07-0.08,0.109l12.85-1.739c0-0.021-0.06-0.07,0-0.061
			c0.03,0,0.061,0.03,0.09,0.05l5.23-0.71c-0.47-0.069-0.561-0.369-0.771-0.56c-0.39-0.3,0.11-0.16,0.28-0.13
			c0.55,0,1.05,0.38,1.58,0.54l24.02-3.26c0.2-0.181,0.421-0.37,0.591-0.57c0.069-0.11,0.18-0.17,0.26-0.17
			c0.1-0.01,0.02,0.109-0.03,0.16c-0.04,0.18-0.229,0.359-0.41,0.52l7.48-1c0.02-0.06,0.06-0.1,0.08-0.149
			c0.1-0.16,0.43-0.28,0.63-0.341c0.24-0.09,0.27,0.021,0.26,0.15c0.101,0.06,0.09,0.12,0.05,0.19l15.08-2.04
			C187.42,36.24,188.28,35.42,188.16,34.58z M97.35,32.43c-0.04,0.45-0.069,0.46-0.979,0.65c-0.08,0.01-0.17,0.02-0.46,0.09
			c0.49-0.3,0.26-0.38,0.07-0.56c0.35-0.011,0.619-0.051,0.529-0.23c-0.069-0.149,0.08-0.25,0.391-0.29
			c0.34-0.12,0.72-0.2,0.97-0.09c0.14,0.05,0.18,0.21-0.17,0.22C97.41,32.26,97.35,32.29,97.35,32.43z M97.82,33.44
			c-0.141,0.01-0.34,0.09-0.34-0.021c-0.011-0.1,0.09-0.17,0.31-0.22c0.15-0.03,0.32-0.021,0.37,0.069
			C98.21,33.38,97.96,33.41,97.82,33.44z M99.1,31.71c-0.109,0.1-0.229,0.14-0.35,0.17c-0.11,0.021-0.23,0.04-0.29,0
			c-0.1-0.06,0-0.11,0.07-0.149c0.54-0.211,0.3-0.29-0.19-0.36c0.46-0.19,0.72-0.22,0.86-0.05c0.05,0.06,0.06,0.12,0.12,0.17
			c0.1,0.06,0.5-0.061,0.399,0.08C99.67,31.79,99.32,31.66,99.1,31.71z M130.58,27.06c-0.87,0.19-2.49,0.12-2.8-0.159
			C128.71,26.97,129.65,26.64,130.58,27.06z M123.98,28.96c0.229-0.17,0.6-0.2,0.96-0.18c0.319-0.04,0.47,0.02,0.449,0.18
			c-0.04,0.2,0.24,0.16,0.58,0.08c-0.13,0.22-0.34,0.36,0.21,0.52c-0.29,0.011-0.38,0.021-0.46,0.03
			c-0.93,0.061-0.97,0.061-1.12-0.359c-0.029-0.131-0.1-0.15-0.38-0.11C123.88,29.19,123.86,29.04,123.98,28.96z M123.37,28.47
			c-0.47,0.2-0.66,0.351-0.101,0.4c0.08,0.03,0.19,0.05,0.12,0.12c-0.05,0.06-0.17,0.069-0.29,0.09c-0.119,0-0.25-0.021-0.369-0.061
			c-0.23,0-0.54,0.221-0.641,0.011c-0.13-0.11,0.29-0.101,0.36-0.181c0.05-0.06,0.04-0.119,0.08-0.18
			C122.63,28.45,122.87,28.42,123.37,28.47z M118.59,27.87c0.101-0.14,0.38-0.16,0.58-0.2c1.021-0.25,2.01-0.229,3.01-0.45
			c0.261-0.08,0.46-0.029,0.5,0.04c0.051,0.181-0.279,0.141-0.399,0.19c-0.28,0.13-0.641,0.04-0.96,0.2
			c-0.19,0.109-0.48,0.229-0.73,0.029c-0.109-0.12-0.45-0.069-0.59,0.051c-0.36,0.21-0.76,0.229-1.18,0.279
			c-0.11,0.021-0.25,0.08-0.301,0.03C118.5,28.01,118.54,27.93,118.59,27.87z M114.95,29.46c-0.55,0.06-1.05,0.24-1.63,0.37
			C113.9,29.39,114.67,29.22,114.95,29.46z M112.4,30.67c0.109-0.15,0.119-0.3,0.47-0.42c0.56-0.14,1.11-0.24,1.68-0.42
			c0.36-0.11,0.7-0.13,0.62,0.13c-0.03,0.08-0.02,0.18,0.03,0.2c0.06,0.09,0.359,0.109,0.04,0.25c-0.25,0.12-0.53,0.359-0.87,0.359
			c-0.21,0.021-0.34-0.069-0.28-0.25c-0.05-0.06,0.021-0.229-0.29-0.18c-0.31,0.05-0.24,0.2-0.319,0.311
			c-0.03,0.06,0.02,0.159-0.23,0.22c-0.15,0.01-0.34,0.149-0.39-0.021c-0.011-0.02-0.15-0.069-0.261-0.06
			C112.41,30.82,112.28,30.84,112.4,30.67z M113.67,31.22c-0.29,0.13-0.59,0.28-0.86,0.29c-0.069,0.01-0.06-0.1,0.051-0.14
			C113.14,31.2,113.4,31.14,113.67,31.22z M108.38,30.01c-0.59,0.021-1.12-0.029-1.66,0.07C106.92,29.77,107.71,29.73,108.38,30.01z
			 M106.66,30.81c0.04-0.02,0.02-0.13-0.03-0.18c-0.14-0.229,0.19-0.31,0.57-0.3c0.59,0.01,1.16-0.03,1.72-0.05
			c0.38,0.02,0.42,0.17,0.59,0.279c0.15,0.131,0.021,0.15-0.189,0.171c-0.101,0.01-0.221,0.109-0.221,0.14
			c-0.01,0.16-0.22,0.09-0.359,0.11c-0.271,0-0.24-0.101-0.29-0.15c-0.11-0.09-0.08-0.26-0.391-0.2
			c-0.319,0.01-0.21,0.16-0.229,0.25c0.1,0.15,0.01,0.271-0.2,0.3c-0.34,0.101-0.67-0.06-0.95-0.109
			C106.34,31.01,106.62,30.93,106.66,30.81z M109.32,31.48c-0.271,0.05-0.58,0-0.91-0.04c0.24-0.171,0.51-0.171,0.83-0.08
			C109.35,31.37,109.39,31.47,109.32,31.48z M110.48,42.66l-3.04-3.32l-2.4,0.3l0.45,3.641l-1.83,0.22l-1.33-10.82l4.02-0.5
			c0.771-0.09,1.45-0.109,2.03-0.06c0.03-0.03,0.14-0.061,0.22-0.05c0.391-0.021,0.79-0.07,1.181-0.03
			c0.35,0.05,0.59,0.18,0.39,0.37c0.04,0.109,0.061,0.2-0.12,0.21c0.75,0.47,1.2,1.31,1.351,2.51c0.22,1.78-0.42,3-1.92,3.66
			l3.319,3.59L110.48,42.66z M114.94,42.11L113.7,32.06h-0.01c-0.021,0-0.04,0.011-0.061,0.011c-0.399,0.06-0.45,0.189-0.53,0.359
			c-0.08,0.181-0.409,0.29-0.619,0.34c-0.24,0.101-0.271-0.01-0.24-0.14c-0.24-0.13-0.05-0.32,0.279-0.47
			c0.36-0.13,0.771-0.18,1.15-0.28l-0.07-0.59l7.61-0.94l0.21,1.721l-5.78,0.71l0.351,2.87L121.18,35l0.2,1.63l-5.18,0.64l0.35,2.9
			l5.96-0.74l0.221,1.721L114.94,42.11z M118.49,32.66c-0.16,0.109-0.351,0.2-0.51,0.16c-0.271-0.12-0.41,0.05-0.641,0.22
			c-0.07-0.32,0.36-0.38,0.67-0.47c0.21-0.101,0.38-0.12,0.51-0.04C118.59,32.58,118.54,32.62,118.49,32.66z M130.01,40.25
			l-2.05,0.25l-5.69-10.28l2.051-0.26l0.069,0.13c0.21,0.01,0.33,0.04,0.351,0.141c0.02,0.079-0.101,0.079-0.221,0.09l4.131,7.319
			l2.33-8.5l2.039-0.25L130.01,40.25z M132.79,25.86c0.53-0.101,0.99,0.069,1.44,0.1c0.18,0,0.449,0,0.51,0.11
			c0.1,0.149-0.23,0.109-0.34,0.18c-0.4,0.16-0.681,0.16-0.971-0.16C133.36,26.02,133.07,25.95,132.79,25.86z M133.73,41.36
			c-0.07-0.04-0.171-0.13-0.061-0.15c0.07-0.04,0.19,0.01,0.3,0.1c0.38,0.28,0.891,0.48,1.33,0.73
			C134.77,42.09,133.98,41.75,133.73,41.36z M135.91,39.52L134.57,28.7l1.83-0.23l1.33,10.83L135.91,39.52z M137.71,28.28
			c-0.06,0.14-0.15,0.25-0.28,0.3c-0.109,0.04-0.06-0.07-0.01-0.16c0.25-0.39-0.22-0.33,0.09-0.81
			C137.77,27.7,137.9,27.88,137.71,28.28z M160.24,21.99c-0.221,0.35-1.771,0.85-2.65,0.91C158.36,22.24,159.37,22.3,160.24,21.99z
			 M147.07,37.37c-0.641,0.68-1.54,1.09-2.69,1.229c-1.7,0.21-3.27-0.18-4.72-1.189l0.97-1.521c1.21,0.811,2.41,1.15,3.58,1
			c0.59-0.069,1.04-0.25,1.36-0.55c0.31-0.29,0.439-0.649,0.39-1.07c-0.05-0.42-0.25-0.72-0.61-0.909
			c-0.35-0.2-0.93-0.341-1.75-0.431c-0.819-0.1-1.449-0.199-1.88-0.31c-0.43-0.101-0.83-0.271-1.18-0.49
			c-0.7-0.399-1.11-1.11-1.23-2.11c-0.13-1,0.141-1.819,0.801-2.449c0.659-0.63,1.529-1.011,2.6-1.15c0.34-0.04,0.69-0.05,1.03-0.02
			h0.06c0.021-0.011,0.03-0.011,0.04,0c0.04,0,0.07,0,0.101,0.01c0.069,0,0.149,0,0.22,0.01c0.08,0,0.149,0.01,0.22,0.021
			c0.15,0.02,0.29,0.04,0.44,0.069c0.319,0.061,0.62,0.15,0.899,0.26h0.011c0.119,0.011,0.22,0.011,0.34,0.011
			c0.64,0.01,0.67,0.38,0.899,0.609c0.391,0.28-0.109,0.141-0.3,0.12c-0.04,0-0.07,0-0.11-0.01l-0.67,1.25
			c-0.35-0.25-0.81-0.43-1.38-0.55c-0.569-0.12-1.13-0.141-1.66-0.08c-0.529,0.07-0.949,0.229-1.27,0.49
			c-0.311,0.26-0.44,0.609-0.38,1.05c0.05,0.43,0.26,0.75,0.63,0.939c0.37,0.19,1.13,0.351,2.27,0.48
			c1.141,0.13,2.021,0.41,2.65,0.82c0.62,0.42,0.99,1.1,1.11,2.04C147.97,35.89,147.71,36.7,147.07,37.37z M150.5,37.72l-1-8.069
			c-0.04-0.03-0.08-0.051-0.12-0.091c-0.39-0.27-0.89-0.47-1.34-0.72c0.45-0.04,1.09,0.2,1.42,0.5l-0.3-2.439l1.83-0.23
			c-0.05-0.18,0.029-0.31,0.18-0.41c0.44,0.38-0.04,0.44,0.32,0.75c0.06,0.08,0.149,0.17,0.029,0.15c-0.14,0-0.26-0.09-0.359-0.2
			c-0.09-0.11-0.141-0.21-0.17-0.29l1.33,10.83L150.5,37.72z M159.42,36.62l-1.83,0.229l-1.13-9.159l-3.29,0.409l-0.2-1.67
			l8.391-1.04l0.21,1.67l-3.28,0.41L159.42,36.62z M181.51,20.43c-0.54,0.051-1.04,0.24-1.609,0.37
			C180.47,20.35,181.25,20.18,181.51,20.43z M178.97,21.64c0.11-0.149,0.13-0.3,0.46-0.42c0.57-0.14,1.12-0.25,1.69-0.43
			c0.36-0.1,0.7-0.12,0.62,0.14c-0.03,0.07-0.01,0.181,0.029,0.19c0.07,0.1,0.37,0.12,0.04,0.26c-0.25,0.12-0.529,0.351-0.869,0.36
			c-0.21,0.02-0.33-0.08-0.28-0.25c-0.05-0.07,0.03-0.24-0.3-0.181c-0.301,0.051-0.23,0.19-0.311,0.311
			c-0.04,0.05,0.021,0.149-0.24,0.21c-0.14,0.02-0.329,0.16-0.38-0.01c-0.01-0.03-0.149-0.08-0.25-0.061
			C178.99,21.79,178.85,21.8,178.97,21.64z M180.25,22.2c-0.31,0.12-0.59,0.26-0.87,0.27c-0.07,0.011-0.05-0.1,0.05-0.14
			C179.71,22.16,179.98,22.1,180.25,22.2z M174.95,20.98c-0.58,0.01-1.11-0.03-1.67,0.069C173.48,20.73,174.28,20.69,174.95,20.98z
			 M165.77,22.29c0.051,0.06,0.061,0.11,0.131,0.17c0.08,0.05,0.489-0.07,0.399,0.07c-0.05,0.22-0.399,0.09-0.64,0.149
			c-0.09,0.09-0.22,0.13-0.34,0.17c-0.101,0.021-0.23,0.03-0.29-0.01c-0.09-0.06,0.01-0.109,0.069-0.149
			c0.54-0.2,0.311-0.28-0.189-0.351C165.37,22.15,165.62,22.11,165.77,22.29z M164.74,24.23c0.029,0.119-0.21,0.159-0.34,0.17
			c-0.16,0.02-0.341,0.09-0.341-0.011c-0.02-0.109,0.091-0.17,0.301-0.229C164.52,24.14,164.69,24.14,164.74,24.23z M162.94,24.04
			c-0.07,0.01-0.16,0.02-0.46,0.09c0.5-0.3,0.26-0.38,0.069-0.55c0.351-0.01,0.62-0.061,0.54-0.23c-0.07-0.159,0.08-0.26,0.38-0.3
			c0.351-0.12,0.721-0.189,0.971-0.08c0.14,0.05,0.18,0.2-0.171,0.221c-0.289,0.029-0.34,0.069-0.34,0.199
			C163.89,23.84,163.84,23.85,162.94,24.04z M165.35,38.3c-0.21,0.11-0.39,0.13-0.51,0.05c-0.07-0.05-0.03-0.09,0.03-0.13
			c0.149-0.109,0.34-0.21,0.51-0.17c0.26,0.13,0.4-0.06,0.62-0.22C166.09,38.15,165.64,38.21,165.35,38.3z M164.68,35.97
			l-1.34-10.819l7.61-0.94l0.08,0.63c0.04,0,0.08,0,0.13,0.01c0.33,0.021,0.76-0.04,0.77,0.271c-0.27-0.08-0.439-0.22-0.67-0.03
			c-0.06,0.03-0.12,0.05-0.2,0.05l0.101,0.78l-5.78,0.72l0.36,2.86l5.189-0.64l0.2,1.63l-5.189,0.64l0.359,2.9l5.96-0.74l0.21,1.72
			L164.68,35.97z M173.23,21.77c0.039-0.02,0.029-0.119-0.021-0.18c-0.14-0.229,0.19-0.31,0.56-0.3c0.601,0.01,1.16-0.03,1.73-0.04
			c0.38,0.02,0.41,0.16,0.58,0.28c0.15,0.13,0.01,0.14-0.18,0.17c-0.101,0.01-0.23,0.1-0.23,0.13c0,0.17-0.21,0.1-0.37,0.12
			c-0.25,0-0.229-0.11-0.28-0.15c-0.119-0.09-0.079-0.26-0.39-0.22c-0.31,0.03-0.21,0.17-0.22,0.26c0.1,0.15,0,0.271-0.21,0.311
			c-0.33,0.1-0.66-0.07-0.94-0.12C172.92,21.99,173.21,21.89,173.23,21.77z M175.89,22.44c-0.26,0.06-0.58,0-0.899-0.03
			c0.229-0.17,0.5-0.18,0.819-0.08C175.93,22.33,175.96,22.43,175.89,22.44z M179.26,36.89c-0.1,0.12-0.27,0.141-0.49,0.091
			c-0.329-0.011-0.77,0.05-0.779-0.261c0.27,0.09,0.45,0.221,0.67,0.03c0.149-0.08,0.35-0.04,0.53,0.02
			C179.26,36.8,179.31,36.83,179.26,36.89z M182.87,32.23c-0.89,1.109-2.38,1.789-4.47,2.05l-3.591,0.439l-1.34-10.83l2.74-0.33
			c-0.15-0.02-0.28-0.05-0.35-0.14c-0.11-0.14-0.19-0.27-0.601-0.21c-0.12,0.01-0.31-0.01-0.319-0.11c0-0.04,0.13-0.08,0.22-0.069
			c0.39-0.011,0.8-0.07,1.189-0.021c0.36,0.05,0.601,0.181,0.4,0.351c0.02,0.05,0.03,0.1,0.02,0.13l0.421-0.05
			c0.55-0.07,1.06-0.091,1.55-0.07c0.06-0.08,0.189-0.17,0.359-0.24c0.351-0.14,0.761-0.2,1.15-0.28c0.08-0.04,0.22-0.029,0.23,0
			c0.01,0.091-0.16,0.17-0.28,0.19c-0.4,0.05-0.46,0.2-0.53,0.36c-0.01,0.02-0.02,0.04-0.03,0.05c0.851,0.13,1.58,0.41,2.2,0.85
			c1.16,0.82,1.84,2.07,2.05,3.75C184.1,29.73,183.76,31.12,182.87,32.23z M185.06,23.63c-0.149,0.11-0.35,0.2-0.5,0.16
			c-0.27-0.13-0.42,0.05-0.64,0.21c-0.08-0.31,0.35-0.37,0.67-0.46c0.2-0.11,0.37-0.13,0.49-0.04
			C185.16,23.55,185.12,23.58,185.06,23.63z M177.34,25.13l-1.83,0.23l0.91,7.42l2.03-0.261c1.31-0.159,2.28-0.59,2.899-1.3
			c0.62-0.72,0.851-1.68,0.7-2.899C181.75,25.84,180.17,24.78,177.34,25.13z M109.53,35.35c-0.09-0.71-0.34-1.17-0.75-1.38
			c-0.42-0.22-1.12-0.27-2.101-0.149l-1.39,0.17c0.04,0.04,0.06,0.09,0.06,0.16c-0.14-0.051-0.26-0.11-0.38-0.12l-0.16,0.02h-0.01
			c-0.04,0.021-0.08,0.05-0.12,0.08c-0.08,0.05-0.199,0.061-0.31,0.04l0.47,3.811l2.271-0.28c1.04-0.13,1.72-0.37,2.05-0.74
			C109.49,36.6,109.62,36.06,109.53,35.35z M109.53,35.35c-0.09-0.71-0.34-1.17-0.75-1.38c-0.42-0.22-1.12-0.27-2.101-0.149
			l-1.39,0.17c0.04,0.04,0.06,0.09,0.06,0.16c-0.14-0.051-0.26-0.11-0.38-0.12l-0.16,0.02h-0.01c-0.04,0.021-0.08,0.05-0.12,0.08
			c-0.08,0.05-0.199,0.061-0.31,0.04l0.47,3.811l2.271-0.28c1.04-0.13,1.72-0.37,2.05-0.74C109.49,36.6,109.62,36.06,109.53,35.35z
			 M109.53,35.35c-0.09-0.71-0.34-1.17-0.75-1.38c-0.42-0.22-1.12-0.27-2.101-0.149l-1.39,0.17c0.04,0.04,0.06,0.09,0.06,0.16
			c-0.14-0.051-0.26-0.11-0.38-0.12l-0.16,0.02h-0.01c-0.04,0.021-0.08,0.05-0.12,0.08c-0.08,0.05-0.199,0.061-0.31,0.04l0.47,3.811
			l2.271-0.28c1.04-0.13,1.72-0.37,2.05-0.74C109.49,36.6,109.62,36.06,109.53,35.35z M109.53,35.35c-0.09-0.71-0.34-1.17-0.75-1.38
			c-0.42-0.22-1.12-0.27-2.101-0.149l-1.39,0.17c0.04,0.04,0.06,0.09,0.06,0.16c-0.14-0.051-0.26-0.11-0.38-0.12l-0.16,0.02h-0.01
			c-0.04,0.021-0.08,0.05-0.12,0.08c-0.08,0.05-0.199,0.061-0.31,0.04l0.47,3.811l2.271-0.28c1.04-0.13,1.72-0.37,2.05-0.74
			C109.49,36.6,109.62,36.06,109.53,35.35z M109.53,35.35c-0.09-0.71-0.34-1.17-0.75-1.38c-0.42-0.22-1.12-0.27-2.101-0.149
			l-1.39,0.17c0.04,0.04,0.06,0.09,0.06,0.16c-0.14-0.051-0.26-0.11-0.38-0.12l-0.16,0.02h-0.01c-0.04,0.021-0.08,0.05-0.12,0.08
			c-0.08,0.05-0.199,0.061-0.31,0.04l0.47,3.811l2.271-0.28c1.04-0.13,1.72-0.37,2.05-0.74C109.49,36.6,109.62,36.06,109.53,35.35z
			 M109.53,35.35c-0.09-0.71-0.34-1.17-0.75-1.38c-0.42-0.22-1.12-0.27-2.101-0.149l-1.39,0.17c0.04,0.04,0.06,0.09,0.06,0.16
			c-0.14-0.051-0.26-0.11-0.38-0.12l-0.16,0.02h-0.01c-0.04,0.021-0.08,0.05-0.12,0.08c-0.08,0.05-0.199,0.061-0.31,0.04l0.47,3.811
			l2.271-0.28c1.04-0.13,1.72-0.37,2.05-0.74C109.49,36.6,109.62,36.06,109.53,35.35z M109.53,35.35c-0.09-0.71-0.34-1.17-0.75-1.38
			c-0.42-0.22-1.12-0.27-2.101-0.149l-1.39,0.17c0.04,0.04,0.06,0.09,0.06,0.16c-0.14-0.051-0.26-0.11-0.38-0.12l-0.16,0.02h-0.01
			c-0.04,0.021-0.08,0.05-0.12,0.08c-0.08,0.05-0.199,0.061-0.31,0.04l0.47,3.811l2.271-0.28c1.04-0.13,1.72-0.37,2.05-0.74
			C109.49,36.6,109.62,36.06,109.53,35.35z M109.53,35.35c-0.09-0.71-0.34-1.17-0.75-1.38c-0.42-0.22-1.12-0.27-2.101-0.149
			l-1.39,0.17c0.04,0.04,0.06,0.09,0.06,0.16c-0.14-0.051-0.26-0.11-0.38-0.12l-0.16,0.02h-0.01c-0.04,0.021-0.08,0.05-0.12,0.08
			c-0.08,0.05-0.199,0.061-0.31,0.04l0.47,3.811l2.271-0.28c1.04-0.13,1.72-0.37,2.05-0.74C109.49,36.6,109.62,36.06,109.53,35.35z
			 M109.53,35.35c-0.09-0.71-0.34-1.17-0.75-1.38c-0.42-0.22-1.12-0.27-2.101-0.149l-1.39,0.17c0.04,0.04,0.06,0.09,0.06,0.16
			c-0.14-0.051-0.26-0.11-0.38-0.12l-0.16,0.02h-0.01c-0.04,0.021-0.08,0.05-0.12,0.08c-0.08,0.05-0.199,0.061-0.31,0.04l0.47,3.811
			l2.271-0.28c1.04-0.13,1.72-0.37,2.05-0.74C109.49,36.6,109.62,36.06,109.53,35.35z"/>
		<path fill="#62883B" d="M187.983,16.795c-0.012,0-0.024,0.006-0.036,0.006c0.012,0.013,0.024,0.005,0.036,0.005
			C187.983,16.795,187.983,16.795,187.983,16.795z"/>
	</g>
</g>
<path fill="#FFFFFF" d="M110,32.58c-0.41-0.25-0.95-0.41-1.62-0.46c-0.01,0-0.01,0-0.01,0.01c0.01,0.101,0.189,0.13,0.31,0.11
	c0.4-0.05,0.5,0.069,0.601,0.21c0.13,0.149,0.479,0.16,0.689,0.17h0.08C110.03,32.6,110.02,32.59,110,32.58z M104.1,33.98
	c-0.06,0.069-0.01,0.1,0.061,0.13c0.07,0.029,0.14,0.05,0.21,0.06l-0.01-0.06l0.439-0.061h0.01l0.16-0.02l0.32-0.04
	c-0.14-0.12-0.45-0.08-0.7-0.101C104.36,33.84,104.19,33.87,104.1,33.98z"/>
<path fill="#FFFFFF" d="M109.48,38.79c1.5-0.66,2.14-1.88,1.92-3.66c-0.15-1.2-0.601-2.04-1.351-2.51h-0.08
	c-0.21-0.01-0.56-0.021-0.689-0.17c-0.101-0.141-0.2-0.26-0.601-0.21c-0.12,0.02-0.3-0.01-0.31-0.11c0-0.01,0-0.01,0.01-0.01
	c-0.58-0.05-1.26-0.03-2.03,0.06l-4.02,0.5l1.33,10.82l1.83-0.22l-0.45-3.641l2.4-0.3l3.04,3.32l2.319-0.28L109.48,38.79z
	 M107.11,37.7l-2.271,0.28l-0.47-3.811c-0.07-0.01-0.14-0.03-0.21-0.06c-0.07-0.03-0.12-0.061-0.061-0.13
	c0.091-0.11,0.261-0.141,0.49-0.091c0.25,0.021,0.561-0.02,0.7,0.101l1.39-0.17c0.98-0.12,1.681-0.07,2.101,0.149
	c0.41,0.21,0.66,0.67,0.75,1.38s-0.04,1.25-0.37,1.61C108.83,37.33,108.15,37.57,107.11,37.7z"/>
<path fill="#FFFFFF" d="M113.67,31.88l0.021,0.18h0.01c0.109-0.029,0.21-0.1,0.2-0.18C113.9,31.85,113.76,31.85,113.67,31.88z"/>
<path fill="#FFFFFF" d="M122.73,41.15l-7.79,0.96L113.7,32.06c0.109-0.029,0.21-0.1,0.2-0.18c0-0.03-0.141-0.03-0.23,0l-0.07-0.59
	l7.61-0.94l0.21,1.721l-5.78,0.71l0.351,2.87L121.18,35l0.2,1.63l-5.18,0.64l0.35,2.9l5.96-0.74L122.73,41.15z"/>
<path fill="#FFFFFF" d="M124.39,30.09c-0.159,0.021-0.319,0.08-0.34,0.16c-0.01,0.12,0.23,0.09,0.37,0.08
	c0.03-0.01,0.061-0.01,0.1-0.01L124.39,30.09z"/>
<path fill="#FFFFFF" d="M133.02,28.89l-3.01,11.36l-2.05,0.25l-5.69-10.28l2.051-0.26l0.069,0.13c-0.159,0.021-0.319,0.08-0.34,0.16
	c-0.01,0.12,0.23,0.09,0.37,0.08c0.03-0.01,0.061-0.01,0.1-0.01l4.131,7.319l2.33-8.5L133.02,28.89z"/>
<polygon fill="#FFFFFF" points="137.73,39.3 135.91,39.52 134.57,28.7 136.4,28.47 "/>
<path fill="#FFFFFF" d="M145.73,27.77h-0.011c-0.189-0.01-0.38-0.029-0.6-0.06c-0.07,0.04-0.3,0.04-0.19,0.19
	c0.57,0.1,1.08,0.55,1.63,0.6l0.141-0.25C146.4,28.06,146.08,27.9,145.73,27.77z M143.84,27.4c-0.01-0.011-0.02-0.011-0.04,0h-0.06
	c-0.34,0.13-0.61,0.25-0.9,0.31c-0.62,0.19-0.53,0.55-0.7,0.83c-0.29,0.38,0.141,0.11,0.32,0.04c0.57-0.16,0.96-0.78,1.51-1.05
	C144.02,27.41,143.92,27.4,143.84,27.4z M139.88,30.33c-0.05,0.07-0.12,0.18-0.02,0.17c0.08,0.01,0.199-0.06,0.27-0.18
	c0.29-0.37,0.73-0.7,1.09-1.051C140.7,29.36,140.02,29.9,139.88,30.33z"/>
<path fill="#FFFFFF" d="M147.86,34.94c-0.12-0.94-0.49-1.62-1.11-2.04c-0.63-0.41-1.51-0.69-2.65-0.82
	c-1.14-0.13-1.899-0.29-2.27-0.48c-0.37-0.189-0.58-0.51-0.63-0.939c-0.061-0.44,0.069-0.79,0.38-1.05
	c0.32-0.261,0.74-0.42,1.27-0.49c0.53-0.061,1.091-0.04,1.66,0.08c0.57,0.12,1.03,0.3,1.38,0.55l0.67-1.25
	c-0.55-0.05-1.06-0.5-1.63-0.6c-0.109-0.15,0.12-0.15,0.19-0.19c0.22,0.03,0.41,0.05,0.6,0.06c-0.279-0.109-0.58-0.199-0.899-0.26
	c-0.33-0.069-0.65-0.1-0.98-0.109c0.08,0,0.18,0.01,0.13,0.13c-0.55,0.27-0.939,0.89-1.51,1.05c-0.18,0.07-0.61,0.34-0.32-0.04
	c0.17-0.28,0.08-0.64,0.7-0.83c0.29-0.06,0.561-0.18,0.9-0.31h0.06c-0.359-0.03-0.729-0.021-1.09,0.02
	c-1.07,0.14-1.94,0.521-2.6,1.15c-0.66,0.63-0.931,1.449-0.801,2.449c0.12,1,0.53,1.711,1.23,2.11c0.35,0.22,0.75,0.39,1.18,0.49
	c0.431,0.11,1.061,0.21,1.88,0.31c0.82,0.09,1.4,0.23,1.75,0.431c0.36,0.189,0.561,0.489,0.61,0.909c0.05,0.421-0.08,0.78-0.39,1.07
	c-0.32,0.3-0.771,0.48-1.36,0.55c-1.17,0.15-2.37-0.189-3.58-1l-0.97,1.521c1.45,1.01,3.02,1.399,4.72,1.189
	c1.15-0.14,2.05-0.55,2.69-1.229C147.71,36.7,147.97,35.89,147.86,34.94z M140.13,30.32c-0.07,0.12-0.189,0.189-0.27,0.18
	c-0.101,0.01-0.03-0.1,0.02-0.17c0.14-0.43,0.82-0.97,1.34-1.061C140.86,29.62,140.42,29.95,140.13,30.32z"/>
<path fill="#FFFFFF" d="M149.62,29.51c-0.04-0.06-0.09-0.12-0.16-0.17l0.04,0.311c0.07,0.029,0.14,0.04,0.18,0.01
	C149.79,29.65,149.68,29.56,149.62,29.51z"/>
<path fill="#FFFFFF" d="M152.32,37.5l-1.82,0.22l-1-8.069c0.07,0.029,0.14,0.04,0.18,0.01c0.11-0.01,0-0.101-0.06-0.15
	c-0.04-0.06-0.09-0.12-0.16-0.17l-0.3-2.439l1.83-0.23L152.32,37.5z"/>
<polygon fill="#FFFFFF" points="158.29,27.47 159.42,36.62 157.59,36.85 156.46,27.69 153.17,28.1 152.97,26.43 161.36,25.39 
	161.57,27.06 "/>
<path fill="#FFFFFF" d="M171.03,24.84c-0.16-0.02-0.28,0.01-0.36,0.11c-0.06,0.069,0,0.1,0.07,0.13c0.09,0.04,0.21,0.06,0.319,0.06
	L171.03,24.84z"/>
<path fill="#FFFFFF" d="M172.47,35.01l-7.79,0.96l-1.34-10.819l7.61-0.94l0.08,0.63c-0.16-0.02-0.28,0.01-0.36,0.11
	c-0.06,0.069,0,0.1,0.07,0.13c0.09,0.04,0.21,0.06,0.319,0.06l0.101,0.78l-5.78,0.72l0.36,2.86l5.189-0.64l0.2,1.63l-5.189,0.64
	l0.359,2.9l5.96-0.74L172.47,35.01z"/>
<path fill="#FFFFFF" d="M178.74,23.37c-0.061,0.08-0.05,0.16,0.069,0.22c-0.02,0.13,0,0.24,0.24,0.15
	c0.19-0.05,0.47-0.141,0.59-0.29C179.35,23.4,179.05,23.37,178.74,23.37z M176.54,23.58c0.17,0.01,0.22-0.03,0.229-0.09
	l-0.539,0.069C176.34,23.57,176.46,23.58,176.54,23.58z"/>
<path fill="#FFFFFF" d="M183.89,28.05c-0.21-1.68-0.89-2.93-2.05-3.75c-0.62-0.439-1.35-0.72-2.2-0.85
	c-0.12,0.149-0.399,0.24-0.59,0.29c-0.24,0.09-0.26-0.021-0.24-0.15c-0.119-0.06-0.13-0.14-0.069-0.22c-0.49-0.021-1,0-1.55,0.07
	l-0.421,0.05c-0.01,0.06-0.06,0.1-0.229,0.09c-0.08,0-0.2-0.01-0.31-0.021h-0.021l-2.74,0.33l1.34,10.83l3.591-0.439
	c2.09-0.261,3.58-0.94,4.47-2.05C183.76,31.12,184.1,29.73,183.89,28.05z M181.35,31.22c-0.619,0.71-1.59,1.141-2.899,1.3
	l-2.03,0.261l-0.91-7.42l1.83-0.23c2.83-0.35,4.41,0.71,4.71,3.19C182.2,29.54,181.97,30.5,181.35,31.22z"/>
</svg>
