<?xml version="1.0" encoding="utf-8"?>
<!-- Generator: Adobe Illustrator 16.0.0, SVG Export Plug-In . SVG Version: 6.00 Build 0)  -->
<!DOCTYPE svg PUBLIC "-//W3C//DTD SVG 1.1//EN" "http://www.w3.org/Graphics/SVG/1.1/DTD/svg11.dtd">
<svg version="1.1" id="Layer_1" xmlns="http://www.w3.org/2000/svg" xmlns:xlink="http://www.w3.org/1999/xlink" x="0px" y="0px"
	 width="75.76px" height="128.268px" viewBox="0 0 75.76 128.268" enable-background="new 0 0 75.76 128.268" xml:space="preserve">
<ellipse opacity="0.2" fill="#414042" cx="38.356" cy="93.38" rx="23.896" ry="8.754"/>
<g opacity="0.3">
	<path fill="#414042" d="M26.454,85.052c0,0-5.639-7.177-9.994-3.845c-4.357,3.332,4.869,10.508,4.869,10.508
		s-4.1,1.538-3.332,3.075c0.77,1.538,9.039-0.48,9.039-0.48L26.454,85.052z"/>
	<path fill="#414042" d="M51.058,85.052c0,0,5.641-7.177,9.996-3.845s-4.869,10.508-4.869,10.508s4.102,1.538,3.332,3.075
		c-0.77,1.538-9.037-0.48-9.037-0.48L51.058,85.052z"/>
	<path fill="#414042" d="M29.851,92.386c0,0,10.221,6.36,17.652-0.304L43.624,80.5H32.478L29.851,92.386z"/>
	<path fill="#414042" d="M50.216,94.309c4.787-9.793,0.875-16.422-0.412-18.198c-0.229-0.314-0.406-0.479-0.406-0.479L38.57,76.977
		l-10.764-1.345c0,0-0.146,0.163-0.375,0.479c-1.285,1.776-5.184,8.405-0.395,18.198c0,0-3.844,0.24-3.332,1.778
		c0.514,1.538,6.152,1.529,7.434,0.762c1.281-0.77-2.178-14.874,7.432-14.874c9.611,0,6.213,14.104,7.494,14.874
		c1.281,0.769,6.98,0.776,7.492-0.762C54.07,94.549,50.216,94.309,50.216,94.309z"/>
	<ellipse fill="#414042" cx="38.63" cy="62.881" rx="24.092" ry="16.261"/>
	<path fill="#414042" d="M39.177,76.927c-7.311,0-14.48-1.854-20.836-5.276c4.281,4.506,11.768,7.492,20.289,7.492
		c7.77,0,14.678-2.483,19.082-6.339C51.948,75.488,45.618,76.927,39.177,76.927z"/>
	<g>
		<circle fill="#414042" cx="54.642" cy="48.714" r="8.073"/>
		<circle fill="#414042" cx="54.642" cy="48.714" r="5.51"/>
	</g>
	<g>
		<circle fill="#414042" cx="22.087" cy="48.714" r="8.074"/>
		<circle fill="#414042" cx="22.087" cy="48.714" r="5.51"/>
		<path fill="#414042" d="M22.679,51.908c-1.766,0.325-3.461-0.84-3.785-2.604c-0.33-1.766,0.834-3.461,2.598-3.785
			c0.217-0.04,0.434-0.054,0.641-0.054c-0.031,0.116-0.045,0.239-0.045,0.37c0,0.824,0.67,1.487,1.494,1.487
			c0.455,0,0.855-0.2,1.133-0.517c0.277,0.378,0.471,0.825,0.563,1.318C25.609,49.89,24.437,51.577,22.679,51.908z"/>
		<path fill="#414042" d="M55.234,51.908c-1.766,0.325-3.461-0.84-3.785-2.604c-0.332-1.766,0.832-3.461,2.6-3.785
			c0.215-0.04,0.432-0.054,0.639-0.054c-0.031,0.116-0.045,0.239-0.045,0.37c0,0.824,0.67,1.487,1.494,1.487
			c0.455,0,0.855-0.2,1.133-0.517c0.279,0.378,0.471,0.825,0.563,1.318C58.163,49.89,56.991,51.577,55.234,51.908z"/>
	</g>
	<circle fill="#414042" cx="55.56" cy="60.739" r="3.848"/>
	<circle fill="#414042" cx="22.425" cy="60.739" r="3.848"/>
</g>
<g>
	<path fill="#002F47" d="M26.423,92.514c0,0-8.299,2.021-9.073,0.48c-0.774-1.549,3.344-3.089,3.344-3.089
		s-9.268-7.209-4.893-10.555c0.844-0.642,1.726-0.898,2.617-0.89l-0.024,0.022c-0.162,0.163-0.162,0.427,0,0.59
		c0.163,0.161,0.427,0.161,0.589,0l0.487-0.488c0.21,0.055,0.411,0.108,0.62,0.178l-0.604,0.604c-0.279,0.279-0.279,0.72,0,0.99
		c0.271,0.271,0.713,0.264,0.976-0.008l0.983-0.976c0.279,0.155,0.55,0.326,0.813,0.513l-1.355,1.354
		c-0.487,0.487-0.487,1.284-0.007,1.765c0.488,0.496,1.277,0.488,1.765,0l1.354-1.354c0.009-0.031,0.017-0.063,0.024-0.095
		c0.016-0.068,0.031-0.138,0.055-0.207c1.068,0.99,1.75,1.856,1.75,1.856L26.423,92.514z"/>
	<path fill="#002F47" d="M59.051,92.994c-0.766,1.541-9.074-0.48-9.074-0.48l0.581-9.308c0,0,0.813-1.029,2.051-2.136l0.99,1.72
		c0.388,0.672,1.264,0.913,1.938,0.519c0.674-0.388,0.905-1.263,0.518-1.936l-1.136-1.976c0.309-0.17,0.627-0.333,0.952-0.456
		l0.92,1.587c0.209,0.372,0.698,0.512,1.077,0.295c0.371-0.218,0.502-0.705,0.285-1.085L57.442,78.5
		c0.239-0.031,0.479-0.048,0.719-0.031l0.628,1.091c0.132,0.225,0.418,0.303,0.644,0.172c0.224-0.124,0.3-0.412,0.169-0.644
		l-0.224-0.402c0.417,0.14,0.82,0.355,1.223,0.665c4.375,3.346-4.894,10.555-4.894,10.555S59.826,91.446,59.051,92.994z"/>
	<path fill="#05A2AD" d="M29.255,90.575c0,0,10.267,6.388,17.732-0.306l-3.895-11.636H31.894L29.255,90.575z"/>
	<path fill="#003F5E" d="M53.066,94.295c-0.519,1.548-6.24,1.541-7.524,0.767c-1.285-0.775,2.129-14.943-7.527-14.943
		c-9.654,0-6.178,14.168-7.463,14.943c-1.292,0.774-6.953,0.781-7.472-0.767c-0.511-1.541,3.345-1.781,3.345-1.781
		c-1.393-2.857-2.059-5.443-2.253-7.728l0.581,0.58c0.287,0.279,0.744,0.279,1.023,0c0.278-0.277,0.278-0.734,0-1.014l-1.665-1.663
		c0.007-0.45,0.038-0.877,0.085-1.295l2.09,2.091c0.472,0.474,1.239,0.474,1.712,0c0.471-0.472,0.464-1.237-0.008-1.703
		l-3.237-3.235c0.187-0.62,0.395-1.177,0.612-1.681l4.165,4.164c0.844,0.846,2.223,0.846,3.059,0.01
		c0.852-0.844,0.844-2.224,0-3.066l-2.346-2.346c-0.054-0.017-0.108-0.023-0.163-0.04c-0.364-0.085-0.728-0.178-1.076-0.278
		c-0.031,0-0.062-0.015-0.085-0.023c-0.464-0.124-0.92-0.263-1.37-0.41c-0.317-0.101-0.635-0.21-0.945-0.325
		c0.078-0.123,0.155-0.232,0.225-0.324c0.225-0.312,0.372-0.481,0.372-0.481l1.324,0.163l9.492,1.192l9.401-1.169l1.005-0.133v1.139
		c-0.022,0.008-0.047,0.017-0.069,0.023c-0.224,0.07-0.449,0.14-0.673,0.201c-0.272,0.078-0.55,0.156-0.829,0.225
		c-0.264,0.069-0.533,0.14-0.806,0.201c-0.125,0.031-0.248,0.062-0.37,0.085l-2.301,2.301c-0.845,0.843-0.852,2.223-0.009,3.066
		c0.845,0.836,2.224,0.836,3.067-0.01l4.281-4.28c0.217,0.495,0.434,1.053,0.62,1.672l-3.36,3.36
		c-0.472,0.466-0.479,1.231-0.009,1.703c0.472,0.474,1.239,0.474,1.712,0l2.237-2.237c0.054,0.41,0.094,0.828,0.108,1.271
		l-1.834,1.834c-0.279,0.279-0.279,0.736,0,1.014c0.278,0.279,0.735,0.279,1.013,0l0.782-0.781c-0.178,2.33-0.827,4.986-2.268,7.929
		C49.714,92.514,53.577,92.754,53.066,94.295z"/>
	<path fill="#06D8E7" d="M50.712,76.75l-4.281,4.28c-0.844,0.846-2.223,0.846-3.067,0.01c-0.843-0.844-0.836-2.224,0.009-3.066
		l2.301-2.301c0.122-0.023,0.245-0.054,0.37-0.085c0.272-0.062,0.542-0.132,0.806-0.201c0.279-0.068,0.557-0.146,0.829-0.225
		c0.224-0.062,0.449-0.131,0.673-0.201c0.022-0.007,0.047-0.016,0.069-0.023v-1.139l0.464-0.054c0,0,0.188,0.17,0.412,0.481
		C49.653,74.714,50.201,75.566,50.712,76.75z"/>
	<ellipse fill="#003F5E" cx="38.073" cy="60.167" rx="24.2" ry="16.334"/>
	<path fill="#454C53" d="M38.625,74.262c-7.343,0-14.545-1.863-20.93-5.302c4.301,4.526,11.819,7.527,20.38,7.527
		c7.803,0,14.743-2.495,19.165-6.367C51.454,72.816,45.095,74.262,38.625,74.262z"/>
	<g>
		<circle fill="#003F5E" cx="54.156" cy="45.937" r="8.11"/>
		<path fill="#FFFFFF" d="M48.714,44.93c-0.558,3.005,1.429,5.893,4.435,6.449c3.009,0.556,5.895-1.431,6.45-4.437
			c0.555-3.007-1.432-5.893-4.438-6.449S49.27,41.925,48.714,44.93z"/>
	</g>
	<g>
		<circle fill="#003F5E" cx="21.457" cy="45.937" r="8.109"/>
		<circle fill="#FFFFFF" cx="21.457" cy="45.937" r="5.535"/>
		<path fill="#454C53" d="M22.052,49.145c-1.773,0.326-3.477-0.843-3.802-2.616c-0.333-1.774,0.836-3.477,2.609-3.802
			c0.218-0.04,0.434-0.055,0.643-0.055c-0.031,0.116-0.046,0.241-0.046,0.373c0,0.828,0.673,1.494,1.501,1.494
			c0.458,0,0.86-0.201,1.138-0.519c0.279,0.379,0.473,0.829,0.566,1.324C24.993,47.117,23.817,48.812,22.052,49.145z"/>
		<path fill="#454C53" d="M54.753,49.145c-1.774,0.326-3.478-0.843-3.803-2.616c-0.332-1.774,0.836-3.477,2.608-3.802
			c0.218-0.04,0.435-0.055,0.643-0.055c-0.029,0.116-0.046,0.241-0.046,0.373c0,0.828,0.674,1.494,1.503,1.494
			c0.456,0,0.858-0.201,1.136-0.519c0.281,0.379,0.475,0.829,0.566,1.324C57.695,47.117,56.517,48.812,54.753,49.145z"/>
	</g>
	<path fill="none" stroke="#54B9C6" stroke-width="2" stroke-linecap="round" stroke-miterlimit="10" d="M55.312,58.493
		c0,5.466-7.718,9.897-17.239,9.897c-9.521,0-17.237-4.432-17.237-9.897"/>
	<path fill="#06D8E7" d="M39.632,43.874v5.993c0,1.625-0.967,2.95-2.168,2.95c-1.184,0-2.16-1.324-2.16-2.95v-5.923
		c0.906-0.07,1.835-0.109,2.771-0.109C38.602,43.835,39.122,43.844,39.632,43.874z"/>
	<path fill="#06D8E7" d="M46.043,44.749v8.657c0,1.138-0.704,2.052-1.557,2.052c-0.858,0-1.555-0.914-1.555-2.052v-9.237
		C43.992,44.308,45.038,44.502,46.043,44.749z"/>
	<path fill="#06D8E7" d="M32.68,44.246v9.16c0,1.138-0.705,2.052-1.556,2.052c-0.86,0-1.557-0.914-1.557-2.052v-8.533
		C30.574,44.617,31.612,44.408,32.68,44.246z"/>
	<path fill="#06D8E7" d="M60.506,66.297c-0.519,0.875-1.152,1.712-1.896,2.501l-1.881-1.881c-0.613-0.612-0.603-1.595,0-2.199
		c0.604-0.613,1.596-0.613,2.199,0L60.506,66.297z"/>
	<path fill="#06D8E7" d="M62.273,60.164c0,0.326-0.016,0.644-0.047,0.961h-3.144c-0.457,0-0.867-0.194-1.146-0.511
		c-0.263-0.271-0.411-0.643-0.411-1.045c0-0.813,0.62-1.479,1.417-1.548c0.047-0.008,0.094-0.008,0.14-0.008h2.982
		C62.204,58.717,62.273,59.438,62.273,60.164z"/>
	<path fill="#06D8E7" d="M17.302,59.569c0,0.858-0.696,1.556-1.557,1.556h-1.827c-0.031-0.317-0.045-0.635-0.045-0.961
		c0-0.727,0.068-1.447,0.208-2.151h1.665C16.606,58.013,17.302,58.717,17.302,59.569z"/>
	<path fill="#06D8E7" d="M19.207,66.917l-1.765,1.765c-0.735-0.797-1.363-1.648-1.882-2.531l1.44-1.44
		c0.612-0.605,1.603-0.605,2.206,0C19.812,65.323,19.812,66.305,19.207,66.917z"/>
	<path fill="#06D8E7" d="M51.912,81.248l-2.237,2.237c-0.473,0.474-1.24,0.474-1.712,0c-0.471-0.472-0.463-1.237,0.009-1.703
		l3.36-3.36C51.588,79.258,51.796,80.203,51.912,81.248z"/>
	<path fill="#06D8E7" d="M51.982,84.585l-0.782,0.781c-0.277,0.279-0.734,0.279-1.013,0c-0.279-0.277-0.279-0.734,0-1.014
		l1.834-1.834C52.052,83.168,52.043,83.859,51.982,84.585z"/>
	<path fill="#06D8E7" d="M32.587,81.04c-0.836,0.836-2.215,0.836-3.059-0.01l-4.165-4.164c0.425-1.006,0.882-1.789,1.238-2.315
		c0.31,0.115,0.627,0.225,0.945,0.325c0.45,0.147,0.906,0.286,1.37,0.41c0.023,0.009,0.055,0.023,0.085,0.023
		c0.349,0.101,0.712,0.193,1.076,0.278c0.054,0.017,0.109,0.023,0.163,0.04l2.346,2.346C33.431,78.817,33.438,80.197,32.587,81.04z"
		/>
	<path fill="#06D8E7" d="M27.996,83.486c-0.473,0.474-1.24,0.474-1.712,0l-2.09-2.091c0.108-1.052,0.31-2.004,0.557-2.848
		l3.237,3.235C28.46,82.248,28.467,83.014,27.996,83.486z"/>
	<path fill="#06D8E7" d="M25.774,85.366c-0.279,0.279-0.736,0.279-1.023,0l-0.581-0.58v-0.008c-0.069-0.728-0.085-1.424-0.062-2.089
		l1.665,1.663C26.052,84.632,26.052,85.089,25.774,85.366z"/>
	<path fill="#05A2AD" d="M24.094,81.35c-0.023,0.069-0.039,0.139-0.055,0.207c-0.007,0.032-0.015,0.063-0.024,0.095l-1.354,1.354
		c-0.488,0.488-1.277,0.496-1.765,0c-0.48-0.48-0.48-1.277,0.007-1.765l1.355-1.354C22.939,80.343,23.567,80.862,24.094,81.35z"/>
	<path fill="#05A2AD" d="M21.445,79.374l-0.983,0.976c-0.263,0.271-0.705,0.279-0.976,0.008c-0.279-0.271-0.279-0.711,0-0.99
		l0.604-0.604C20.555,78.926,21.011,79.135,21.445,79.374z"/>
	<path fill="#05A2AD" d="M19.47,78.585l-0.487,0.488c-0.162,0.161-0.426,0.161-0.589,0c-0.162-0.163-0.162-0.427,0-0.59l0.024-0.022
		C18.766,78.469,19.123,78.507,19.47,78.585z"/>
	<path fill="#05A2AD" d="M55.536,83.309c-0.674,0.395-1.55,0.153-1.938-0.519l-0.99-1.72c0.666-0.581,1.457-1.193,2.31-1.673
		l1.136,1.976C56.442,82.046,56.21,82.921,55.536,83.309z"/>
	<path fill="#05A2AD" d="M57.867,80.823c-0.379,0.217-0.868,0.077-1.077-0.295l-0.92-1.587c0.512-0.217,1.028-0.371,1.563-0.441
		h0.008l0.711,1.238C58.369,80.118,58.239,80.606,57.867,80.823z"/>
	<path fill="#05A2AD" d="M59.432,79.732c-0.226,0.131-0.512,0.053-0.644-0.172l-0.628-1.091c0.41,0.007,0.813,0.078,1.217,0.217
		l0.224,0.402C59.732,79.32,59.656,79.608,59.432,79.732z"/>
</g>
</svg>
