<?xml version="1.0" encoding="utf-8"?>
<!-- Generator: Adobe Illustrator 16.0.0, SVG Export Plug-In . SVG Version: 6.00 Build 0)  -->
<!DOCTYPE svg PUBLIC "-//W3C//DTD SVG 1.1//EN" "http://www.w3.org/Graphics/SVG/1.1/DTD/svg11.dtd">
<svg version="1.1" id="Layer_1" xmlns="http://www.w3.org/2000/svg" xmlns:xlink="http://www.w3.org/1999/xlink" x="0px" y="0px"
	 width="60.625px" height="53.5px" viewBox="29.583 41.884 60.625 53.5" enable-background="new 29.583 41.884 60.625 53.5"
	 xml:space="preserve">
<g>
	<g>
		<ellipse fill="#62883B" cx="60.042" cy="64.606" rx="19.195" ry="12.956"/>
		<path fill="#454C53" d="M60.478,75.797c-5.825,0-11.538-1.476-16.602-4.202c3.412,3.589,9.375,5.968,16.167,5.968
			c6.188,0,11.694-1.977,15.203-5.051C70.654,74.651,65.61,75.797,60.478,75.797z"/>
		<g>
			<circle fill="#62883B" cx="72.798" cy="53.319" r="6.433"/>
			<circle fill="#FFFFFF" cx="72.798" cy="53.319" r="4.39"/>
		</g>
		<g>
			<circle fill="#62883B" cx="46.861" cy="53.319" r="6.433"/>
			<circle fill="#FFFFFF" cx="46.861" cy="53.319" r="4.39"/>
			<path fill="#454C53" d="M47.332,55.865c-1.406,0.259-2.757-0.67-3.015-2.075c-0.263-1.407,0.664-2.758,2.069-3.017
				c0.173-0.031,0.346-0.043,0.512-0.043c-0.025,0.093-0.038,0.191-0.038,0.295c0,0.657,0.534,1.185,1.19,1.185
				c0.363,0,0.682-0.16,0.905-0.413c0.219,0.302,0.375,0.657,0.448,1.051C49.667,54.256,48.732,55.601,47.332,55.865z"/>
			<path fill="#454C53" d="M73.271,55.865c-1.408,0.259-2.757-0.67-3.017-2.075c-0.264-1.407,0.664-2.758,2.071-3.017
				c0.174-0.031,0.346-0.043,0.511-0.043c-0.023,0.093-0.038,0.191-0.038,0.295c0,0.657,0.535,1.185,1.192,1.185
				c0.363,0,0.679-0.16,0.903-0.413c0.222,0.302,0.375,0.657,0.447,1.051C75.604,54.256,74.669,55.601,73.271,55.865z"/>
		</g>
		<path fill="#84A93F" d="M73.532,59.834c1.692,0,3.064,1.373,3.064,3.067c0,1.692-1.372,3.065-3.064,3.065
			c-1.695,0-3.067-1.373-3.067-3.065C70.464,61.206,71.836,59.834,73.532,59.834z"/>
		<circle fill="#84A93F" cx="47.13" cy="62.9" r="3.066"/>
		<path fill="none" stroke="#31441E" stroke-miterlimit="10" d="M73.714,63.281c0,4.333-6.12,7.851-13.672,7.851
			c-7.553,0-13.675-3.517-13.675-7.851"/>
	</g>
</g>
<text transform="matrix(1 0 0 1 36.0278 88.134)" fill="#31441E" font-family="'Montserrat-Hairline'" font-size="12">frogger</text>
<text transform="matrix(0.7 0 0 0.7 66.7368 92.0686)" fill="#454C53" font-family="'Montserrat-Regular'" font-size="4.9845">revisited</text>
</svg>
