<?xml version="1.0" encoding="utf-8"?>
<!-- Generator: Adobe Illustrator 16.0.0, SVG Export Plug-In . SVG Version: 6.00 Build 0)  -->
<!DOCTYPE svg PUBLIC "-//W3C//DTD SVG 1.1//EN" "http://www.w3.org/Graphics/SVG/1.1/DTD/svg11.dtd">
<svg version="1.1" id="Layer_1" xmlns="http://www.w3.org/2000/svg" xmlns:xlink="http://www.w3.org/1999/xlink" x="0px" y="0px"
	 width="75.76px" height="128.268px" viewBox="0 0 75.76 128.268" enable-background="new 0 0 75.76 128.268" xml:space="preserve">
<ellipse opacity="0.2" fill="#414042" cx="38.356" cy="93.38" rx="23.896" ry="8.754"/>
<g opacity="0.3">
	<path fill="#414042" d="M26.454,85.052c0,0-5.639-7.177-9.994-3.845c-4.357,3.332,4.869,10.508,4.869,10.508
		s-4.1,1.538-3.332,3.075c0.77,1.538,9.039-0.48,9.039-0.48L26.454,85.052z"/>
	<path fill="#414042" d="M51.058,85.052c0,0,5.641-7.177,9.996-3.845s-4.869,10.508-4.869,10.508s4.102,1.538,3.332,3.075
		c-0.77,1.538-9.037-0.48-9.037-0.48L51.058,85.052z"/>
	<path fill="#414042" d="M29.851,92.386c0,0,10.221,6.36,17.652-0.304L43.624,80.5H32.478L29.851,92.386z"/>
	<path fill="#414042" d="M50.216,94.309c4.787-9.793,0.875-16.422-0.412-18.198c-0.229-0.314-0.406-0.479-0.406-0.479L38.57,76.977
		l-10.764-1.345c0,0-0.146,0.163-0.375,0.479c-1.285,1.776-5.184,8.405-0.395,18.198c0,0-3.844,0.24-3.332,1.778
		c0.514,1.538,6.152,1.529,7.434,0.762c1.281-0.77-2.178-14.874,7.432-14.874c9.611,0,6.213,14.104,7.494,14.874
		c1.281,0.769,6.98,0.776,7.492-0.762C54.07,94.549,50.216,94.309,50.216,94.309z"/>
	<ellipse fill="#414042" cx="38.63" cy="62.881" rx="24.092" ry="16.261"/>
	<path fill="#414042" d="M39.177,76.927c-7.311,0-14.48-1.854-20.836-5.276c4.281,4.506,11.768,7.492,20.289,7.492
		c7.77,0,14.678-2.483,19.082-6.339C51.948,75.488,45.618,76.927,39.177,76.927z"/>
	<g>
		<circle fill="#414042" cx="54.642" cy="48.714" r="8.073"/>
		<circle fill="#414042" cx="54.642" cy="48.714" r="5.51"/>
	</g>
	<g>
		<circle fill="#414042" cx="22.087" cy="48.714" r="8.074"/>
		<circle fill="#414042" cx="22.087" cy="48.714" r="5.51"/>
		<path fill="#414042" d="M22.679,51.908c-1.766,0.325-3.461-0.84-3.785-2.604c-0.33-1.766,0.834-3.461,2.598-3.785
			c0.217-0.04,0.434-0.054,0.641-0.054c-0.031,0.116-0.045,0.239-0.045,0.37c0,0.824,0.67,1.487,1.494,1.487
			c0.455,0,0.855-0.2,1.133-0.517c0.277,0.378,0.471,0.825,0.563,1.318C25.609,49.89,24.437,51.577,22.679,51.908z"/>
		<path fill="#414042" d="M55.234,51.908c-1.766,0.325-3.461-0.84-3.785-2.604c-0.332-1.766,0.832-3.461,2.6-3.785
			c0.215-0.04,0.432-0.054,0.639-0.054c-0.031,0.116-0.045,0.239-0.045,0.37c0,0.824,0.67,1.487,1.494,1.487
			c0.455,0,0.855-0.2,1.133-0.517c0.279,0.378,0.471,0.825,0.563,1.318C58.163,49.89,56.991,51.577,55.234,51.908z"/>
	</g>
	<circle fill="#414042" cx="55.56" cy="60.739" r="3.848"/>
	<circle fill="#414042" cx="22.425" cy="60.739" r="3.848"/>
</g>
<g>
	<path fill="#BD4B48" d="M26.69,92.708c0,0-8.326,2.026-9.104,0.481c-0.776-1.553,3.356-3.101,3.356-3.101s-0.381-0.295-0.955-0.791
		c0.256-0.086,0.482-0.226,0.683-0.418c0.854-0.817,0.777-2.285-0.171-3.264c-0.948-0.987-2.409-1.127-3.263-0.304
		c-0.201,0.194-0.349,0.42-0.45,0.676c-1.748-2.213-2.928-4.823-0.753-6.485c4.397-3.362,10.074,3.868,10.074,3.868L26.69,92.708z"
		/>
	<path fill="#BD4B48" d="M59.421,93.19c-0.227,0.457-1.119,0.597-2.26,0.574c0.192-0.638-0.631-1.546-1.889-2.066
		c-1.297-0.544-2.563-0.466-2.836,0.171c-0.171,0.403,0.117,0.948,0.701,1.429c-1.57-0.288-2.822-0.589-2.822-0.589l0.584-9.337
		c0,0,0.894-1.135,2.245-2.299c0,0.071,0.022,0.132,0.047,0.187c0.348,0.846,2.036,0.955,3.774,0.24
		c1.678-0.691,2.788-1.895,2.539-2.734c0.498,0.132,0.995,0.374,1.469,0.738c2.532,1.941,0.505,5.173-1.661,7.558
		c0.217-0.971,0.061-1.794-0.435-2.003c-0.63-0.266-1.587,0.573-2.13,1.87c-0.467,1.111-0.474,2.199-0.069,2.657
		c-0.381,0.317-0.614,0.504-0.614,0.504S60.196,91.637,59.421,93.19z"/>
	<path fill="#FD8380" d="M29.53,90.689c0,0,10.3,6.37,17.789-0.345l-3.906-11.71H32.177L29.53,90.689z"/>
	<path fill="#FC6460" d="M53.417,94.492c-0.381,1.136-3.543,1.439-5.719,1.213c0.118-0.193,0.188-0.412,0.188-0.645
		c0-0.815-0.831-1.477-1.864-1.477c-0.17,0-0.341,0.017-0.496,0.063c-0.133-3.897,0.699-13.375-7.21-13.375
		c-4.316,0-6.018,2.819-6.686,6.02c-0.31-0.194-0.684-0.311-1.087-0.311c-1.072,0-1.949,0.814-1.949,1.834
		c0,1.009,0.877,1.832,1.949,1.832c0.249,0,0.481-0.046,0.699-0.123c-0.155,2.889,0.108,5.42-0.413,5.739
		c-1.295,0.776-6.975,0.785-7.496-0.771c-0.512-1.545,3.356-1.784,3.356-1.784c-4.824-9.872-0.894-16.553,0.403-18.348
		c0.226-0.312,0.373-0.479,0.373-0.479l10.85,1.358l10.906-1.358c0,0,0.187,0.168,0.411,0.479c1.3,1.795,5.244,8.476,0.418,18.348
		C50.051,92.708,53.929,92.948,53.417,94.492z"/>
	<path fill="#FC6460" d="M62.652,61.032c0,9.05-10.866,16.39-24.272,16.39c-13.414,0-24.28-7.34-24.28-16.39
		c0-7.868,8.226-14.447,19.193-16.015c-0.833,1.553-0.77,3.293,0.271,4.334c1.376,1.375,3.938,1.049,5.716-0.73
		c1.149-1.15,1.692-2.618,1.569-3.884C53.092,45.569,62.652,52.543,62.652,61.032z"/>
	<path fill="#454C53" d="M38.928,75.188c-7.366,0-14.591-1.869-20.995-5.317c4.314,4.539,11.856,7.551,20.443,7.551
		c7.828,0,14.79-2.503,19.228-6.389C51.798,73.738,45.419,75.188,38.928,75.188z"/>
	<g>
		<circle fill="#FC6460" cx="54.51" cy="46.76" r="8.136"/>
		<path fill="#FFFFFF" d="M49.05,45.751c-0.559,3.015,1.434,5.911,4.449,6.468c3.019,0.558,5.911-1.435,6.47-4.45
			c0.558-3.016-1.434-5.912-4.449-6.469C52.503,40.742,49.606,42.735,49.05,45.751z"/>
	</g>
	<g>
		<circle fill="#FC6460" cx="21.707" cy="46.76" r="8.135"/>
		<circle fill="#FFFFFF" cx="21.707" cy="46.76" r="5.552"/>
		<path fill="#211E36" d="M22.304,49.978c-1.778,0.327-3.488-0.847-3.814-2.625c-0.334-1.779,0.839-3.487,2.619-3.813
			c0.216-0.04,0.435-0.055,0.645-0.055c-0.031,0.117-0.046,0.242-0.046,0.374c0,0.83,0.675,1.499,1.504,1.499
			c0.459,0,0.864-0.202,1.143-0.52c0.281,0.38,0.475,0.831,0.568,1.328C25.256,47.944,24.075,49.645,22.304,49.978z"/>
		<path fill="#211E36" d="M55.108,49.978c-1.778,0.327-3.488-0.847-3.813-2.625c-0.336-1.779,0.837-3.487,2.616-3.813
			c0.218-0.04,0.435-0.055,0.644-0.055c-0.029,0.117-0.045,0.242-0.045,0.374c0,0.83,0.675,1.499,1.506,1.499
			c0.459,0,0.864-0.202,1.14-0.52c0.281,0.38,0.478,0.831,0.568,1.328C58.058,47.944,56.88,49.645,55.108,49.978z"/>
	</g>
	<path fill="#211E36" d="M39.28,48.621c-1.779,1.779-4.34,2.104-5.716,0.73c-1.041-1.041-1.104-2.781-0.271-4.334
		c1.639-0.241,3.34-0.366,5.087-0.366c0.831,0,1.653,0.032,2.47,0.086C40.972,46.004,40.429,47.471,39.28,48.621z"/>
	
		<ellipse transform="matrix(0.707 -0.7072 0.7072 0.707 -25.9951 47.8568)" fill="#211E36" cx="44.761" cy="55.302" rx="2.912" ry="3.411"/>
	<path fill="none" stroke="#211E36" stroke-width="2" stroke-linecap="round" stroke-miterlimit="10" d="M55.631,59.226
		c0.041,5.481-7.666,9.986-17.218,10.058c-9.55,0.072-17.325-4.314-17.366-9.797"/>
	
		<ellipse transform="matrix(0.7071 -0.7071 0.7071 0.7071 -41.2123 32.2346)" fill="#211E36" cx="18.304" cy="65.865" rx="2.463" ry="3.877"/>
	<ellipse fill="#211E36" cx="60.217" cy="61.205" rx="2.435" ry="3.878"/>
	
		<ellipse transform="matrix(0.848 0.53 -0.53 0.848 34.3047 -6.5639)" fill="#211E36" cx="28.595" cy="56.519" rx="2.658" ry="3.074"/>
	<path fill="#211E36" d="M28.595,80.624c0,2.14-0.899,3.875-2.01,3.875c-1.108,0-2.007-1.735-2.007-3.875
		c0-2.144,0.899-3.878,2.007-3.878C27.697,76.746,28.595,78.481,28.595,80.624z"/>
	<ellipse fill="#211E36" cx="49.375" cy="82.954" rx="3.002" ry="3.875"/>
	<path fill="#211E36" d="M31.63,86.291c-0.226,1.063-0.335,2.176-0.388,3.232c-0.218,0.077-0.45,0.123-0.699,0.123
		c-1.072,0-1.949-0.823-1.949-1.832c0-1.02,0.877-1.834,1.949-1.834C30.946,85.981,31.32,86.097,31.63,86.291z"/>
	<path fill="#211E36" d="M47.886,95.061c0,0.232-0.069,0.451-0.188,0.645c-0.808-0.077-1.482-0.232-1.832-0.442
		c-0.232-0.14-0.312-0.738-0.341-1.616c0.155-0.046,0.326-0.063,0.496-0.063C47.055,93.584,47.886,94.245,47.886,95.061z"/>
	
		<ellipse transform="matrix(0.3847 -0.923 0.923 0.3847 -61.5429 68.5121)" fill="#211E36" cx="20.618" cy="80.418" rx="1.246" ry="2.548"/>
	<path fill="#211E36" d="M20.67,88.88c-0.201,0.192-0.427,0.332-0.683,0.418c-0.855-0.755-2.129-1.957-3.201-3.31
		c0.101-0.256,0.249-0.481,0.45-0.676c0.854-0.823,2.315-0.684,3.263,0.304C21.447,86.595,21.524,88.063,20.67,88.88z"/>
	<path fill="#211E36" d="M56.966,81.499c-1.738,0.715-3.427,0.605-3.774-0.24c-0.024-0.055-0.047-0.115-0.047-0.187
		c1.693-1.452,4.094-2.945,6.36-2.308C59.754,79.605,58.644,80.808,56.966,81.499z"/>
	<path fill="#211E36" d="M59.313,87.061c-0.995,1.087-2.005,1.996-2.634,2.524c-0.404-0.458-0.397-1.546,0.069-2.657
		c0.543-1.297,1.5-2.136,2.13-1.87C59.373,85.267,59.53,86.09,59.313,87.061z"/>
	<path fill="#211E36" d="M57.161,93.764c-1.219-0.024-2.735-0.241-4.023-0.467c-0.584-0.48-0.872-1.025-0.701-1.429
		c0.272-0.637,1.539-0.715,2.836-0.171C56.531,92.218,57.354,93.126,57.161,93.764z"/>
</g>
</svg>
