<?xml version="1.0" encoding="utf-8"?>
<!-- Generator: Adobe Illustrator 16.0.0, SVG Export Plug-In . SVG Version: 6.00 Build 0)  -->
<!DOCTYPE svg PUBLIC "-//W3C//DTD SVG 1.1//EN" "http://www.w3.org/Graphics/SVG/1.1/DTD/svg11.dtd">
<svg version="1.1" id="Layer_1" xmlns="http://www.w3.org/2000/svg" xmlns:xlink="http://www.w3.org/1999/xlink" x="0px" y="0px"
	 width="100px" height="100px" viewBox="-10.119 14.134 100 100" enable-background="new -10.119 14.134 100 100"
	 xml:space="preserve">
<g>
	<g>
		<path fill="#FC6460" d="M76.496,51.683c-7.491-8.793-20.417-8.913-28.282-0.505l-0.354,0.377c-3.488,3.729-9.141,3.729-12.63,0
			l-0.352-0.377c-7.867-8.408-20.792-8.288-28.283,0.505c-6.938,8.144-6.726,20.764,0.637,28.635l6.863,7.335l17.266,18.461
			c5.625,6.013,14.745,6.013,20.371,0l17.265-18.461l6.864-7.335C83.223,72.448,83.436,59.827,76.496,51.683z"/>
	</g>
	<path opacity="0.3" fill="#231F20" d="M41.546,54.351v56.274c-3.685,0-7.374-1.505-10.187-4.509L14.094,87.654l-6.861-7.335
		c-7.364-7.872-7.575-20.493-0.638-28.635c7.492-8.793,20.417-8.916,28.284-0.505l0.352,0.377
		C36.975,53.418,39.264,54.351,41.546,54.351z"/>
</g>
</svg>
