<?xml version="1.0" encoding="utf-8"?>
<!-- Generator: Adobe Illustrator 16.0.0, SVG Export Plug-In . SVG Version: 6.00 Build 0)  -->
<!DOCTYPE svg PUBLIC "-//W3C//DTD SVG 1.1//EN" "http://www.w3.org/Graphics/SVG/1.1/DTD/svg11.dtd">
<svg version="1.1" id="Layer_1" xmlns="http://www.w3.org/2000/svg" xmlns:xlink="http://www.w3.org/1999/xlink" x="0px" y="0px"
	 width="111.667px" height="128.268px" viewBox="-15.953 0 111.667 128.268" enable-background="new -15.953 0 111.667 128.268"
	 xml:space="preserve">
<g>
	<g>
		<rect x="-13.354" y="97.182" fill="#F5EFDB" width="107.268" height="4.489"/>
		<g>
			<g>
				<rect x="-7.251" y="47.276" fill="#F5EFDB" width="8.978" height="74.48"/>
				<rect x="-7.251" y="74.756" opacity="0.2" fill="#3C2A34" width="8.978" height="4.373"/>
				<rect x="-7.251" y="101.671" opacity="0.2" fill="#3C2A34" width="8.978" height="1.816"/>
			</g>
			<g>
				<rect x="78.832" y="47.276" fill="#F5EFDB" width="8.979" height="74.48"/>
				<rect x="78.832" y="74.756" opacity="0.2" fill="#3C2A34" width="8.979" height="4.373"/>
				<rect x="78.832" y="101.671" opacity="0.2" fill="#3C2A34" width="8.979" height="1.816"/>
			</g>
		</g>
		<g>
			<rect x="-11.714" y="57.113" fill="#FBFFF0" width="103.989" height="17.644"/>
			<g>
				<polygon fill="#FC6460" points="-10.343,74.756 -0.495,74.756 7.449,57.113 -2.398,57.113 				"/>
				<polygon fill="#FC6460" points="27.122,57.113 17.277,57.113 9.331,74.756 19.178,74.756 				"/>
				<polygon fill="#FC6460" points="47.734,57.113 37.886,57.113 29.941,74.756 39.789,74.756 				"/>
				<polygon fill="#FC6460" points="67.406,57.113 57.562,57.113 49.615,74.756 59.461,74.756 				"/>
				<polygon fill="#FC6460" points="87.637,57.113 77.791,57.113 69.846,74.756 79.693,74.756 				"/>
			</g>
			<rect x="-11.714" y="67.966" opacity="0.1" fill="#3C2A34" width="103.989" height="6.79"/>
		</g>
	</g>
</g>
<g>
	<linearGradient id="SVGID_1_" gradientUnits="userSpaceOnUse" x1="11.0623" y1="74.8557" x2="66.5325" y2="74.8557">
		<stop  offset="0" style="stop-color:#C63C32"/>
		<stop  offset="0.5023" style="stop-color:#DC4F37"/>
		<stop  offset="1" style="stop-color:#C63C32"/>
	</linearGradient>
	<circle fill="url(#SVGID_1_)" cx="38.797" cy="74.855" r="27.735"/>
	<circle fill="#FFFFFF" cx="38.797" cy="74.855" r="27.735"/>
	<g>
		<path fill="#231F20" d="M32.154,84.204c0,0-3.096-3.941-5.49-2.112c-2.393,1.83,2.675,5.773,2.675,5.773s-2.252,0.843-1.83,1.688
			c0.422,0.845,4.963-0.264,4.963-0.264L32.154,84.204z"/>
		<path fill="#231F20" d="M45.67,84.204c0,0,3.097-3.941,5.489-2.112c2.395,1.83-2.674,5.773-2.674,5.773s2.253,0.843,1.83,1.688
			c-0.423,0.845-4.965-0.264-4.965-0.264L45.67,84.204z"/>
		<path fill="#231F20" d="M34.021,88.198c0,0,5.613,3.478,9.696-0.185l-2.13-6.379h-6.124L34.021,88.198z"/>
		<path fill="#231F20" d="M45.206,89.29c2.629-5.379,0.479-9.021-0.227-9.997c-0.125-0.173-0.223-0.262-0.223-0.262L38.81,79.77
			l-5.913-0.738c0,0-0.08,0.089-0.206,0.262c-0.705,0.976-2.847,4.618-0.218,9.997c0,0-2.11,0.132-1.829,0.977
			c0.281,0.844,3.379,0.84,4.083,0.418c0.703-0.423-1.196-8.17,4.083-8.17c5.278,0,3.41,7.747,4.114,8.17
			c0.705,0.422,3.834,0.426,4.116-0.418C47.323,89.422,45.206,89.29,45.206,89.29z"/>
		<g>
			<ellipse fill="#231F20" cx="38.842" cy="72.027" rx="13.233" ry="8.932"/>
			<path fill="#231F20" stroke="#FFFFFF" stroke-width="2" stroke-linecap="round" stroke-miterlimit="10" d="M48.27,71.113
				c0,2.988-4.222,5.411-9.428,5.411c-5.207,0-9.426-2.423-9.426-5.411"/>
			<path fill="#231F20" d="M40.716,79.005c-1.704,0.082-3.427-0.215-5.088-0.563c-0.61-0.127-1.21-0.264-1.79-0.5
				c-0.85-0.347-2.032-0.728-2.89-1.302c-2.029-1.358-2.328-1.813-3.774-3.753c-0.561-0.753-0.981-1.732-1.263-2.759
				c-0.197,0.612-0.302,1.247-0.302,1.897c0,4.933,5.925,8.932,13.233,8.932c5.428,0,10.09-2.206,12.131-5.362
				C47.896,77.57,44.373,78.829,40.716,79.005z"/>
			<g>
				<circle fill="#231F20" cx="32.154" cy="63.862" r="4.435"/>
				<circle fill="#FFFFFF" cx="32.155" cy="63.862" r="3.027"/>
				<path fill="#231F20" d="M32.366,63.513c0.712,0,1.207,0.334,1.489,0.799c0.038-0.144,0.06-0.294,0.06-0.451
					c0-0.972-0.788-1.759-1.761-1.759c-0.97,0-1.759,0.787-1.759,1.759c0,0.347,0.101,0.669,0.274,0.942
					C30.858,64.1,31.423,63.513,32.366,63.513z"/>
			</g>
			<g>
				<circle fill="#231F20" cx="45.528" cy="63.862" r="4.434"/>
				<circle fill="#FFFFFF" cx="45.53" cy="63.862" r="3.026"/>
				<path fill="#231F20" d="M45.318,63.513c-0.711,0-1.206,0.334-1.488,0.799c-0.037-0.144-0.061-0.294-0.061-0.451
					c0-0.972,0.788-1.759,1.759-1.759c0.974,0,1.762,0.787,1.762,1.759c0,0.347-0.103,0.669-0.275,0.942
					C46.827,64.1,46.262,63.513,45.318,63.513z"/>
			</g>
		</g>
	</g>
	<g>
		<path fill="none" d="M54.334,62.719c-3.602-4.246-8.974-6.944-14.979-6.944c-10.845,0-19.637,8.792-19.637,19.638
			c0,1.938,0.284,3.81,0.808,5.578L54.334,62.719z"/>
		<path fill="none" d="M24.376,88.107c3.603,4.247,8.975,6.945,14.979,6.945c10.846,0,19.639-8.792,19.639-19.639
			c0-1.938-0.284-3.809-0.807-5.578L24.376,88.107z"/>
		<path fill="#C63C32" d="M39.355,47.679c-15.316,0-27.734,12.417-27.734,27.734c0,15.318,12.417,27.735,27.734,27.735
			c15.319,0,27.736-12.417,27.736-27.735C67.091,60.095,54.674,47.679,39.355,47.679z M39.355,55.775
			c6.006,0,11.378,2.698,14.979,6.944L20.526,80.991c-0.524-1.769-0.808-3.64-0.808-5.578C19.718,64.568,28.51,55.775,39.355,55.775
			z M39.355,95.052c-6.004,0-11.376-2.698-14.979-6.945l33.811-18.271c0.522,1.77,0.807,3.64,0.807,5.578
			C58.993,86.26,50.2,95.052,39.355,95.052z"/>
	</g>
	<g>
		<path fill="none" d="M53.777,62.161c-3.603-4.247-8.974-6.945-14.98-6.945c-10.844,0-19.637,8.792-19.637,19.638
			c0,1.938,0.285,3.81,0.808,5.578L53.777,62.161z"/>
		<path fill="none" d="M23.818,87.548c3.603,4.248,8.974,6.946,14.979,6.946c10.846,0,19.641-8.793,19.641-19.64
			c0-1.938-0.286-3.809-0.81-5.578L23.818,87.548z"/>
		<path fill="#FC6460" d="M38.796,47.12c-15.316,0-27.734,12.418-27.734,27.735c0,15.318,12.417,27.736,27.734,27.736
			c15.319,0,27.736-12.418,27.736-27.736C66.532,59.538,54.115,47.12,38.796,47.12z M38.796,55.217
			c6.007,0,11.378,2.698,14.98,6.945l-33.81,18.271c-0.523-1.769-0.808-3.641-0.808-5.578
			C19.159,64.009,27.952,55.217,38.796,55.217z M38.796,94.494c-6.004,0-11.375-2.698-14.979-6.946l33.81-18.271
			c0.523,1.77,0.81,3.64,0.81,5.578C58.437,85.701,49.642,94.494,38.796,94.494z"/>
	</g>
</g>
</svg>
