<?xml version="1.0" encoding="utf-8"?>
<!-- Generator: Adobe Illustrator 16.0.0, SVG Export Plug-In . SVG Version: 6.00 Build 0)  -->
<!DOCTYPE svg PUBLIC "-//W3C//DTD SVG 1.1//EN" "http://www.w3.org/Graphics/SVG/1.1/DTD/svg11.dtd">
<svg version="1.1" id="Layer_1" xmlns="http://www.w3.org/2000/svg" xmlns:xlink="http://www.w3.org/1999/xlink" x="0px" y="0px"
	 width="101.125px" height="151.616px" viewBox="0 0 101.125 151.616" enable-background="new 0 0 101.125 151.616"
	 xml:space="preserve">
<g>
	<defs>
		<rect id="SVGID_1_" x="0.125" y="47.512" width="100.875" height="105.209"/>
	</defs>
	<defs>
		<rect id="SVGID_2_" x="0.125" y="47.512" width="100.875" height="105.209"/>
	</defs>
	<defs>
		<rect id="SVGID_3_" x="0.125" y="47.512" width="100.875" height="105.209"/>
	</defs>
	<defs>
		<rect id="SVGID_4_" x="0.125" y="47.512" width="100.875" height="105.209"/>
	</defs>
	<defs>
		<rect id="SVGID_5_" x="0.125" y="47.512" width="100.875" height="105.209"/>
	</defs>
	<defs>
		<rect id="SVGID_6_" x="0.125" y="47.512" width="100.875" height="105.209"/>
	</defs>
	<defs>
		<rect id="SVGID_7_" x="0.125" y="47.512" width="100.875" height="105.209"/>
	</defs>
	<defs>
		<rect id="SVGID_8_" x="0.125" y="47.512" width="100.875" height="105.209"/>
	</defs>
	<clipPath id="SVGID_9_">
		<use xlink:href="#SVGID_1_"  overflow="visible"/>
	</clipPath>
	<clipPath id="SVGID_10_" clip-path="url(#SVGID_9_)">
		<use xlink:href="#SVGID_2_"  overflow="visible"/>
	</clipPath>
	<clipPath id="SVGID_11_" clip-path="url(#SVGID_10_)">
		<use xlink:href="#SVGID_3_"  overflow="visible"/>
	</clipPath>
	<clipPath id="SVGID_12_" clip-path="url(#SVGID_11_)">
		<use xlink:href="#SVGID_4_"  overflow="visible"/>
	</clipPath>
	<clipPath id="SVGID_13_" clip-path="url(#SVGID_12_)">
		<use xlink:href="#SVGID_5_"  overflow="visible"/>
	</clipPath>
	<clipPath id="SVGID_14_" clip-path="url(#SVGID_13_)">
		<use xlink:href="#SVGID_6_"  overflow="visible"/>
	</clipPath>
	<clipPath id="SVGID_15_" clip-path="url(#SVGID_14_)">
		<use xlink:href="#SVGID_7_"  overflow="visible"/>
	</clipPath>
	<clipPath id="SVGID_16_" clip-path="url(#SVGID_15_)">
		<use xlink:href="#SVGID_8_"  overflow="visible"/>
	</clipPath>
	<rect x="0.125" y="47.512" clip-path="url(#SVGID_16_)" fill="#84A93F" width="100.875" height="105.209"/>
	<g clip-path="url(#SVGID_16_)">
		<polygon fill="#62883B" points="57.926,126.848 49.973,151.616 65.876,151.616 		"/>
		<polygon fill="#62883B" points="80.973,113.521 73.021,151.616 88.923,151.616 		"/>
		<polygon fill="#62883B" points="92.677,134.269 84.727,151.616 100.63,151.616 		"/>
		<polygon fill="#62883B" points="70.919,128.18 62.966,151.616 78.87,151.616 		"/>
	</g>
	<g clip-path="url(#SVGID_16_)">
		<polygon fill="#62883B" points="24.375,80.043 20.545,98.22 28.205,98.22 		"/>
		<polygon fill="#62883B" points="35.474,74.354 31.646,98.22 39.306,98.22 		"/>
		<polygon fill="#62883B" points="41.115,85.489 37.285,98.22 44.943,98.22 		"/>
		<polygon fill="#62883B" points="30.632,81.02 26.802,98.22 34.464,98.22 		"/>
	</g>
	<path opacity="0.4" clip-path="url(#SVGID_16_)" fill="#84A93F" enable-background="new    " d="M118.258,100.114
		c0,3.436-2.844,6.223-6.354,6.223H90.104c-3.514,0-6.359-2.788-6.359-6.223c0-3.431,2.846-6.219,6.359-6.219h21.799
		C115.415,93.896,118.258,96.684,118.258,100.114z"/>
	<path opacity="0.4" clip-path="url(#SVGID_16_)" fill="#84A93F" enable-background="new    " d="M88.577,81.693
		c0,3.437-2.838,6.221-6.352,6.221H62.347c-3.509,0-6.353-2.785-6.353-6.221c0-3.43,2.844-6.218,6.353-6.218h19.876
		C85.739,75.476,88.577,78.264,88.577,81.693z"/>
	<g clip-path="url(#SVGID_16_)">
		<path fill="#62883B" d="M73.864,61.483c0,1.068-1.098,1.927-2.451,1.927s-2.453-0.858-2.453-1.927c0-1.069,1.1-1.935,2.453-1.935
			S73.864,60.414,73.864,61.483z"/>
		<path fill="#62883B" d="M78.059,64.986c0,0.601-0.615,1.086-1.381,1.086c-0.758,0-1.377-0.485-1.377-1.086
			c0-0.599,0.619-1.089,1.377-1.089C77.444,63.896,78.059,64.387,78.059,64.986z"/>
		<path fill="#62883B" d="M14.793,122.813c0,1.068-1.097,1.93-2.453,1.93c-1.352,0-2.451-0.86-2.451-1.93
			c0-1.065,1.099-1.933,2.451-1.933C13.697,120.881,14.793,121.748,14.793,122.813z"/>
		<path fill="#62883B" d="M32.598,132.901c0,0.594-0.619,1.092-1.379,1.092c-0.762,0-1.381-0.498-1.381-1.092
			c0-0.6,0.619-1.087,1.381-1.087C31.979,131.814,32.598,132.302,32.598,132.901z"/>
		<path fill="#62883B" d="M59.592,100.12c0,0.6-0.619,1.081-1.379,1.081c-0.764,0-1.381-0.481-1.381-1.081
			c0-0.605,0.617-1.092,1.381-1.092C58.975,99.029,59.592,99.515,59.592,100.12z"/>
		<path fill="#62883B" d="M80.51,116.58c0,1.063-1.097,1.938-2.451,1.938c-1.354,0-2.45-0.874-2.45-1.938
			c0-1.065,1.097-1.93,2.45-1.93C79.414,114.65,80.51,115.513,80.51,116.58z"/>
		<ellipse fill="#62883B" cx="33.668" cy="142.963" rx="2.453" ry="1.929"/>
		<path fill="#62883B" d="M16.047,138.258c0-0.595,0.617-1.092,1.377-1.092c0.762,0,1.381,0.497,1.381,1.092
			c0,0.6-0.619,1.085-1.381,1.085C16.665,139.343,16.047,138.857,16.047,138.258z"/>
		<path fill="#62883B" d="M17.901,58.056c-1.024,0-1.849-1.144-1.849-2.557c0-1.41,0.824-2.558,1.849-2.558
			c1.023,0,1.854,1.147,1.854,2.558C19.756,56.912,18.924,58.056,17.901,58.056z"/>
		<path fill="#62883B" d="M13.389,73.881c-0.57,0-1.049-0.647-1.049-1.44c0-0.794,0.479-1.44,1.049-1.44
			c0.574,0,1.041,0.646,1.041,1.44C14.432,73.233,13.965,73.881,13.389,73.881z"/>
	</g>
	<path opacity="0.4" clip-path="url(#SVGID_16_)" fill="#84A93F" enable-background="new    " d="M85.075,100.114
		c0,3.436-2.846,6.223-6.355,6.223H56.92c-3.512,0-6.357-2.788-6.357-6.223c0-3.431,2.844-6.219,6.357-6.219h21.799
		C82.229,93.896,85.075,96.684,85.075,100.114z"/>
	<path opacity="0.4" clip-path="url(#SVGID_16_)" fill="#84A93F" enable-background="new    " d="M50.563,120.959
		c0,3.437-2.84,6.223-6.354,6.223H24.334c-3.509,0-6.352-2.787-6.352-6.223c0-3.428,2.845-6.217,6.352-6.217h19.875
		C47.723,114.742,50.563,117.531,50.563,120.959z"/>
	<g clip-path="url(#SVGID_16_)">
		<polygon fill="#62883B" points="34.607,151.833 50.51,151.833 42.557,127.065 		"/>
		<polygon fill="#62883B" points="11.56,151.833 27.462,151.833 19.51,113.738 		"/>
		<polygon fill="#62883B" points="-0.147,151.833 15.756,151.833 7.806,134.485 		"/>
		<polygon fill="#62883B" points="21.614,151.833 37.517,151.833 29.564,128.396 		"/>
	</g>
	<g clip-path="url(#SVGID_16_)">
		<polygon fill="#4A662C" points="58.183,139.775 50.23,152.607 66.133,152.607 		"/>
		<polygon fill="#4A662C" points="81.23,132.87 73.278,152.607 89.18,152.607 		"/>
		<polygon fill="#4A662C" points="92.934,143.619 84.984,152.607 100.887,152.607 		"/>
		<polygon fill="#4A662C" points="71.176,140.465 63.223,152.607 79.126,152.607 		"/>
	</g>
	<g clip-path="url(#SVGID_16_)">
		<polygon fill="#4A662C" points="34.864,152.72 50.767,152.72 42.814,139.887 		"/>
		<polygon fill="#4A662C" points="11.817,152.72 27.719,152.72 19.767,132.983 		"/>
		<polygon fill="#4A662C" points="0.11,152.72 16.013,152.72 8.063,143.731 		"/>
		<polygon fill="#4A662C" points="21.871,152.72 37.774,152.72 29.821,140.577 		"/>
	</g>
</g>
</svg>
