<?xml version="1.0" encoding="utf-8"?>
<!-- Generator: Adobe Illustrator 16.0.0, SVG Export Plug-In . SVG Version: 6.00 Build 0)  -->
<!DOCTYPE svg PUBLIC "-//W3C//DTD SVG 1.1//EN" "http://www.w3.org/Graphics/SVG/1.1/DTD/svg11.dtd">
<svg version="1.1" id="Layer_1" xmlns="http://www.w3.org/2000/svg" xmlns:xlink="http://www.w3.org/1999/xlink" x="0px" y="0px"
	 width="101.125px" height="137.262px" viewBox="0 0 101.125 137.262" enable-background="new 0 0 101.125 137.262"
	 xml:space="preserve">
<g>
	<defs>
		<rect id="SVGID_1_" x="0.063" y="36.263" width="100.999" height="100.998"/>
	</defs>
	<clipPath id="SVGID_2_">
		<use xlink:href="#SVGID_1_"  overflow="visible"/>
	</clipPath>
	<g clip-path="url(#SVGID_2_)">
		<rect x="0.063" y="36.263" fill="#24CCBD" width="100.999" height="100.998"/>
		<path opacity="0.2" fill="#FFFFFF" d="M101.062,66.199c0-2.753-1.005-4.983-2.246-4.983H41.492v9.967h57.324
			C100.057,71.183,101.062,68.952,101.062,66.199z"/>
		<path opacity="0.2" fill="#FFFFFF" d="M59.272,121.049H8.762c-0.698,0-1.265,2.23-1.265,4.983c0,2.751,0.566,4.983,1.265,4.983
			h50.51c0.698,0,1.265-2.232,1.265-4.983C60.537,123.279,59.97,121.049,59.272,121.049z"/>
		<ellipse fill="#49A028" cx="50.884" cy="104.797" rx="36.542" ry="9.702"/>
		<ellipse fill="#49A028" cx="94.389" cy="51.858" rx="12.576" ry="4.587"/>
		<g>
			<path fill="#FBFFF0" d="M86.846,43.656c0,0-0.189,1.669,0.334,3.287c-0.779-0.002-1.665,0.151-2.662,0.533
				c0,0,2.706,4.688,6.986,2.678v-8.982c-1.183,1.229-1.9,2.305-2.288,3.242C88.581,44.055,87.803,43.784,86.846,43.656z"/>
			<path fill="#E5D9CF" d="M96.161,43.656c-0.953,0.128-1.734,0.398-2.368,0.759c-0.39-0.938-1.106-2.014-2.288-3.242v8.982
				c4.28,2.01,6.986-2.678,6.986-2.678c-0.998-0.382-1.883-0.535-2.664-0.533C96.35,45.325,96.161,43.656,96.161,43.656z"/>
		</g>
		<ellipse fill="#49A028" cx="-6.527" cy="51.858" rx="12.576" ry="4.587"/>
		<g>
			<path fill="#FBFFF0" d="M-14.069,43.656c0,0-0.189,1.669,0.334,3.287c-0.78-0.002-1.666,0.151-2.663,0.533
				c0,0,2.706,4.688,6.986,2.678v-8.982c-1.181,1.229-1.899,2.305-2.286,3.242C-12.335,44.055-13.113,43.784-14.069,43.656z"/>
			<path fill="#E5D9CF" d="M-4.755,43.656c-0.954,0.128-1.734,0.398-2.369,0.759c-0.387-0.938-1.105-2.014-2.288-3.242v8.982
				c4.282,2.01,6.986-2.678,6.986-2.678c-0.997-0.382-1.881-0.535-2.663-0.533C-4.566,45.325-4.755,43.656-4.755,43.656z"/>
		</g>
		<ellipse fill="#86CF37" cx="7.498" cy="81.885" rx="16.91" ry="5.309"/>
		<g>
			<path fill="#FBFFF0" d="M9.07,69.824c0,0-0.234,2.061,0.413,4.057c-0.964-0.002-2.057,0.189-3.289,0.658
				c0,0,3.341,5.789,8.625,3.307V66.756c-1.459,1.52-2.345,2.847-2.824,4.004C11.211,70.316,10.25,69.982,9.07,69.824z"/>
			<path fill="#E5D9CF" d="M20.568,69.824c-1.179,0.158-2.142,0.492-2.925,0.937c-0.479-1.157-1.365-2.485-2.824-4.004v11.089
				c5.285,2.482,8.625-3.307,8.625-3.307c-1.23-0.469-2.322-0.66-3.287-0.658C20.804,71.885,20.568,69.824,20.568,69.824z"/>
		</g>
		<ellipse fill="#86CF37" cx="108.583" cy="82.054" rx="16.912" ry="5.309"/>
		<g>
			<path fill="#FBFFF0" d="M109.982,69.992c0,0-0.234,2.061,0.412,4.059c-0.965-0.002-2.057,0.187-3.287,0.657
				c0,0,3.34,5.788,8.624,3.306V66.924c-1.458,1.519-2.347,2.846-2.825,4.003C112.123,70.484,111.162,70.15,109.982,69.992z"/>
			<path fill="#E5D9CF" d="M121.482,69.992c-1.182,0.158-2.142,0.492-2.926,0.936c-0.479-1.157-1.365-2.485-2.825-4.003v11.089
				c5.284,2.482,8.625-3.306,8.625-3.306c-1.23-0.471-2.323-0.659-3.287-0.657C121.714,72.053,121.482,69.992,121.482,69.992z"/>
		</g>
		<path opacity="0.2" fill="#FFFFFF" d="M13.387,66.994c0-2.753-1.005-4.983-2.244-4.983h-57.327v9.966h57.327
			C12.381,71.977,13.387,69.746,13.387,66.994z"/>
		<path opacity="0.2" fill="#FFFFFF" d="M71.277,45.913c0-2.752-1.006-4.982-2.246-4.982H11.706v9.966h57.325
			C70.271,50.897,71.277,48.665,71.277,45.913z"/>
	</g>
</g>
<g>
	<defs>
		<rect id="SVGID_3_" x="0.063" y="94.738" width="100.998" height="42.522"/>
	</defs>
	<clipPath id="SVGID_4_">
		<use xlink:href="#SVGID_3_"  overflow="visible"/>
	</clipPath>
</g>
<g>
	<defs>
		<rect id="SVGID_5_" x="0.065" y="94.738" width="100.998" height="42.522"/>
	</defs>
	<clipPath id="SVGID_6_">
		<use xlink:href="#SVGID_5_"  overflow="visible"/>
	</clipPath>
	<g clip-path="url(#SVGID_6_)">
		<g>
			<g>
				<path fill="#84A80F" d="M94.042,117.694c-1.26,0.041-6.574,0.081-7.828,0.12c-3.456,0.105-6.978,0.224-10.385,0.507
					c-3.448,0.289-6.651,0.846-10.07,1.175c-1.907,0.185-3.858,0.306-5.823,0.359c-3.877,0.108-7.142-0.638-10.826-1.024
					c-4.91-0.518-9.355-0.516-14.272-0.014c-4.063,0.416-7.735,0.777-11.993,0.616c-4.266-0.161-8.443-0.786-12.607-1.149
					c-2.66-0.234-5.033-0.51-7.818-0.576l-2.354-0.006v19.559h100.998v-19.566H94.042z"/>
				<g>
					<ellipse fill="#618708" cx="9.996" cy="119.496" rx="2.456" ry="0.359"/>
					<path fill="#618708" d="M16.652,120.15c0,0.112-0.618,0.203-1.383,0.203c-0.76,0-1.379-0.091-1.379-0.203
						s0.619-0.204,1.379-0.204C16.034,119.946,16.652,120.038,16.652,120.15z"/>
					<ellipse fill="#618708" cx="40.612" cy="121.159" rx="2.454" ry="0.361"/>
					<ellipse fill="#618708" cx="56.876" cy="122.039" rx="1.381" ry="0.204"/>
					<path fill="#618708" d="M70.531,120.292c0,0.112-0.62,0.203-1.381,0.203c-0.766,0-1.381-0.091-1.381-0.203
						c0-0.113,0.615-0.203,1.381-0.203C69.911,120.089,70.531,120.179,70.531,120.292z"/>
					<path fill="#618708" d="M93.59,119.632c0,0.2-1.1,0.363-2.454,0.363c-1.359,0-2.454-0.163-2.454-0.363
						c0-0.198,1.095-0.359,2.454-0.359C92.491,119.272,93.59,119.434,93.59,119.632z"/>
				</g>
			</g>
		</g>
	</g>
	<g clip-path="url(#SVGID_6_)">
		<polygon fill="#62883B" points="69.702,118.417 65.872,131.466 73.531,131.466 		"/>
		<polygon fill="#62883B" points="80.799,114.333 76.971,131.466 84.631,131.466 		"/>
		<polygon fill="#62883B" points="86.44,122.326 82.61,131.466 90.268,131.466 		"/>
		<polygon fill="#62883B" points="75.958,119.118 72.128,131.466 79.79,131.466 		"/>
	</g>
	<g clip-path="url(#SVGID_6_)">
		<polygon fill="#62883B" points="21.966,126.505 20.773,131.933 23.159,131.933 		"/>
		<polygon fill="#62883B" points="25.423,124.806 24.23,131.933 26.616,131.933 		"/>
		<polygon fill="#62883B" points="27.18,128.132 25.987,131.933 28.372,131.933 		"/>
		<polygon fill="#62883B" points="23.915,126.797 22.722,131.933 25.108,131.933 		"/>
	</g>
</g>
</svg>
