<?xml version="1.0" encoding="utf-8"?>
<!-- Generator: Adobe Illustrator 16.0.0, SVG Export Plug-In . SVG Version: 6.00 Build 0)  -->
<!DOCTYPE svg PUBLIC "-//W3C//DTD SVG 1.1//EN" "http://www.w3.org/Graphics/SVG/1.1/DTD/svg11.dtd">
<svg version="1.1" id="Layer_1" xmlns="http://www.w3.org/2000/svg" xmlns:xlink="http://www.w3.org/1999/xlink" x="0px" y="0px"
	 width="101.125px" height="137.262px" viewBox="0 0 101.125 137.262" enable-background="new 0 0 101.125 137.262"
	 xml:space="preserve">
<g>
	<g>
		<defs>
			<rect id="SVGID_1_" x="0.063" y="53.948" width="101" height="83.313"/>
		</defs>
		<clipPath id="SVGID_2_">
			<use xlink:href="#SVGID_1_"  overflow="visible"/>
		</clipPath>
		<g clip-path="url(#SVGID_2_)">
			<g>
				<defs>
					<rect id="SVGID_3_" x="0.188" y="54.206" width="100.875" height="82.924"/>
				</defs>
				<defs>
					<rect id="SVGID_4_" x="0.188" y="54.206" width="100.875" height="82.924"/>
				</defs>
				<defs>
					<rect id="SVGID_5_" x="0.188" y="54.206" width="100.875" height="82.924"/>
				</defs>
				<defs>
					<rect id="SVGID_6_" x="0.188" y="54.206" width="100.875" height="82.924"/>
				</defs>
				<defs>
					<rect id="SVGID_7_" x="0.188" y="54.206" width="100.875" height="82.924"/>
				</defs>
				<defs>
					<rect id="SVGID_8_" x="0.188" y="54.206" width="100.875" height="82.924"/>
				</defs>
				<defs>
					<rect id="SVGID_9_" x="0.188" y="54.206" width="100.875" height="82.924"/>
				</defs>
				<defs>
					<rect id="SVGID_10_" x="0.188" y="54.206" width="100.875" height="82.924"/>
				</defs>
				<clipPath id="SVGID_11_">
					<use xlink:href="#SVGID_3_"  overflow="visible"/>
				</clipPath>
				<clipPath id="SVGID_12_" clip-path="url(#SVGID_11_)">
					<use xlink:href="#SVGID_4_"  overflow="visible"/>
				</clipPath>
				<clipPath id="SVGID_13_" clip-path="url(#SVGID_12_)">
					<use xlink:href="#SVGID_5_"  overflow="visible"/>
				</clipPath>
				<clipPath id="SVGID_14_" clip-path="url(#SVGID_13_)">
					<use xlink:href="#SVGID_6_"  overflow="visible"/>
				</clipPath>
				<clipPath id="SVGID_15_" clip-path="url(#SVGID_14_)">
					<use xlink:href="#SVGID_7_"  overflow="visible"/>
				</clipPath>
				<clipPath id="SVGID_16_" clip-path="url(#SVGID_15_)">
					<use xlink:href="#SVGID_8_"  overflow="visible"/>
				</clipPath>
				<clipPath id="SVGID_17_" clip-path="url(#SVGID_16_)">
					<use xlink:href="#SVGID_9_"  overflow="visible"/>
				</clipPath>
				<clipPath id="SVGID_18_" clip-path="url(#SVGID_17_)">
					<use xlink:href="#SVGID_10_"  overflow="visible"/>
				</clipPath>
				<rect x="0.188" y="54.206" clip-path="url(#SVGID_18_)" fill="#84A93F" width="100.875" height="82.924"/>
				<g clip-path="url(#SVGID_18_)">
					<polygon fill="#62883B" points="53.819,119.615 48.01,129.74 59.625,129.74 					"/>
					<polygon fill="#62883B" points="70.653,114.167 64.844,129.74 76.459,129.74 					"/>
					<polygon fill="#62883B" points="79.202,122.648 73.395,129.74 85.01,129.74 					"/>
					<polygon fill="#62883B" points="63.309,120.159 57.5,129.74 69.116,129.74 					"/>
				</g>
				<g clip-path="url(#SVGID_18_)">
					<polygon fill="#62883B" points="27.875,66.692 24.044,81.019 31.704,81.019 					"/>
					<polygon fill="#62883B" points="38.973,62.208 35.145,81.019 42.805,81.019 					"/>
					<polygon fill="#62883B" points="44.614,70.985 40.784,81.019 48.442,81.019 					"/>
					<polygon fill="#62883B" points="34.131,67.463 30.301,81.019 37.963,81.019 					"/>
				</g>
				<path opacity="0.4" clip-path="url(#SVGID_18_)" fill="#84A93F" enable-background="new    " d="M118.321,95.667
					c0,2.708-2.844,4.904-6.354,4.904H90.167c-3.514,0-6.359-2.197-6.359-4.904c0-2.704,2.846-4.9,6.359-4.9h21.799
					C115.477,90.767,118.321,92.963,118.321,95.667z"/>
				<path opacity="0.4" clip-path="url(#SVGID_18_)" fill="#84A93F" enable-background="new    " d="M88.639,81.148
					c0,2.708-2.838,4.903-6.352,4.903H62.41c-3.509,0-6.353-2.196-6.353-4.903c0-2.703,2.844-4.901,6.353-4.901h19.876
					C85.801,76.247,88.639,78.445,88.639,81.148z"/>
				<g clip-path="url(#SVGID_18_)">
					<path fill="#62883B" d="M73.926,65.219c0,0.841-1.098,1.519-2.451,1.519s-2.453-0.677-2.453-1.519s1.1-1.524,2.453-1.524
						C72.829,63.693,73.926,64.377,73.926,65.219z"/>
					<path fill="#62883B" d="M78.122,67.98c0,0.474-0.615,0.855-1.381,0.855c-0.758,0-1.377-0.381-1.377-0.855
						c0-0.473,0.619-0.859,1.377-0.859C77.506,67.121,78.122,67.507,78.122,67.98z"/>
					<path fill="#62883B" d="M14.856,113.559c0,0.842-1.097,1.521-2.453,1.521c-1.352,0-2.451-0.678-2.451-1.521
						c0-0.84,1.099-1.523,2.451-1.523C13.759,112.035,14.856,112.719,14.856,113.559z"/>
					<path fill="#62883B" d="M32.661,121.51c0,0.469-0.619,0.86-1.379,0.86c-0.762,0-1.381-0.392-1.381-0.86
						c0-0.474,0.619-0.857,1.381-0.857C32.042,120.652,32.661,121.036,32.661,121.51z"/>
					<path fill="#62883B" d="M59.655,95.672c0,0.473-0.619,0.854-1.379,0.854c-0.764,0-1.381-0.381-1.381-0.854
						c0-0.478,0.617-0.86,1.381-0.86C59.038,94.813,59.655,95.194,59.655,95.672z"/>
					<path fill="#62883B" d="M80.573,108.645c0,0.84-1.097,1.528-2.451,1.528c-1.354,0-2.45-0.688-2.45-1.528s1.097-1.52,2.45-1.52
						C79.476,107.125,80.573,107.805,80.573,108.645z"/>
					<ellipse fill="#62883B" cx="33.731" cy="129.44" rx="2.453" ry="1.52"/>
					<path fill="#62883B" d="M16.11,125.731c0-0.469,0.617-0.861,1.377-0.861c0.762,0,1.381,0.393,1.381,0.861
						c0,0.473-0.619,0.855-1.381,0.855C16.727,126.587,16.11,126.204,16.11,125.731z"/>
					<path fill="#62883B" d="M17.963,62.517c-1.024,0-1.849-0.901-1.849-2.015c0-1.112,0.824-2.017,1.849-2.017
						c1.023,0,1.854,0.905,1.854,2.017C19.819,61.616,18.987,62.517,17.963,62.517z"/>
					<path fill="#62883B" d="M13.452,74.99c-0.57,0-1.049-0.51-1.049-1.134c0-0.627,0.479-1.137,1.049-1.137
						c0.574,0,1.041,0.51,1.041,1.137C14.495,74.48,14.028,74.99,13.452,74.99z"/>
				</g>
				<path opacity="0.4" clip-path="url(#SVGID_18_)" fill="#84A93F" enable-background="new    " d="M28.948,95.667
					c0,2.708-2.846,4.904-6.355,4.904H0.793c-3.512,0-6.357-2.197-6.357-4.904c0-2.704,2.844-4.9,6.357-4.9h21.799
					C26.102,90.767,28.948,92.963,28.948,95.667z"/>
				<path opacity="0.4" clip-path="url(#SVGID_18_)" fill="#84A93F" enable-background="new    " d="M50.625,112.097
					c0,2.709-2.84,4.905-6.354,4.905H24.397c-3.509,0-6.352-2.197-6.352-4.905c0-2.703,2.845-4.899,6.352-4.899h19.875
					C47.786,107.197,50.625,109.394,50.625,112.097z"/>
			</g>
		</g>
		<rect x="0.188" y="24.707" clip-path="url(#SVGID_2_)" fill="none" width="100.748" height="112.555"/>
	</g>
</g>
</svg>
